<?xml version="1.0" encoding="UTF-8" standalone="no"?><svg xmlns="http://www.w3.org/2000/svg" xmlns:xlink="http://www.w3.org/1999/xlink" contentScriptType="application/ecmascript" contentStyleType="text/css" height="769px" preserveAspectRatio="none" style="width:1277px;height:769px;" version="1.1" viewBox="0 0 1277 769" width="1277px" zoomAndPan="magnify"><defs><filter height="300%" id="f19u0m4bk7hsmi" width="300%" x="-1" y="-1"><feGaussianBlur result="blurOut" stdDeviation="2.0"/><feColorMatrix in="blurOut" result="blurOut2" type="matrix" values="0 0 0 0 0 0 0 0 0 0 0 0 0 0 0 0 0 0 .4 0"/><feOffset dx="4.0" dy="4.0" in="blurOut2" result="blurOut3"/><feBlend in="SourceGraphic" in2="blurOut3" mode="normal"/></filter></defs><g><rect fill="#FFFFFF" filter="url(#f19u0m4bk7hsmi)" height="565.8828" style="stroke:#A80036;stroke-width:1.0;" width="10" x="47" y="99.6094"/><rect fill="#FFFFFF" filter="url(#f19u0m4bk7hsmi)" height="46.7031" style="stroke:#A80036;stroke-width:1.0;" width="10" x="318" y="121.9609"/><rect fill="#FFFFFF" filter="url(#f19u0m4bk7hsmi)" height="258.3672" style="stroke:#A80036;stroke-width:1.0;" width="10" x="318" y="199.0156"/><rect fill="#FFFFFF" filter="url(#f19u0m4bk7hsmi)" height="177.7578" style="stroke:#A80036;stroke-width:1.0;" width="10" x="318" y="487.7344"/><rect fill="#FFFFFF" filter="url(#f19u0m4bk7hsmi)" height="197.6641" style="stroke:#A80036;stroke-width:1.0;" width="10" x="588" y="229.3672"/><rect fill="#FFFFFF" filter="url(#f19u0m4bk7hsmi)" height="110.0547" style="stroke:#A80036;stroke-width:1.0;" width="10" x="588" y="518.0859"/><rect fill="#FFFFFF" filter="url(#f19u0m4bk7hsmi)" height="30" style="stroke:#A80036;stroke-width:1.0;" width="10" x="815" y="259.7188"/><rect fill="#FFFFFF" filter="url(#f19u0m4bk7hsmi)" height="30.3516" style="stroke:#A80036;stroke-width:1.0;" width="10" x="926.5" y="320.0703"/><rect fill="#FFFFFF" filter="url(#f19u0m4bk7hsmi)" height="30" style="stroke:#A80036;stroke-width:1.0;" width="10" x="926.5" y="397.0313"/><rect fill="#FFFFFF" filter="url(#f19u0m4bk7hsmi)" height="79.7031" style="stroke:#A80036;stroke-width:1.0;" width="10" x="926.5" y="548.4375"/><line style="stroke:#A80036;stroke-width:1.0;stroke-dasharray:5.0,5.0;" x1="52" x2="52" y1="89.6094" y2="683.4922"/><line style="stroke:#A80036;stroke-width:1.0;stroke-dasharray:5.0,5.0;" x1="322.5" x2="322.5" y1="89.6094" y2="683.4922"/><line style="stroke:#A80036;stroke-width:1.0;stroke-dasharray:5.0,5.0;" x1="592.5" x2="592.5" y1="89.6094" y2="683.4922"/><line style="stroke:#A80036;stroke-width:1.0;stroke-dasharray:5.0,5.0;" x1="820" x2="820" y1="89.6094" y2="683.4922"/><line style="stroke:#A80036;stroke-width:1.0;stroke-dasharray:5.0,5.0;" x1="931" x2="931" y1="89.6094" y2="683.4922"/><line style="stroke:#A80036;stroke-width:1.0;stroke-dasharray:5.0,5.0;" x1="1197.5" x2="1197.5" y1="361.375" y2="683.4922"/><text fill="#000000" font-family="sans-serif" font-size="14" lengthAdjust="spacingAndGlyphs" textLength="88" x="5" y="86.5332">Administrativo</text><ellipse cx="52" cy="15" fill="#FEFECE" filter="url(#f19u0m4bk7hsmi)" rx="8" ry="8" style="stroke:#A80036;stroke-width:2.0;"/><path d="M52,23 L52,50 M39,31 L65,31 M52,50 L39,65 M52,50 L65,65 " fill="none" filter="url(#f19u0m4bk7hsmi)" style="stroke:#A80036;stroke-width:2.0;"/><text fill="#000000" font-family="sans-serif" font-size="14" lengthAdjust="spacingAndGlyphs" textLength="88" x="5" y="697.0254">Administrativo</text><ellipse cx="52" cy="710.1016" fill="#FEFECE" filter="url(#f19u0m4bk7hsmi)" rx="8" ry="8" style="stroke:#A80036;stroke-width:2.0;"/><path d="M52,718.1016 L52,745.1016 M39,726.1016 L65,726.1016 M52,745.1016 L39,760.1016 M52,745.1016 L65,760.1016 " fill="none" filter="url(#f19u0m4bk7hsmi)" style="stroke:#A80036;stroke-width:2.0;"/><rect fill="#FEFECE" filter="url(#f19u0m4bk7hsmi)" height="31.6094" style="stroke:#A80036;stroke-width:1.5;" width="101" x="270.5" y="53"/><text fill="#000000" font-family="sans-serif" font-size="14" lengthAdjust="spacingAndGlyphs" textLength="87" x="277.5" y="74.5332">:DefinirAreaUI</text><rect fill="#FEFECE" filter="url(#f19u0m4bk7hsmi)" height="31.6094" style="stroke:#A80036;stroke-width:1.5;" width="101" x="270.5" y="682.4922"/><text fill="#000000" font-family="sans-serif" font-size="14" lengthAdjust="spacingAndGlyphs" textLength="87" x="277.5" y="704.0254">:DefinirAreaUI</text><rect fill="#FEFECE" filter="url(#f19u0m4bk7hsmi)" height="31.6094" style="stroke:#A80036;stroke-width:1.5;" width="151" x="515.5" y="53"/><text fill="#000000" font-family="sans-serif" font-size="14" lengthAdjust="spacingAndGlyphs" textLength="137" x="522.5" y="74.5332">:DefinirAreaController</text><rect fill="#FEFECE" filter="url(#f19u0m4bk7hsmi)" height="31.6094" style="stroke:#A80036;stroke-width:1.5;" width="151" x="515.5" y="682.4922"/><text fill="#000000" font-family="sans-serif" font-size="14" lengthAdjust="spacingAndGlyphs" textLength="137" x="522.5" y="704.0254">:DefinirAreaController</text><rect fill="#FEFECE" filter="url(#f19u0m4bk7hsmi)" height="31.6094" style="stroke:#A80036;stroke-width:1.5;" width="86" x="775" y="53"/><text fill="#000000" font-family="sans-serif" font-size="14" lengthAdjust="spacingAndGlyphs" textLength="72" x="782" y="74.5332">:Plataforma</text><rect fill="#FEFECE" filter="url(#f19u0m4bk7hsmi)" height="31.6094" style="stroke:#A80036;stroke-width:1.5;" width="86" x="775" y="682.4922"/><text fill="#000000" font-family="sans-serif" font-size="14" lengthAdjust="spacingAndGlyphs" textLength="72" x="782" y="704.0254">:Plataforma</text><rect fill="#FEFECE" filter="url(#f19u0m4bk7hsmi)" height="49.2188" style="stroke:#A80036;stroke-width:1.5;" width="109" x="875" y="35.3906"/><text fill="#000000" font-family="sans-serif" font-size="14" lengthAdjust="spacingAndGlyphs" textLength="73" x="893" y="56.9238">rat: Registo</text><text fill="#000000" font-family="sans-serif" font-size="14" lengthAdjust="spacingAndGlyphs" textLength="95" x="882" y="74.5332">AreasAtividade</text><rect fill="#FEFECE" filter="url(#f19u0m4bk7hsmi)" height="49.2188" style="stroke:#A80036;stroke-width:1.5;" width="109" x="875" y="682.4922"/><text fill="#000000" font-family="sans-serif" font-size="14" lengthAdjust="spacingAndGlyphs" textLength="73" x="893" y="704.0254">rat: Registo</text><text fill="#000000" font-family="sans-serif" font-size="14" lengthAdjust="spacingAndGlyphs" textLength="95" x="882" y="721.6348">AreasAtividade</text><rect fill="#FEFECE" filter="url(#f19u0m4bk7hsmi)" height="31.6094" style="stroke:#A80036;stroke-width:1.5;" width="135" x="1128.5" y="682.4922"/><text fill="#000000" font-family="sans-serif" font-size="14" lengthAdjust="spacingAndGlyphs" textLength="121" x="1135.5" y="704.0254">area:AreaAtividade</text><rect fill="#FFFFFF" filter="url(#f19u0m4bk7hsmi)" height="565.8828" style="stroke:#A80036;stroke-width:1.0;" width="10" x="47" y="99.6094"/><rect fill="#FFFFFF" filter="url(#f19u0m4bk7hsmi)" height="46.7031" style="stroke:#A80036;stroke-width:1.0;" width="10" x="318" y="121.9609"/><rect fill="#FFFFFF" filter="url(#f19u0m4bk7hsmi)" height="258.3672" style="stroke:#A80036;stroke-width:1.0;" width="10" x="318" y="199.0156"/><rect fill="#FFFFFF" filter="url(#f19u0m4bk7hsmi)" height="177.7578" style="stroke:#A80036;stroke-width:1.0;" width="10" x="318" y="487.7344"/><rect fill="#FFFFFF" filter="url(#f19u0m4bk7hsmi)" height="197.6641" style="stroke:#A80036;stroke-width:1.0;" width="10" x="588" y="229.3672"/><rect fill="#FFFFFF" filter="url(#f19u0m4bk7hsmi)" height="110.0547" style="stroke:#A80036;stroke-width:1.0;" width="10" x="588" y="518.0859"/><rect fill="#FFFFFF" filter="url(#f19u0m4bk7hsmi)" height="30" style="stroke:#A80036;stroke-width:1.0;" width="10" x="815" y="259.7188"/><rect fill="#FFFFFF" filter="url(#f19u0m4bk7hsmi)" height="30.3516" style="stroke:#A80036;stroke-width:1.0;" width="10" x="926.5" y="320.0703"/><rect fill="#FFFFFF" filter="url(#f19u0m4bk7hsmi)" height="30" style="stroke:#A80036;stroke-width:1.0;" width="10" x="926.5" y="397.0313"/><rect fill="#FFFFFF" filter="url(#f19u0m4bk7hsmi)" height="79.7031" style="stroke:#A80036;stroke-width:1.0;" width="10" x="926.5" y="548.4375"/><polygon fill="#A80036" points="306,117.9609,316,121.9609,306,125.9609,310,121.9609" style="stroke:#A80036;stroke-width:1.0;"/><line style="stroke:#A80036;stroke-width:1.0;" x1="57" x2="312" y1="121.9609" y2="121.9609"/><text fill="#000000" font-family="sans-serif" font-size="13" font-weight="bold" lengthAdjust="spacingAndGlyphs" textLength="7" x="64" y="117.1045">1</text><text fill="#000000" font-family="sans-serif" font-size="13" lengthAdjust="spacingAndGlyphs" textLength="127" x="75" y="117.1045">nova área de atividade</text><polygon fill="#A80036" points="68,164.6641,58,168.6641,68,172.6641,64,168.6641" style="stroke:#A80036;stroke-width:1.0;"/><line style="stroke:#A80036;stroke-width:1.0;stroke-dasharray:2.0,2.0;" x1="62" x2="322" y1="168.6641" y2="168.6641"/><text fill="#000000" font-family="sans-serif" font-size="13" font-weight="bold" lengthAdjust="spacingAndGlyphs" textLength="7" x="74" y="155.6318">2</text><text fill="#000000" font-family="sans-serif" font-size="13" lengthAdjust="spacingAndGlyphs" textLength="80" x="85" y="147.4561">solicita dados</text><text fill="#000000" font-family="sans-serif" font-size="13" lengthAdjust="spacingAndGlyphs" textLength="215" x="85" y="163.8076">(código, descrição breve e detalhada)</text><polygon fill="#A80036" points="306,195.0156,316,199.0156,306,203.0156,310,199.0156" style="stroke:#A80036;stroke-width:1.0;"/><line style="stroke:#A80036;stroke-width:1.0;" x1="57" x2="312" y1="199.0156" y2="199.0156"/><text fill="#000000" font-family="sans-serif" font-size="13" font-weight="bold" lengthAdjust="spacingAndGlyphs" textLength="7" x="64" y="194.1592">3</text><text fill="#000000" font-family="sans-serif" font-size="13" lengthAdjust="spacingAndGlyphs" textLength="169" x="75" y="194.1592">introduz os dados solicitados</text><polygon fill="#A80036" points="576,225.3672,586,229.3672,576,233.3672,580,229.3672" style="stroke:#A80036;stroke-width:1.0;"/><line style="stroke:#A80036;stroke-width:1.0;" x1="328" x2="582" y1="229.3672" y2="229.3672"/><text fill="#000000" font-family="sans-serif" font-size="13" font-weight="bold" lengthAdjust="spacingAndGlyphs" textLength="7" x="335" y="224.5107">4</text><text fill="#000000" font-family="sans-serif" font-size="13" lengthAdjust="spacingAndGlyphs" textLength="230" x="346" y="224.5107">novaAreaAtividade(cod, dsBreve, dsDet)</text><polygon fill="#A80036" points="803,255.7188,813,259.7188,803,263.7188,807,259.7188" style="stroke:#A80036;stroke-width:1.0;"/><line style="stroke:#A80036;stroke-width:1.0;" x1="598" x2="809" y1="259.7188" y2="259.7188"/><text fill="#000000" font-family="sans-serif" font-size="13" font-weight="bold" lengthAdjust="spacingAndGlyphs" textLength="7" x="605" y="254.8623">5</text><text fill="#000000" font-family="sans-serif" font-size="13" lengthAdjust="spacingAndGlyphs" textLength="187" x="616" y="254.8623">rat = getRegistoAreasAtividade()</text><polygon fill="#A80036" points="914.5,316.0703,924.5,320.0703,914.5,324.0703,918.5,320.0703" style="stroke:#A80036;stroke-width:1.0;"/><line style="stroke:#A80036;stroke-width:1.0;" x1="598" x2="920.5" y1="320.0703" y2="320.0703"/><text fill="#000000" font-family="sans-serif" font-size="13" font-weight="bold" lengthAdjust="spacingAndGlyphs" textLength="7" x="605" y="315.2139">6</text><text fill="#000000" font-family="sans-serif" font-size="13" lengthAdjust="spacingAndGlyphs" textLength="263" x="616" y="315.2139">area=novaAreaAtividade(cod, dsBreve, dsDet)</text><polygon fill="#A80036" points="1116.5,346.4219,1126.5,350.4219,1116.5,354.4219,1120.5,350.4219" style="stroke:#A80036;stroke-width:1.0;"/><line style="stroke:#A80036;stroke-width:1.0;stroke-dasharray:2.0,2.0;" x1="931.5" x2="1122.5" y1="350.4219" y2="350.4219"/><text fill="#000000" font-family="sans-serif" font-size="13" font-weight="bold" lengthAdjust="spacingAndGlyphs" textLength="7" x="938.5" y="345.5654">7</text><text fill="#000000" font-family="sans-serif" font-size="13" lengthAdjust="spacingAndGlyphs" textLength="157" x="949.5" y="345.5654">create(cod, dsBreve,dsDet)</text><rect fill="#FEFECE" filter="url(#f19u0m4bk7hsmi)" height="31.6094" style="stroke:#A80036;stroke-width:1.5;" width="135" x="1128.5" y="328.0703"/><text fill="#000000" font-family="sans-serif" font-size="14" lengthAdjust="spacingAndGlyphs" textLength="121" x="1135.5" y="349.6035">area:AreaAtividade</text><polygon fill="#A80036" points="914.5,393.0313,924.5,397.0313,914.5,401.0313,918.5,397.0313" style="stroke:#A80036;stroke-width:1.0;"/><line style="stroke:#A80036;stroke-width:1.0;" x1="598" x2="920.5" y1="397.0313" y2="397.0313"/><text fill="#000000" font-family="sans-serif" font-size="13" font-weight="bold" lengthAdjust="spacingAndGlyphs" textLength="7" x="605" y="392.1748">8</text><text fill="#000000" font-family="sans-serif" font-size="13" lengthAdjust="spacingAndGlyphs" textLength="144" x="616" y="392.1748">validaAreaAtividade(area)</text><polygon fill="#A80036" points="68,453.3828,58,457.3828,68,461.3828,64,457.3828" style="stroke:#A80036;stroke-width:1.0;"/><line style="stroke:#A80036;stroke-width:1.0;stroke-dasharray:2.0,2.0;" x1="62" x2="322" y1="457.3828" y2="457.3828"/><text fill="#000000" font-family="sans-serif" font-size="13" font-weight="bold" lengthAdjust="spacingAndGlyphs" textLength="7" x="74" y="452.5264">9</text><text fill="#000000" font-family="sans-serif" font-size="13" lengthAdjust="spacingAndGlyphs" textLength="226" x="85" y="452.5264">apresenta dados e solicita confirmação</text><polygon fill="#A80036" points="306,483.7344,316,487.7344,306,491.7344,310,487.7344" style="stroke:#A80036;stroke-width:1.0;"/><line style="stroke:#A80036;stroke-width:1.0;" x1="57" x2="312" y1="487.7344" y2="487.7344"/><text fill="#000000" font-family="sans-serif" font-size="13" font-weight="bold" lengthAdjust="spacingAndGlyphs" textLength="14" x="64" y="482.8779">10</text><text fill="#000000" font-family="sans-serif" font-size="13" lengthAdjust="spacingAndGlyphs" textLength="49" x="82" y="482.8779">confirma</text><polygon fill="#A80036" points="576,514.0859,586,518.0859,576,522.0859,580,518.0859" style="stroke:#A80036;stroke-width:1.0;"/><line style="stroke:#A80036;stroke-width:1.0;" x1="328" x2="582" y1="518.0859" y2="518.0859"/><text fill="#000000" font-family="sans-serif" font-size="13" font-weight="bold" lengthAdjust="spacingAndGlyphs" textLength="14" x="335" y="513.2295">11</text><text fill="#000000" font-family="sans-serif" font-size="13" lengthAdjust="spacingAndGlyphs" textLength="126" x="353" y="513.2295">registaAreaAtividade()</text><polygon fill="#A80036" points="914.5,544.4375,924.5,548.4375,914.5,552.4375,918.5,548.4375" style="stroke:#A80036;stroke-width:1.0;"/><line style="stroke:#A80036;stroke-width:1.0;" x1="598" x2="920.5" y1="548.4375" y2="548.4375"/><text fill="#000000" font-family="sans-serif" font-size="13" font-weight="bold" lengthAdjust="spacingAndGlyphs" textLength="14" x="605" y="543.5811">12</text><text fill="#000000" font-family="sans-serif" font-size="13" lengthAdjust="spacingAndGlyphs" textLength="155" x="623" y="543.5811">registaAreaAtivadade(area)</text><line style="stroke:#A80036;stroke-width:1.0;" x1="936.5" x2="978.5" y1="578.7891" y2="578.7891"/><line style="stroke:#A80036;stroke-width:1.0;" x1="978.5" x2="978.5" y1="578.7891" y2="591.7891"/><line style="stroke:#A80036;stroke-width:1.0;" x1="937.5" x2="978.5" y1="591.7891" y2="591.7891"/><polygon fill="#A80036" points="947.5,587.7891,937.5,591.7891,947.5,595.7891,943.5,591.7891" style="stroke:#A80036;stroke-width:1.0;"/><text fill="#000000" font-family="sans-serif" font-size="13" font-weight="bold" lengthAdjust="spacingAndGlyphs" textLength="14" x="943.5" y="573.9326">13</text><text fill="#000000" font-family="sans-serif" font-size="13" lengthAdjust="spacingAndGlyphs" textLength="144" x="961.5" y="573.9326">validaAreaAtividade(area)</text><line style="stroke:#A80036;stroke-width:1.0;" x1="936.5" x2="978.5" y1="627.1406" y2="627.1406"/><line style="stroke:#A80036;stroke-width:1.0;" x1="978.5" x2="978.5" y1="627.1406" y2="640.1406"/><line style="stroke:#A80036;stroke-width:1.0;" x1="931.5" x2="978.5" y1="640.1406" y2="640.1406"/><polygon fill="#A80036" points="941.5,636.1406,931.5,640.1406,941.5,644.1406,937.5,640.1406" style="stroke:#A80036;stroke-width:1.0;"/><text fill="#000000" font-family="sans-serif" font-size="13" font-weight="bold" lengthAdjust="spacingAndGlyphs" textLength="14" x="943.5" y="622.2842">14</text><text fill="#000000" font-family="sans-serif" font-size="13" lengthAdjust="spacingAndGlyphs" textLength="133" x="961.5" y="622.2842">addAreaAtividade(area)</text><polygon fill="#A80036" points="63,661.4922,53,665.4922,63,669.4922,59,665.4922" style="stroke:#A80036;stroke-width:1.0;"/><line style="stroke:#A80036;stroke-width:1.0;stroke-dasharray:2.0,2.0;" x1="57" x2="322" y1="665.4922" y2="665.4922"/><text fill="#000000" font-family="sans-serif" font-size="13" font-weight="bold" lengthAdjust="spacingAndGlyphs" textLength="14" x="69" y="660.6357">15</text><text fill="#000000" font-family="sans-serif" font-size="13" lengthAdjust="spacingAndGlyphs" textLength="138" x="87" y="660.6357">operação bem sucedida</text><!--MD5=[dd30a3c2a44cccb6f8da31b1c76f298f]
@startuml
autonumber
actor "Administrativo" as ADM

participant ":DefinirAreaUI" as UI
participant ":DefinirAreaController" as CTRL
participant ":Plataforma" as PLAT
participant "rat: Registo\nAreasAtividade" as REG_AT
participant "area:AreaAtividade" as AREA

activate ADM
ADM -> UI : nova área de atividade
activate UI
UI - -> ADM : solicita dados \n(código, descrição breve e detalhada)
deactivate UI

ADM -> UI : introduz os dados solicitados
activate UI
UI -> CTRL : novaAreaAtividade(cod, dsBreve, dsDet)
activate CTRL
CTRL -> PLAT: rat = getRegistoAreasAtividade()
activate PLAT
deactivate PLAT
CTRL -> REG_AT: area=novaAreaAtividade(cod, dsBreve, dsDet)
activate REG_AT
REG_AT - -> AREA ** : create(cod, dsBreve,dsDet)
deactivate REG_AT

CTRL -> REG_AT: validaAreaAtividade(area)
activate REG_AT
deactivate REG_AT

deactivate CTRL
UI - -> ADM : apresenta dados e solicita confirmação
deactivate UI

ADM -> UI : confirma
activate UI

UI -> CTRL: registaAreaAtividade()
activate CTRL
CTRL ->REG_AT: registaAreaAtivadade(area)
activate REG_AT
REG_AT -> REG_AT: validaAreaAtividade(area)
REG_AT -> REG_AT: addAreaAtividade(area)

deactivate REG_AT
deactivate CTRL

UI - -> ADM : operação bem sucedida
deactivate UI

deactivate ADM
@enduml

PlantUML version 1.2020.22(Sun Dec 06 09:36:27 WET 2020)
(GPL source distribution)
Java Runtime: Java(TM) SE Runtime Environment
JVM: Java HotSpot(TM) 64-Bit Server VM
Default Encoding: Cp1252
Language: pt
Country: PT
--></g></svg>