<?xml version="1.0" encoding="UTF-8" standalone="no"?><svg xmlns="http://www.w3.org/2000/svg" xmlns:xlink="http://www.w3.org/1999/xlink" contentScriptType="application/ecmascript" contentStyleType="text/css" height="393px" preserveAspectRatio="none" style="width:369px;height:393px;" version="1.1" viewBox="0 0 369 393" width="369px" zoomAndPan="magnify"><defs><filter height="300%" id="f162qritjtrmcl" width="300%" x="-1" y="-1"><feGaussianBlur result="blurOut" stdDeviation="2.0"/><feColorMatrix in="blurOut" result="blurOut2" type="matrix" values="0 0 0 0 0 0 0 0 0 0 0 0 0 0 0 0 0 0 .4 0"/><feOffset dx="4.0" dy="4.0" in="blurOut2" result="blurOut3"/><feBlend in="SourceGraphic" in2="blurOut3" mode="normal"/></filter></defs><g><rect fill="#FFFFFF" filter="url(#f162qritjtrmcl)" height="190.4609" style="stroke:#A80036;stroke-width:1.0;" width="10" x="47" y="99.6094"/><rect fill="#FFFFFF" filter="url(#f162qritjtrmcl)" height="46.7031" style="stroke:#A80036;stroke-width:1.0;" width="10" x="318" y="121.9609"/><rect fill="#FFFFFF" filter="url(#f162qritjtrmcl)" height="30.3516" style="stroke:#A80036;stroke-width:1.0;" width="10" x="318" y="199.0156"/><rect fill="#FFFFFF" filter="url(#f162qritjtrmcl)" height="30.3516" style="stroke:#A80036;stroke-width:1.0;" width="10" x="318" y="259.7188"/><line style="stroke:#A80036;stroke-width:1.0;stroke-dasharray:5.0,5.0;" x1="52" x2="52" y1="89.6094" y2="308.0703"/><line style="stroke:#A80036;stroke-width:1.0;stroke-dasharray:5.0,5.0;" x1="323" x2="323" y1="89.6094" y2="308.0703"/><text fill="#000000" font-family="sans-serif" font-size="14" lengthAdjust="spacingAndGlyphs" textLength="88" x="5" y="86.5332">Administrativo</text><ellipse cx="52" cy="15" fill="#FEFECE" filter="url(#f162qritjtrmcl)" rx="8" ry="8" style="stroke:#A80036;stroke-width:2.0;"/><path d="M52,23 L52,50 M39,31 L65,31 M52,50 L39,65 M52,50 L65,65 " fill="none" filter="url(#f162qritjtrmcl)" style="stroke:#A80036;stroke-width:2.0;"/><text fill="#000000" font-family="sans-serif" font-size="14" lengthAdjust="spacingAndGlyphs" textLength="88" x="5" y="321.6035">Administrativo</text><ellipse cx="52" cy="334.6797" fill="#FEFECE" filter="url(#f162qritjtrmcl)" rx="8" ry="8" style="stroke:#A80036;stroke-width:2.0;"/><path d="M52,342.6797 L52,369.6797 M39,350.6797 L65,350.6797 M52,369.6797 L39,384.6797 M52,369.6797 L65,384.6797 " fill="none" filter="url(#f162qritjtrmcl)" style="stroke:#A80036;stroke-width:2.0;"/><rect fill="#FEFECE" filter="url(#f162qritjtrmcl)" height="31.6094" style="stroke:#A80036;stroke-width:1.5;" width="68" x="287" y="53"/><text fill="#000000" font-family="sans-serif" font-size="14" lengthAdjust="spacingAndGlyphs" textLength="54" x="294" y="74.5332">:Sistema</text><rect fill="#FEFECE" filter="url(#f162qritjtrmcl)" height="31.6094" style="stroke:#A80036;stroke-width:1.5;" width="68" x="287" y="307.0703"/><text fill="#000000" font-family="sans-serif" font-size="14" lengthAdjust="spacingAndGlyphs" textLength="54" x="294" y="328.6035">:Sistema</text><rect fill="#FFFFFF" filter="url(#f162qritjtrmcl)" height="190.4609" style="stroke:#A80036;stroke-width:1.0;" width="10" x="47" y="99.6094"/><rect fill="#FFFFFF" filter="url(#f162qritjtrmcl)" height="46.7031" style="stroke:#A80036;stroke-width:1.0;" width="10" x="318" y="121.9609"/><rect fill="#FFFFFF" filter="url(#f162qritjtrmcl)" height="30.3516" style="stroke:#A80036;stroke-width:1.0;" width="10" x="318" y="199.0156"/><rect fill="#FFFFFF" filter="url(#f162qritjtrmcl)" height="30.3516" style="stroke:#A80036;stroke-width:1.0;" width="10" x="318" y="259.7188"/><polygon fill="#A80036" points="306,117.9609,316,121.9609,306,125.9609,310,121.9609" style="stroke:#A80036;stroke-width:1.0;"/><line style="stroke:#A80036;stroke-width:1.0;" x1="57" x2="312" y1="121.9609" y2="121.9609"/><text fill="#000000" font-family="sans-serif" font-size="13" font-weight="bold" lengthAdjust="spacingAndGlyphs" textLength="7" x="64" y="117.1045">1</text><text fill="#000000" font-family="sans-serif" font-size="13" lengthAdjust="spacingAndGlyphs" textLength="127" x="75" y="117.1045">nova área de atividade</text><polygon fill="#A80036" points="68,164.6641,58,168.6641,68,172.6641,64,168.6641" style="stroke:#A80036;stroke-width:1.0;"/><line style="stroke:#A80036;stroke-width:1.0;stroke-dasharray:2.0,2.0;" x1="62" x2="322" y1="168.6641" y2="168.6641"/><text fill="#000000" font-family="sans-serif" font-size="13" font-weight="bold" lengthAdjust="spacingAndGlyphs" textLength="7" x="74" y="155.6318">2</text><text fill="#000000" font-family="sans-serif" font-size="13" lengthAdjust="spacingAndGlyphs" textLength="80" x="85" y="147.4561">solicita dados</text><text fill="#000000" font-family="sans-serif" font-size="13" lengthAdjust="spacingAndGlyphs" textLength="215" x="85" y="163.8076">(código, descrição breve e detalhada)</text><polygon fill="#A80036" points="306,195.0156,316,199.0156,306,203.0156,310,199.0156" style="stroke:#A80036;stroke-width:1.0;"/><line style="stroke:#A80036;stroke-width:1.0;" x1="57" x2="312" y1="199.0156" y2="199.0156"/><text fill="#000000" font-family="sans-serif" font-size="13" font-weight="bold" lengthAdjust="spacingAndGlyphs" textLength="7" x="64" y="194.1592">3</text><text fill="#000000" font-family="sans-serif" font-size="13" lengthAdjust="spacingAndGlyphs" textLength="169" x="75" y="194.1592">introduz os dados solicitados</text><polygon fill="#A80036" points="68,225.3672,58,229.3672,68,233.3672,64,229.3672" style="stroke:#A80036;stroke-width:1.0;"/><line style="stroke:#A80036;stroke-width:1.0;stroke-dasharray:2.0,2.0;" x1="62" x2="322" y1="229.3672" y2="229.3672"/><text fill="#000000" font-family="sans-serif" font-size="13" font-weight="bold" lengthAdjust="spacingAndGlyphs" textLength="7" x="74" y="224.5107">4</text><text fill="#000000" font-family="sans-serif" font-size="13" lengthAdjust="spacingAndGlyphs" textLength="226" x="85" y="224.5107">apresenta dados e solicita confirmação</text><polygon fill="#A80036" points="306,255.7188,316,259.7188,306,263.7188,310,259.7188" style="stroke:#A80036;stroke-width:1.0;"/><line style="stroke:#A80036;stroke-width:1.0;" x1="57" x2="312" y1="259.7188" y2="259.7188"/><text fill="#000000" font-family="sans-serif" font-size="13" font-weight="bold" lengthAdjust="spacingAndGlyphs" textLength="7" x="64" y="254.8623">5</text><text fill="#000000" font-family="sans-serif" font-size="13" lengthAdjust="spacingAndGlyphs" textLength="49" x="75" y="254.8623">confirma</text><polygon fill="#A80036" points="63,286.0703,53,290.0703,63,294.0703,59,290.0703" style="stroke:#A80036;stroke-width:1.0;"/><line style="stroke:#A80036;stroke-width:1.0;stroke-dasharray:2.0,2.0;" x1="57" x2="322" y1="290.0703" y2="290.0703"/><text fill="#000000" font-family="sans-serif" font-size="13" font-weight="bold" lengthAdjust="spacingAndGlyphs" textLength="7" x="69" y="285.2139">6</text><text fill="#000000" font-family="sans-serif" font-size="13" lengthAdjust="spacingAndGlyphs" textLength="138" x="80" y="285.2139">operação bem sucedida</text><!--MD5=[8d05075a9bb46c78ab3a04605e620206]
@startuml
autonumber
actor "Administrativo" as ADM

activate ADM
ADM -> ":Sistema" : nova área de atividade
activate ":Sistema"
":Sistema" - -> ADM : solicita dados \n(código, descrição breve e detalhada)
deactivate ":Sistema"

ADM -> ":Sistema" : introduz os dados solicitados
activate ":Sistema"
":Sistema" - -> ADM : apresenta dados e solicita confirmação
deactivate ":Sistema"

ADM -> ":Sistema" : confirma
activate ":Sistema"
":Sistema" - -> ADM : operação bem sucedida
deactivate ":Sistema"

deactivate ADM

@enduml

PlantUML version 1.2020.22(Sun Dec 06 09:36:27 WET 2020)
(GPL source distribution)
Java Runtime: Java(TM) SE Runtime Environment
JVM: Java HotSpot(TM) 64-Bit Server VM
Default Encoding: Cp1252
Language: pt
Country: PT
--></g></svg>