<?xml version="1.0" encoding="UTF-8" standalone="no"?><svg xmlns="http://www.w3.org/2000/svg" xmlns:xlink="http://www.w3.org/1999/xlink" contentScriptType="application/ecmascript" contentStyleType="text/css" height="705px" preserveAspectRatio="none" style="width:526px;height:705px;" version="1.1" viewBox="0 0 526 705" width="526px" zoomAndPan="magnify"><defs><filter height="300%" id="f8ym0e3qvyqmu" width="300%" x="-1" y="-1"><feGaussianBlur result="blurOut" stdDeviation="2.0"/><feColorMatrix in="blurOut" result="blurOut2" type="matrix" values="0 0 0 0 0 0 0 0 0 0 0 0 0 0 0 0 0 0 .4 0"/><feOffset dx="4.0" dy="4.0" in="blurOut2" result="blurOut3"/><feBlend in="SourceGraphic" in2="blurOut3" mode="normal"/></filter></defs><g><!--MD5=[02456e6632d968d6f68141e5893c6991]
class AreaAtividade--><rect codeLine="2" fill="#FEFECE" filter="url(#f8ym0e3qvyqmu)" height="103.3438" id="AreaAtividade" style="stroke:#A80036;stroke-width:1.5;" width="287" x="7" y="588"/><ellipse cx="109.25" cy="604" fill="#ADD1B2" rx="11" ry="11" style="stroke:#A80036;stroke-width:1.0;"/><path d="M112.0156,599.875 Q112.1719,599.6563 112.3594,599.5469 Q112.5469,599.4375 112.7656,599.4375 Q113.1406,599.4375 113.375,599.7031 Q113.6094,599.9531 113.6094,600.5625 L113.6094,602.0156 Q113.6094,602.625 113.375,602.8906 Q113.1406,603.1563 112.7656,603.1563 Q112.4219,603.1563 112.2188,602.9531 Q112.0156,602.7656 111.9063,602.25 Q111.8594,601.8906 111.6719,601.7031 Q111.3438,601.3281 110.7344,601.1094 Q110.125,600.8906 109.5,600.8906 Q108.7344,600.8906 108.0938,601.2188 Q107.4688,601.5469 106.9688,602.2969 Q106.4844,603.0469 106.4844,604.0781 L106.4844,605.1719 Q106.4844,606.4063 107.375,607.2344 Q108.2656,608.0469 109.8594,608.0469 Q110.7969,608.0469 111.4531,607.7969 Q111.8438,607.6406 112.2656,607.2031 Q112.5313,606.9375 112.6719,606.8594 Q112.8281,606.7813 113.0313,606.7813 Q113.3594,606.7813 113.6094,607.0469 Q113.875,607.2969 113.875,607.6406 Q113.875,607.9844 113.5313,608.3906 Q113.0313,608.9688 112.2344,609.2969 Q111.1563,609.75 109.8594,609.75 Q108.3438,609.75 107.1406,609.125 Q106.1563,608.625 105.4688,607.5625 Q104.7813,606.4844 104.7813,605.2031 L104.7813,604.0469 Q104.7813,602.7188 105.3906,601.5781 Q106.0156,600.4219 107.1094,599.8125 Q108.2031,599.1875 109.4375,599.1875 Q110.1719,599.1875 110.8125,599.3594 Q111.4688,599.5156 112.0156,599.875 Z " fill="#000000"/><text fill="#000000" font-family="sans-serif" font-size="12" lengthAdjust="spacingAndGlyphs" textLength="74" x="129.75" y="608.9102">AreaAtividade</text><line style="stroke:#A80036;stroke-width:1.5;" x1="8" x2="293" y1="620" y2="620"/><text fill="#000000" font-family="sans-serif" font-size="11" lengthAdjust="spacingAndGlyphs" textLength="67" x="13" y="635.4189">-String codigo</text><text fill="#000000" font-family="sans-serif" font-size="11" lengthAdjust="spacingAndGlyphs" textLength="88" x="13" y="649.2549">-String descBreve</text><text fill="#000000" font-family="sans-serif" font-size="11" lengthAdjust="spacingAndGlyphs" textLength="107" x="13" y="663.0908">-String descDetalhada</text><line style="stroke:#A80036;stroke-width:1.5;" x1="8" x2="293" y1="669.5078" y2="669.5078"/><text fill="#000000" font-family="sans-serif" font-size="11" lengthAdjust="spacingAndGlyphs" textLength="275" x="13" y="684.9268">+AreaAtividade(String cod, String dsBreve, String dsDet)</text><!--MD5=[ecaed46f78f8cfe1e9ce18477649be18]
class Plataforma--><rect codeLine="9" fill="#FEFECE" filter="url(#f8ym0e3qvyqmu)" height="75.6719" id="Plataforma" style="stroke:#A80036;stroke-width:1.5;" width="266" x="128.5" y="253"/><ellipse cx="227.25" cy="269" fill="#ADD1B2" rx="11" ry="11" style="stroke:#A80036;stroke-width:1.0;"/><path d="M230.0156,264.875 Q230.1719,264.6563 230.3594,264.5469 Q230.5469,264.4375 230.7656,264.4375 Q231.1406,264.4375 231.375,264.7031 Q231.6094,264.9531 231.6094,265.5625 L231.6094,267.0156 Q231.6094,267.625 231.375,267.8906 Q231.1406,268.1563 230.7656,268.1563 Q230.4219,268.1563 230.2188,267.9531 Q230.0156,267.7656 229.9063,267.25 Q229.8594,266.8906 229.6719,266.7031 Q229.3438,266.3281 228.7344,266.1094 Q228.125,265.8906 227.5,265.8906 Q226.7344,265.8906 226.0938,266.2188 Q225.4688,266.5469 224.9688,267.2969 Q224.4844,268.0469 224.4844,269.0781 L224.4844,270.1719 Q224.4844,271.4063 225.375,272.2344 Q226.2656,273.0469 227.8594,273.0469 Q228.7969,273.0469 229.4531,272.7969 Q229.8438,272.6406 230.2656,272.2031 Q230.5313,271.9375 230.6719,271.8594 Q230.8281,271.7813 231.0313,271.7813 Q231.3594,271.7813 231.6094,272.0469 Q231.875,272.2969 231.875,272.6406 Q231.875,272.9844 231.5313,273.3906 Q231.0313,273.9688 230.2344,274.2969 Q229.1563,274.75 227.8594,274.75 Q226.3438,274.75 225.1406,274.125 Q224.1563,273.625 223.4688,272.5625 Q222.7813,271.4844 222.7813,270.2031 L222.7813,269.0469 Q222.7813,267.7188 223.3906,266.5781 Q224.0156,265.4219 225.1094,264.8125 Q226.2031,264.1875 227.4375,264.1875 Q228.1719,264.1875 228.8125,264.3594 Q229.4688,264.5156 230.0156,264.875 Z " fill="#000000"/><text fill="#000000" font-family="sans-serif" font-size="12" lengthAdjust="spacingAndGlyphs" textLength="60" x="247.75" y="273.9102">Plataforma</text><line style="stroke:#A80036;stroke-width:1.5;" x1="129.5" x2="393.5" y1="285" y2="285"/><text fill="#000000" font-family="sans-serif" font-size="11" lengthAdjust="spacingAndGlyphs" textLength="91" x="134.5" y="300.4189">-String designacao</text><line style="stroke:#A80036;stroke-width:1.5;" x1="129.5" x2="393.5" y1="306.8359" y2="306.8359"/><text fill="#000000" font-family="sans-serif" font-size="11" lengthAdjust="spacingAndGlyphs" textLength="254" x="134.5" y="322.2549">+RegistoAreasAtividade getRegistoAreasAtividade()</text><!--MD5=[13ace1d44b5c68581d5429ed2c7901cf]
class RegistoAreasAtividade--><rect codeLine="15" fill="#FEFECE" filter="url(#f8ym0e3qvyqmu)" height="103.3438" id="RegistoAreasAtividade" style="stroke:#A80036;stroke-width:1.5;" width="383" x="129" y="407"/><ellipse cx="254.25" cy="423" fill="#ADD1B2" rx="11" ry="11" style="stroke:#A80036;stroke-width:1.0;"/><path d="M257.0156,418.875 Q257.1719,418.6563 257.3594,418.5469 Q257.5469,418.4375 257.7656,418.4375 Q258.1406,418.4375 258.375,418.7031 Q258.6094,418.9531 258.6094,419.5625 L258.6094,421.0156 Q258.6094,421.625 258.375,421.8906 Q258.1406,422.1563 257.7656,422.1563 Q257.4219,422.1563 257.2188,421.9531 Q257.0156,421.7656 256.9063,421.25 Q256.8594,420.8906 256.6719,420.7031 Q256.3438,420.3281 255.7344,420.1094 Q255.125,419.8906 254.5,419.8906 Q253.7344,419.8906 253.0938,420.2188 Q252.4688,420.5469 251.9688,421.2969 Q251.4844,422.0469 251.4844,423.0781 L251.4844,424.1719 Q251.4844,425.4063 252.375,426.2344 Q253.2656,427.0469 254.8594,427.0469 Q255.7969,427.0469 256.4531,426.7969 Q256.8438,426.6406 257.2656,426.2031 Q257.5313,425.9375 257.6719,425.8594 Q257.8281,425.7813 258.0313,425.7813 Q258.3594,425.7813 258.6094,426.0469 Q258.875,426.2969 258.875,426.6406 Q258.875,426.9844 258.5313,427.3906 Q258.0313,427.9688 257.2344,428.2969 Q256.1563,428.75 254.8594,428.75 Q253.3438,428.75 252.1406,428.125 Q251.1563,427.625 250.4688,426.5625 Q249.7813,425.4844 249.7813,424.2031 L249.7813,423.0469 Q249.7813,421.7188 250.3906,420.5781 Q251.0156,419.4219 252.1094,418.8125 Q253.2031,418.1875 254.4375,418.1875 Q255.1719,418.1875 255.8125,418.3594 Q256.4688,418.5156 257.0156,418.875 Z " fill="#000000"/><text fill="#000000" font-family="sans-serif" font-size="12" lengthAdjust="spacingAndGlyphs" textLength="124" x="274.75" y="427.9102">RegistoAreasAtividade</text><line style="stroke:#A80036;stroke-width:1.5;" x1="130" x2="511" y1="439" y2="439"/><line style="stroke:#A80036;stroke-width:1.5;" x1="130" x2="511" y1="447" y2="447"/><text fill="#000000" font-family="sans-serif" font-size="11" lengthAdjust="spacingAndGlyphs" textLength="371" x="135" y="462.4189">+AreaAtividade novaAreaAtividade(String cod, String dsBreve, String dsDet)</text><text fill="#000000" font-family="sans-serif" font-size="11" lengthAdjust="spacingAndGlyphs" textLength="205" x="135" y="476.2549">+validaAreaAtividade(AreaAtividade area)</text><text fill="#000000" font-family="sans-serif" font-size="11" lengthAdjust="spacingAndGlyphs" textLength="210" x="135" y="490.0908">+registaAreaAtividade(AreaAtividade area)</text><text fill="#000000" font-family="sans-serif" font-size="11" lengthAdjust="spacingAndGlyphs" textLength="193" x="135" y="503.9268">-addAreaAtividade(AreaAtividade area)</text><!--MD5=[52e4e871a42a73946b148d098b3e0767]
class DefinirAreaController--><rect codeLine="22" fill="#FEFECE" filter="url(#f8ym0e3qvyqmu)" height="75.6719" id="DefinirAreaController" style="stroke:#A80036;stroke-width:1.5;" width="311" x="106" y="116"/><ellipse cx="199.75" cy="132" fill="#ADD1B2" rx="11" ry="11" style="stroke:#A80036;stroke-width:1.0;"/><path d="M202.5156,127.875 Q202.6719,127.6563 202.8594,127.5469 Q203.0469,127.4375 203.2656,127.4375 Q203.6406,127.4375 203.875,127.7031 Q204.1094,127.9531 204.1094,128.5625 L204.1094,130.0156 Q204.1094,130.625 203.875,130.8906 Q203.6406,131.1563 203.2656,131.1563 Q202.9219,131.1563 202.7188,130.9531 Q202.5156,130.7656 202.4063,130.25 Q202.3594,129.8906 202.1719,129.7031 Q201.8438,129.3281 201.2344,129.1094 Q200.625,128.8906 200,128.8906 Q199.2344,128.8906 198.5938,129.2188 Q197.9688,129.5469 197.4688,130.2969 Q196.9844,131.0469 196.9844,132.0781 L196.9844,133.1719 Q196.9844,134.4063 197.875,135.2344 Q198.7656,136.0469 200.3594,136.0469 Q201.2969,136.0469 201.9531,135.7969 Q202.3438,135.6406 202.7656,135.2031 Q203.0313,134.9375 203.1719,134.8594 Q203.3281,134.7813 203.5313,134.7813 Q203.8594,134.7813 204.1094,135.0469 Q204.375,135.2969 204.375,135.6406 Q204.375,135.9844 204.0313,136.3906 Q203.5313,136.9688 202.7344,137.2969 Q201.6563,137.75 200.3594,137.75 Q198.8438,137.75 197.6406,137.125 Q196.6563,136.625 195.9688,135.5625 Q195.2813,134.4844 195.2813,133.2031 L195.2813,132.0469 Q195.2813,130.7188 195.8906,129.5781 Q196.5156,128.4219 197.6094,127.8125 Q198.7031,127.1875 199.9375,127.1875 Q200.6719,127.1875 201.3125,127.3594 Q201.9688,127.5156 202.5156,127.875 Z " fill="#000000"/><text fill="#000000" font-family="sans-serif" font-size="12" lengthAdjust="spacingAndGlyphs" textLength="115" x="220.25" y="136.9102">DefinirAreaController</text><line style="stroke:#A80036;stroke-width:1.5;" x1="107" x2="416" y1="148" y2="148"/><line style="stroke:#A80036;stroke-width:1.5;" x1="107" x2="416" y1="156" y2="156"/><text fill="#000000" font-family="sans-serif" font-size="11" lengthAdjust="spacingAndGlyphs" textLength="299" x="112" y="171.4189">+novaAreaAtividade(String cod, String dsBreve, String dsDet)</text><text fill="#000000" font-family="sans-serif" font-size="11" lengthAdjust="spacingAndGlyphs" textLength="116" x="112" y="185.2549">+registaAreaAtividade()</text><!--MD5=[a73238f1d13e652ec4ebc941dc1ac63d]
class DefinirAreaUI--><rect codeLine="27" fill="#FEFECE" filter="url(#f8ym0e3qvyqmu)" height="48" id="DefinirAreaUI" style="stroke:#A80036;stroke-width:1.5;" width="105" x="209" y="7"/><ellipse cx="224" cy="23" fill="#ADD1B2" rx="11" ry="11" style="stroke:#A80036;stroke-width:1.0;"/><path d="M226.7656,18.875 Q226.9219,18.6563 227.1094,18.5469 Q227.2969,18.4375 227.5156,18.4375 Q227.8906,18.4375 228.125,18.7031 Q228.3594,18.9531 228.3594,19.5625 L228.3594,21.0156 Q228.3594,21.625 228.125,21.8906 Q227.8906,22.1563 227.5156,22.1563 Q227.1719,22.1563 226.9688,21.9531 Q226.7656,21.7656 226.6563,21.25 Q226.6094,20.8906 226.4219,20.7031 Q226.0938,20.3281 225.4844,20.1094 Q224.875,19.8906 224.25,19.8906 Q223.4844,19.8906 222.8438,20.2188 Q222.2188,20.5469 221.7188,21.2969 Q221.2344,22.0469 221.2344,23.0781 L221.2344,24.1719 Q221.2344,25.4063 222.125,26.2344 Q223.0156,27.0469 224.6094,27.0469 Q225.5469,27.0469 226.2031,26.7969 Q226.5938,26.6406 227.0156,26.2031 Q227.2813,25.9375 227.4219,25.8594 Q227.5781,25.7813 227.7813,25.7813 Q228.1094,25.7813 228.3594,26.0469 Q228.625,26.2969 228.625,26.6406 Q228.625,26.9844 228.2813,27.3906 Q227.7813,27.9688 226.9844,28.2969 Q225.9063,28.75 224.6094,28.75 Q223.0938,28.75 221.8906,28.125 Q220.9063,27.625 220.2188,26.5625 Q219.5313,25.4844 219.5313,24.2031 L219.5313,23.0469 Q219.5313,21.7188 220.1406,20.5781 Q220.7656,19.4219 221.8594,18.8125 Q222.9531,18.1875 224.1875,18.1875 Q224.9219,18.1875 225.5625,18.3594 Q226.2188,18.5156 226.7656,18.875 Z " fill="#000000"/><text fill="#000000" font-family="sans-serif" font-size="12" lengthAdjust="spacingAndGlyphs" textLength="73" x="238" y="27.9102">DefinirAreaUI</text><line style="stroke:#A80036;stroke-width:1.5;" x1="210" x2="313" y1="39" y2="39"/><line style="stroke:#A80036;stroke-width:1.5;" x1="210" x2="313" y1="47" y2="47"/><!--MD5=[6b612a1e5e59cc8b145cfd6c9f06b931]
link DefinirAreaUI to DefinirAreaController--><path codeLine="31" d="M261.5,55.044 C261.5,70.713 261.5,91.908 261.5,110.575 " fill="none" id="DefinirAreaUI-to-DefinirAreaController" style="stroke:#A80036;stroke-width:1.0;stroke-dasharray:7.0,7.0;"/><polygon fill="#A80036" points="261.5,115.767,265.5,106.767,261.5,110.767,257.5,106.767,261.5,115.767" style="stroke:#A80036;stroke-width:1.0;"/><!--MD5=[d44f1c5ec820c81f12ff3f79e1965be9]
link DefinirAreaController to Plataforma--><path codeLine="32" d="M261.5,192.247 C261.5,209.363 261.5,229.752 261.5,247.469 " fill="none" id="DefinirAreaController-to-Plataforma" style="stroke:#A80036;stroke-width:1.0;stroke-dasharray:7.0,7.0;"/><polygon fill="#A80036" points="261.5,252.875,265.5,243.875,261.5,247.875,257.5,243.875,261.5,252.875" style="stroke:#A80036;stroke-width:1.0;"/><!--MD5=[a85cf8503d1f9c8c824a34920c5a5086]
link DefinirAreaController to RegistoAreasAtividade--><path codeLine="33" d="M349.53,192.051 C374.396,207.115 398.479,227.185 412.5,253 C439.321,302.381 406.647,361.09 373.044,402.909 " fill="none" id="DefinirAreaController-to-RegistoAreasAtividade" style="stroke:#A80036;stroke-width:1.0;stroke-dasharray:7.0,7.0;"/><polygon fill="#A80036" points="369.791,406.902,378.5766,402.4508,372.949,403.0255,372.3743,397.398,369.791,406.902" style="stroke:#A80036;stroke-width:1.0;"/><!--MD5=[8cc80a894aa07068b56dc5450933edc8]
link DefinirAreaController to AreaAtividade--><path codeLine="34" d="M173.47,192.051 C148.604,207.115 124.521,227.185 110.5,253 C53.2285,358.445 95.161,504.055 125.875,582.7 " fill="none" id="DefinirAreaController-to-AreaAtividade" style="stroke:#A80036;stroke-width:1.0;stroke-dasharray:7.0,7.0;"/><polygon fill="#A80036" points="127.881,587.782,128.2968,577.9419,126.045,583.1313,120.8556,580.8795,127.881,587.782" style="stroke:#A80036;stroke-width:1.0;"/><!--MD5=[727f7e9b0d39f0a1e7c7e190346316ff]
link Plataforma to RegistoAreasAtividade--><path codeLine="36" d="M274.741,329.141 C282.417,350.674 292.229,378.198 300.797,402.233 " fill="none" id="Plataforma-to-RegistoAreasAtividade" style="stroke:#A80036;stroke-width:1.0;"/><polygon fill="#A80036" points="302.493,406.99,303.2395,397.1695,300.8145,402.2802,295.7038,399.8551,302.493,406.99" style="stroke:#A80036;stroke-width:1.0;"/><text fill="#000000" font-family="sans-serif" font-size="13" lengthAdjust="spacingAndGlyphs" textLength="22" x="292.5" y="373.4951">tem</text><text fill="#000000" font-family="sans-serif" font-size="13" lengthAdjust="spacingAndGlyphs" textLength="7" x="269.2935" y="350.044">1</text><text fill="#000000" font-family="sans-serif" font-size="13" lengthAdjust="spacingAndGlyphs" textLength="7" x="292.4686" y="396.1171">1</text><!--MD5=[f832e5114c0a2f3b6fd1ddd795993084]
link RegistoAreasAtividade to AreaAtividade--><path codeLine="37" d="M272.24,510.315 C250.343,533.372 224.418,560.669 202.131,584.135 " fill="none" id="RegistoAreasAtividade-to-AreaAtividade" style="stroke:#A80036;stroke-width:1.0;"/><polygon fill="#A80036" points="198.587,587.868,207.6849,584.0959,202.0299,584.2422,201.8836,578.5873,198.587,587.868" style="stroke:#A80036;stroke-width:1.0;"/><text fill="#000000" font-family="sans-serif" font-size="13" lengthAdjust="spacingAndGlyphs" textLength="38" x="242.5" y="554.4951">possui</text><text fill="#000000" font-family="sans-serif" font-size="13" lengthAdjust="spacingAndGlyphs" textLength="7" x="258.2848" y="531.8483">1</text><text fill="#000000" font-family="sans-serif" font-size="13" lengthAdjust="spacingAndGlyphs" textLength="5" x="199.9977" y="576.9779">*</text><!--MD5=[f4339ff9f8cc55a3891eb3eaf81ba8b1]
@startuml
skinparam classAttributeIconSize 0
class AreaAtividade {
  -String codigo
  -String descBreve
  -String descDetalhada
  +AreaAtividade(String cod, String dsBreve, String dsDet)
}

class Plataforma {
  -String designacao
  
  +RegistoAreasAtividade getRegistoAreasAtividade()
}

class RegistoAreasAtividade {
  +AreaAtividade novaAreaAtividade(String cod, String dsBreve, String dsDet)
  +validaAreaAtividade(AreaAtividade area)
  +registaAreaAtividade(AreaAtividade area)
  -addAreaAtividade(AreaAtividade area)
}

class DefinirAreaController {
  +novaAreaAtividade(String cod, String dsBreve, String dsDet)
  +registaAreaAtividade()
}

class DefinirAreaUI {
  
}

DefinirAreaUI ..> DefinirAreaController
DefinirAreaController ..> Plataforma
DefinirAreaController ..> RegistoAreasAtividade
DefinirAreaController ..> AreaAtividade

Plataforma "1" - -> "1" RegistoAreasAtividade : tem
RegistoAreasAtividade "1" - -> "*" AreaAtividade : possui


@enduml

PlantUML version 1.2020.22(Sun Dec 06 09:36:27 WET 2020)
(GPL source distribution)
Java Runtime: Java(TM) SE Runtime Environment
JVM: Java HotSpot(TM) 64-Bit Server VM
Default Encoding: Cp1252
Language: pt
Country: PT
--></g></svg>