<?xml version="1.0" encoding="UTF-8" standalone="no"?><svg xmlns="http://www.w3.org/2000/svg" xmlns:xlink="http://www.w3.org/1999/xlink" contentScriptType="application/ecmascript" contentStyleType="text/css" height="827px" preserveAspectRatio="none" style="width:1118px;height:827px;" version="1.1" viewBox="0 0 1118 827" width="1118px" zoomAndPan="magnify"><defs><filter height="300%" id="f1btgyhd7vy78y" width="300%" x="-1" y="-1"><feGaussianBlur result="blurOut" stdDeviation="2.0"/><feColorMatrix in="blurOut" result="blurOut2" type="matrix" values="0 0 0 0 0 0 0 0 0 0 0 0 0 0 0 0 0 0 .4 0"/><feOffset dx="4.0" dy="4.0" in="blurOut2" result="blurOut3"/><feBlend in="SourceGraphic" in2="blurOut3" mode="normal"/></filter></defs><g><!--MD5=[fdd143688dd4c22e6f2ee475119423ce]
class EspecificarColaboradorUI--><rect codeLine="3" fill="#FEFECE" filter="url(#f1btgyhd7vy78y)" height="48" id="EspecificarColaboradorUI" style="stroke:#A80036;stroke-width:1.5;" width="174" x="539.5" y="7"/><ellipse cx="554.5" cy="23" fill="#ADD1B2" rx="11" ry="11" style="stroke:#A80036;stroke-width:1.0;"/><path d="M557.2656,18.875 Q557.4219,18.6563 557.6094,18.5469 Q557.7969,18.4375 558.0156,18.4375 Q558.3906,18.4375 558.625,18.7031 Q558.8594,18.9531 558.8594,19.5625 L558.8594,21.0156 Q558.8594,21.625 558.625,21.8906 Q558.3906,22.1563 558.0156,22.1563 Q557.6719,22.1563 557.4688,21.9531 Q557.2656,21.7656 557.1563,21.25 Q557.1094,20.8906 556.9219,20.7031 Q556.5938,20.3281 555.9844,20.1094 Q555.375,19.8906 554.75,19.8906 Q553.9844,19.8906 553.3438,20.2188 Q552.7188,20.5469 552.2188,21.2969 Q551.7344,22.0469 551.7344,23.0781 L551.7344,24.1719 Q551.7344,25.4063 552.625,26.2344 Q553.5156,27.0469 555.1094,27.0469 Q556.0469,27.0469 556.7031,26.7969 Q557.0938,26.6406 557.5156,26.2031 Q557.7813,25.9375 557.9219,25.8594 Q558.0781,25.7813 558.2813,25.7813 Q558.6094,25.7813 558.8594,26.0469 Q559.125,26.2969 559.125,26.6406 Q559.125,26.9844 558.7813,27.3906 Q558.2813,27.9688 557.4844,28.2969 Q556.4063,28.75 555.1094,28.75 Q553.5938,28.75 552.3906,28.125 Q551.4063,27.625 550.7188,26.5625 Q550.0313,25.4844 550.0313,24.2031 L550.0313,23.0469 Q550.0313,21.7188 550.6406,20.5781 Q551.2656,19.4219 552.3594,18.8125 Q553.4531,18.1875 554.6875,18.1875 Q555.4219,18.1875 556.0625,18.3594 Q556.7188,18.5156 557.2656,18.875 Z " fill="#000000"/><text fill="#000000" font-family="sans-serif" font-size="12" lengthAdjust="spacing" textLength="142" x="568.5" y="27.9102">EspecificarColaboradorUI</text><line style="stroke:#A80036;stroke-width:1.5;" x1="540.5" x2="712.5" y1="39" y2="39"/><line style="stroke:#A80036;stroke-width:1.5;" x1="540.5" x2="712.5" y1="47" y2="47"/><!--MD5=[ad1e0dfb7967d80be5dad4c9388df9ec]
class EspecificarColaboradorController--><rect codeLine="6" fill="#FEFECE" filter="url(#f1btgyhd7vy78y)" height="61.8359" id="EspecificarColaboradorController" style="stroke:#A80036;stroke-width:1.5;" width="253" x="500" y="116"/><ellipse cx="531.65" cy="132" fill="#ADD1B2" rx="11" ry="11" style="stroke:#A80036;stroke-width:1.0;"/><path d="M534.4156,127.875 Q534.5719,127.6563 534.7594,127.5469 Q534.9469,127.4375 535.1656,127.4375 Q535.5406,127.4375 535.775,127.7031 Q536.0094,127.9531 536.0094,128.5625 L536.0094,130.0156 Q536.0094,130.625 535.775,130.8906 Q535.5406,131.1563 535.1656,131.1563 Q534.8219,131.1563 534.6188,130.9531 Q534.4156,130.7656 534.3063,130.25 Q534.2594,129.8906 534.0719,129.7031 Q533.7438,129.3281 533.1344,129.1094 Q532.525,128.8906 531.9,128.8906 Q531.1344,128.8906 530.4938,129.2188 Q529.8688,129.5469 529.3688,130.2969 Q528.8844,131.0469 528.8844,132.0781 L528.8844,133.1719 Q528.8844,134.4063 529.775,135.2344 Q530.6656,136.0469 532.2594,136.0469 Q533.1969,136.0469 533.8531,135.7969 Q534.2438,135.6406 534.6656,135.2031 Q534.9313,134.9375 535.0719,134.8594 Q535.2281,134.7813 535.4313,134.7813 Q535.7594,134.7813 536.0094,135.0469 Q536.275,135.2969 536.275,135.6406 Q536.275,135.9844 535.9313,136.3906 Q535.4313,136.9688 534.6344,137.2969 Q533.5563,137.75 532.2594,137.75 Q530.7438,137.75 529.5406,137.125 Q528.5563,136.625 527.8688,135.5625 Q527.1813,134.4844 527.1813,133.2031 L527.1813,132.0469 Q527.1813,130.7188 527.7906,129.5781 Q528.4156,128.4219 529.5094,127.8125 Q530.6031,127.1875 531.8375,127.1875 Q532.5719,127.1875 533.2125,127.3594 Q533.8688,127.5156 534.4156,127.875 Z " fill="#000000"/><text fill="#000000" font-family="sans-serif" font-size="12" lengthAdjust="spacing" textLength="184" x="549.35" y="136.9102">EspecificarColaboradorController</text><line style="stroke:#A80036;stroke-width:1.5;" x1="501" x2="752" y1="148" y2="148"/><line style="stroke:#A80036;stroke-width:1.5;" x1="501" x2="752" y1="156" y2="156"/><text fill="#000000" font-family="sans-serif" font-size="11" lengthAdjust="spacing" textLength="241" x="506" y="171.4189">+novoColaborador(nome, funcao, contacto, email)</text><!--MD5=[ecaed46f78f8cfe1e9ce18477649be18]
class Plataforma--><rect codeLine="10" fill="#FEFECE" filter="url(#f1btgyhd7vy78y)" height="117.1797" id="Plataforma" style="stroke:#A80036;stroke-width:1.5;" width="182" x="649.5" y="696"/><ellipse cx="706.25" cy="712" fill="#ADD1B2" rx="11" ry="11" style="stroke:#A80036;stroke-width:1.0;"/><path d="M709.0156,707.875 Q709.1719,707.6563 709.3594,707.5469 Q709.5469,707.4375 709.7656,707.4375 Q710.1406,707.4375 710.375,707.7031 Q710.6094,707.9531 710.6094,708.5625 L710.6094,710.0156 Q710.6094,710.625 710.375,710.8906 Q710.1406,711.1563 709.7656,711.1563 Q709.4219,711.1563 709.2188,710.9531 Q709.0156,710.7656 708.9063,710.25 Q708.8594,709.8906 708.6719,709.7031 Q708.3438,709.3281 707.7344,709.1094 Q707.125,708.8906 706.5,708.8906 Q705.7344,708.8906 705.0938,709.2188 Q704.4688,709.5469 703.9688,710.2969 Q703.4844,711.0469 703.4844,712.0781 L703.4844,713.1719 Q703.4844,714.4063 704.375,715.2344 Q705.2656,716.0469 706.8594,716.0469 Q707.7969,716.0469 708.4531,715.7969 Q708.8438,715.6406 709.2656,715.2031 Q709.5313,714.9375 709.6719,714.8594 Q709.8281,714.7813 710.0313,714.7813 Q710.3594,714.7813 710.6094,715.0469 Q710.875,715.2969 710.875,715.6406 Q710.875,715.9844 710.5313,716.3906 Q710.0313,716.9688 709.2344,717.2969 Q708.1563,717.75 706.8594,717.75 Q705.3438,717.75 704.1406,717.125 Q703.1563,716.625 702.4688,715.5625 Q701.7813,714.4844 701.7813,713.2031 L701.7813,712.0469 Q701.7813,710.7188 702.3906,709.5781 Q703.0156,708.4219 704.1094,707.8125 Q705.2031,707.1875 706.4375,707.1875 Q707.1719,707.1875 707.8125,707.3594 Q708.4688,707.5156 709.0156,707.875 Z " fill="#000000"/><text fill="#000000" font-family="sans-serif" font-size="12" lengthAdjust="spacing" textLength="60" x="726.75" y="716.9102">Plataforma</text><line style="stroke:#A80036;stroke-width:1.5;" x1="650.5" x2="830.5" y1="728" y2="728"/><text fill="#000000" font-family="sans-serif" font-size="11" lengthAdjust="spacing" textLength="91" x="655.5" y="743.4189">-String designacao</text><line style="stroke:#A80036;stroke-width:1.5;" x1="650.5" x2="830.5" y1="749.8359" y2="749.8359"/><text fill="#000000" font-family="sans-serif" font-size="11" lengthAdjust="spacing" textLength="74" x="655.5" y="765.2549">+getUsersAPI()</text><text fill="#000000" font-family="sans-serif" font-size="11" lengthAdjust="spacing" textLength="127" x="655.5" y="779.0908">+getRegistoOrganizacao()</text><text fill="#000000" font-family="sans-serif" font-size="11" lengthAdjust="spacing" textLength="170" x="655.5" y="792.9268">+getAlgoritmoGeradorPasswords()</text><text fill="#000000" font-family="sans-serif" font-size="11" lengthAdjust="spacing" textLength="156" x="655.5" y="806.7627">+getGestaoUtilizadoresFacade()</text><!--MD5=[407421fe170650ac131a5bd0ef307540]
class UsersAPI--><rect codeLine="51" fill="#FEFECE" filter="url(#f1btgyhd7vy78y)" height="89.5078" id="UsersAPI" style="stroke:#A80036;stroke-width:1.5;" width="232" x="872.5" y="266.5"/><ellipse cx="958.25" cy="282.5" fill="#ADD1B2" rx="11" ry="11" style="stroke:#A80036;stroke-width:1.0;"/><path d="M961.0156,278.375 Q961.1719,278.1563 961.3594,278.0469 Q961.5469,277.9375 961.7656,277.9375 Q962.1406,277.9375 962.375,278.2031 Q962.6094,278.4531 962.6094,279.0625 L962.6094,280.5156 Q962.6094,281.125 962.375,281.3906 Q962.1406,281.6563 961.7656,281.6563 Q961.4219,281.6563 961.2188,281.4531 Q961.0156,281.2656 960.9063,280.75 Q960.8594,280.3906 960.6719,280.2031 Q960.3438,279.8281 959.7344,279.6094 Q959.125,279.3906 958.5,279.3906 Q957.7344,279.3906 957.0938,279.7188 Q956.4688,280.0469 955.9688,280.7969 Q955.4844,281.5469 955.4844,282.5781 L955.4844,283.6719 Q955.4844,284.9063 956.375,285.7344 Q957.2656,286.5469 958.8594,286.5469 Q959.7969,286.5469 960.4531,286.2969 Q960.8438,286.1406 961.2656,285.7031 Q961.5313,285.4375 961.6719,285.3594 Q961.8281,285.2813 962.0313,285.2813 Q962.3594,285.2813 962.6094,285.5469 Q962.875,285.7969 962.875,286.1406 Q962.875,286.4844 962.5313,286.8906 Q962.0313,287.4688 961.2344,287.7969 Q960.1563,288.25 958.8594,288.25 Q957.3438,288.25 956.1406,287.625 Q955.1563,287.125 954.4688,286.0625 Q953.7813,284.9844 953.7813,283.7031 L953.7813,282.5469 Q953.7813,281.2188 954.3906,280.0781 Q955.0156,278.9219 956.1094,278.3125 Q957.2031,277.6875 958.4375,277.6875 Q959.1719,277.6875 959.8125,277.8594 Q960.4688,278.0156 961.0156,278.375 Z " fill="#000000"/><text fill="#000000" font-family="sans-serif" font-size="12" lengthAdjust="spacing" textLength="52" x="978.75" y="287.4102">UsersAPI</text><line style="stroke:#A80036;stroke-width:1.5;" x1="873.5" x2="1103.5" y1="298.5" y2="298.5"/><line style="stroke:#A80036;stroke-width:1.5;" x1="873.5" x2="1103.5" y1="306.5" y2="306.5"/><text fill="#000000" font-family="sans-serif" font-size="11" lengthAdjust="spacing" textLength="56" x="878.5" y="321.9189">+getEmail();</text><text fill="#000000" font-family="sans-serif" font-size="11" lengthAdjust="spacing" textLength="97" x="878.5" y="335.7549">+getEmailUtilizador()</text><text fill="#000000" font-family="sans-serif" font-size="11" lengthAdjust="spacing" textLength="220" x="878.5" y="349.5908">+RegisterUserWithRoles(nome,telefone,email)</text><!--MD5=[548bd8e9f0dc9261535ca7b7174ac939]
class RegistoOrganizacoes--><rect codeLine="22" fill="#FEFECE" filter="url(#f1btgyhd7vy78y)" height="61.8359" id="RegistoOrganizacoes" style="stroke:#A80036;stroke-width:1.5;" width="208" x="558.5" y="517.5"/><ellipse cx="599.15" cy="533.5" fill="#ADD1B2" rx="11" ry="11" style="stroke:#A80036;stroke-width:1.0;"/><path d="M601.9156,529.375 Q602.0719,529.1563 602.2594,529.0469 Q602.4469,528.9375 602.6656,528.9375 Q603.0406,528.9375 603.275,529.2031 Q603.5094,529.4531 603.5094,530.0625 L603.5094,531.5156 Q603.5094,532.125 603.275,532.3906 Q603.0406,532.6563 602.6656,532.6563 Q602.3219,532.6563 602.1188,532.4531 Q601.9156,532.2656 601.8063,531.75 Q601.7594,531.3906 601.5719,531.2031 Q601.2438,530.8281 600.6344,530.6094 Q600.025,530.3906 599.4,530.3906 Q598.6344,530.3906 597.9938,530.7188 Q597.3688,531.0469 596.8688,531.7969 Q596.3844,532.5469 596.3844,533.5781 L596.3844,534.6719 Q596.3844,535.9063 597.275,536.7344 Q598.1656,537.5469 599.7594,537.5469 Q600.6969,537.5469 601.3531,537.2969 Q601.7438,537.1406 602.1656,536.7031 Q602.4313,536.4375 602.5719,536.3594 Q602.7281,536.2813 602.9313,536.2813 Q603.2594,536.2813 603.5094,536.5469 Q603.775,536.7969 603.775,537.1406 Q603.775,537.4844 603.4313,537.8906 Q602.9313,538.4688 602.1344,538.7969 Q601.0563,539.25 599.7594,539.25 Q598.2438,539.25 597.0406,538.625 Q596.0563,538.125 595.3688,537.0625 Q594.6813,535.9844 594.6813,534.7031 L594.6813,533.5469 Q594.6813,532.2188 595.2906,531.0781 Q595.9156,529.9219 597.0094,529.3125 Q598.1031,528.6875 599.3375,528.6875 Q600.0719,528.6875 600.7125,528.8594 Q601.3688,529.0156 601.9156,529.375 Z " fill="#000000"/><text fill="#000000" font-family="sans-serif" font-size="12" lengthAdjust="spacing" textLength="119" x="618.85" y="538.4102">RegistoOrganizacoes</text><line style="stroke:#A80036;stroke-width:1.5;" x1="559.5" x2="765.5" y1="549.5" y2="549.5"/><line style="stroke:#A80036;stroke-width:1.5;" x1="559.5" x2="765.5" y1="557.5" y2="557.5"/><text fill="#000000" font-family="sans-serif" font-size="11" lengthAdjust="spacing" textLength="196" x="564.5" y="572.9189">+getOrganizacaoByEmailUtilizador(email)</text><!--MD5=[807977ceb130c090ed5febfb6de2bdea]
class Organizacao--><rect codeLine="41" fill="#FEFECE" filter="url(#f1btgyhd7vy78y)" height="172.5234" id="Organizacao" style="stroke:#A80036;stroke-width:1.5;" width="253" x="231" y="462"/><ellipse cx="318.75" cy="478" fill="#ADD1B2" rx="11" ry="11" style="stroke:#A80036;stroke-width:1.0;"/><path d="M321.5156,473.875 Q321.6719,473.6563 321.8594,473.5469 Q322.0469,473.4375 322.2656,473.4375 Q322.6406,473.4375 322.875,473.7031 Q323.1094,473.9531 323.1094,474.5625 L323.1094,476.0156 Q323.1094,476.625 322.875,476.8906 Q322.6406,477.1563 322.2656,477.1563 Q321.9219,477.1563 321.7188,476.9531 Q321.5156,476.7656 321.4063,476.25 Q321.3594,475.8906 321.1719,475.7031 Q320.8438,475.3281 320.2344,475.1094 Q319.625,474.8906 319,474.8906 Q318.2344,474.8906 317.5938,475.2188 Q316.9688,475.5469 316.4688,476.2969 Q315.9844,477.0469 315.9844,478.0781 L315.9844,479.1719 Q315.9844,480.4063 316.875,481.2344 Q317.7656,482.0469 319.3594,482.0469 Q320.2969,482.0469 320.9531,481.7969 Q321.3438,481.6406 321.7656,481.2031 Q322.0313,480.9375 322.1719,480.8594 Q322.3281,480.7813 322.5313,480.7813 Q322.8594,480.7813 323.1094,481.0469 Q323.375,481.2969 323.375,481.6406 Q323.375,481.9844 323.0313,482.3906 Q322.5313,482.9688 321.7344,483.2969 Q320.6563,483.75 319.3594,483.75 Q317.8438,483.75 316.6406,483.125 Q315.6563,482.625 314.9688,481.5625 Q314.2813,480.4844 314.2813,479.2031 L314.2813,478.0469 Q314.2813,476.7188 314.8906,475.5781 Q315.5156,474.4219 316.6094,473.8125 Q317.7031,473.1875 318.9375,473.1875 Q319.6719,473.1875 320.3125,473.3594 Q320.9688,473.5156 321.5156,473.875 Z " fill="#000000"/><text fill="#000000" font-family="sans-serif" font-size="12" lengthAdjust="spacing" textLength="69" x="339.25" y="482.9102">Organizacao</text><line style="stroke:#A80036;stroke-width:1.5;" x1="232" x2="483" y1="494" y2="494"/><text fill="#000000" font-family="sans-serif" font-size="11" lengthAdjust="spacing" textLength="61" x="237" y="509.4189">-String nome</text><text fill="#000000" font-family="sans-serif" font-size="11" lengthAdjust="spacing" textLength="50" x="237" y="523.2549">-String NIF</text><text fill="#000000" font-family="sans-serif" font-size="11" lengthAdjust="spacing" textLength="74" x="237" y="537.0908">-String website</text><text fill="#000000" font-family="sans-serif" font-size="11" lengthAdjust="spacing" textLength="74" x="237" y="550.9268">-String telefone</text><text fill="#000000" font-family="sans-serif" font-size="11" lengthAdjust="spacing" textLength="59" x="237" y="564.7627">-String email</text><line style="stroke:#A80036;stroke-width:1.5;" x1="232" x2="483" y1="571.1797" y2="571.1797"/><text fill="#000000" font-family="sans-serif" font-size="11" lengthAdjust="spacing" textLength="241" x="237" y="586.5986">+novoColaborador(nome, funcao, contacto, email)</text><text fill="#000000" font-family="sans-serif" font-size="11" lengthAdjust="spacing" textLength="142" x="237" y="600.4346">+getRepositorioColaborador()</text><text fill="#000000" font-family="sans-serif" font-size="11" lengthAdjust="spacing" textLength="91" x="237" y="614.2705">+getOrganizacao()</text><text fill="#000000" font-family="sans-serif" font-size="11" lengthAdjust="spacing" textLength="107" x="237" y="628.1064">+validaColaborador(c)</text><!--MD5=[ac8682ea5466d223e49472789fb200d2]
class Colaborador--><rect codeLine="31" fill="#FEFECE" filter="url(#f1btgyhd7vy78y)" height="144.8516" id="Colaborador" style="stroke:#A80036;stroke-width:1.5;" width="229" x="309" y="239"/><ellipse cx="384.75" cy="255" fill="#ADD1B2" rx="11" ry="11" style="stroke:#A80036;stroke-width:1.0;"/><path d="M387.5156,250.875 Q387.6719,250.6563 387.8594,250.5469 Q388.0469,250.4375 388.2656,250.4375 Q388.6406,250.4375 388.875,250.7031 Q389.1094,250.9531 389.1094,251.5625 L389.1094,253.0156 Q389.1094,253.625 388.875,253.8906 Q388.6406,254.1563 388.2656,254.1563 Q387.9219,254.1563 387.7188,253.9531 Q387.5156,253.7656 387.4063,253.25 Q387.3594,252.8906 387.1719,252.7031 Q386.8438,252.3281 386.2344,252.1094 Q385.625,251.8906 385,251.8906 Q384.2344,251.8906 383.5938,252.2188 Q382.9688,252.5469 382.4688,253.2969 Q381.9844,254.0469 381.9844,255.0781 L381.9844,256.1719 Q381.9844,257.4063 382.875,258.2344 Q383.7656,259.0469 385.3594,259.0469 Q386.2969,259.0469 386.9531,258.7969 Q387.3438,258.6406 387.7656,258.2031 Q388.0313,257.9375 388.1719,257.8594 Q388.3281,257.7813 388.5313,257.7813 Q388.8594,257.7813 389.1094,258.0469 Q389.375,258.2969 389.375,258.6406 Q389.375,258.9844 389.0313,259.3906 Q388.5313,259.9688 387.7344,260.2969 Q386.6563,260.75 385.3594,260.75 Q383.8438,260.75 382.6406,260.125 Q381.6563,259.625 380.9688,258.5625 Q380.2813,257.4844 380.2813,256.2031 L380.2813,255.0469 Q380.2813,253.7188 380.8906,252.5781 Q381.5156,251.4219 382.6094,250.8125 Q383.7031,250.1875 384.9375,250.1875 Q385.6719,250.1875 386.3125,250.3594 Q386.9688,250.5156 387.5156,250.875 Z " fill="#000000"/><text fill="#000000" font-family="sans-serif" font-size="12" lengthAdjust="spacing" textLength="69" x="405.25" y="259.9102">Colaborador</text><line style="stroke:#A80036;stroke-width:1.5;" x1="310" x2="537" y1="271" y2="271"/><text fill="#000000" font-family="sans-serif" font-size="11" lengthAdjust="spacing" textLength="61" x="315" y="286.4189">-String nome</text><text fill="#000000" font-family="sans-serif" font-size="11" lengthAdjust="spacing" textLength="69" x="315" y="300.2549">-String funcao</text><text fill="#000000" font-family="sans-serif" font-size="11" lengthAdjust="spacing" textLength="74" x="315" y="314.0908">-String telefone</text><text fill="#000000" font-family="sans-serif" font-size="11" lengthAdjust="spacing" textLength="59" x="315" y="327.9268">-String email</text><line style="stroke:#A80036;stroke-width:1.5;" x1="310" x2="537" y1="334.3438" y2="334.3438"/><text fill="#000000" font-family="sans-serif" font-size="11" lengthAdjust="spacing" textLength="217" x="315" y="349.7627">+Colaborador(nome, funcao, contacto, email)</text><text fill="#000000" font-family="sans-serif" font-size="11" lengthAdjust="spacing" textLength="53" x="315" y="363.5986">+getEmail()</text><text fill="#000000" font-family="sans-serif" font-size="11" lengthAdjust="spacing" textLength="56" x="315" y="377.4346">+getNome()</text><!--MD5=[31b9c64e5635120c64042ad4e11560e0]
class RepositorioColaborador--><rect codeLine="56" fill="#FEFECE" filter="url(#f1btgyhd7vy78y)" height="89.5078" id="RepositorioColaborador" style="stroke:#A80036;stroke-width:1.5;" width="204" x="69.5" y="266.5"/><ellipse cx="102.05" cy="282.5" fill="#ADD1B2" rx="11" ry="11" style="stroke:#A80036;stroke-width:1.0;"/><path d="M104.8156,278.375 Q104.9719,278.1563 105.1594,278.0469 Q105.3469,277.9375 105.5656,277.9375 Q105.9406,277.9375 106.175,278.2031 Q106.4094,278.4531 106.4094,279.0625 L106.4094,280.5156 Q106.4094,281.125 106.175,281.3906 Q105.9406,281.6563 105.5656,281.6563 Q105.2219,281.6563 105.0188,281.4531 Q104.8156,281.2656 104.7063,280.75 Q104.6594,280.3906 104.4719,280.2031 Q104.1438,279.8281 103.5344,279.6094 Q102.925,279.3906 102.3,279.3906 Q101.5344,279.3906 100.8938,279.7188 Q100.2688,280.0469 99.7688,280.7969 Q99.2844,281.5469 99.2844,282.5781 L99.2844,283.6719 Q99.2844,284.9063 100.175,285.7344 Q101.0656,286.5469 102.6594,286.5469 Q103.5969,286.5469 104.2531,286.2969 Q104.6438,286.1406 105.0656,285.7031 Q105.3313,285.4375 105.4719,285.3594 Q105.6281,285.2813 105.8313,285.2813 Q106.1594,285.2813 106.4094,285.5469 Q106.675,285.7969 106.675,286.1406 Q106.675,286.4844 106.3313,286.8906 Q105.8313,287.4688 105.0344,287.7969 Q103.9563,288.25 102.6594,288.25 Q101.1438,288.25 99.9406,287.625 Q98.9563,287.125 98.2688,286.0625 Q97.5813,284.9844 97.5813,283.7031 L97.5813,282.5469 Q97.5813,281.2188 98.1906,280.0781 Q98.8156,278.9219 99.9094,278.3125 Q101.0031,277.6875 102.2375,277.6875 Q102.9719,277.6875 103.6125,277.8594 Q104.2688,278.0156 104.8156,278.375 Z " fill="#000000"/><text fill="#000000" font-family="sans-serif" font-size="12" lengthAdjust="spacing" textLength="133" x="119.95" y="287.4102">RepositorioColaborador</text><line style="stroke:#A80036;stroke-width:1.5;" x1="70.5" x2="272.5" y1="298.5" y2="298.5"/><text fill="#000000" font-family="sans-serif" font-size="11" lengthAdjust="spacing" textLength="93" x="75.5" y="313.9189">+validaColaborador</text><text fill="#000000" font-family="sans-serif" font-size="11" lengthAdjust="spacing" textLength="83" x="75.5" y="327.7549">+addColaborador</text><line style="stroke:#A80036;stroke-width:1.5;" x1="70.5" x2="272.5" y1="334.1719" y2="334.1719"/><text fill="#000000" font-family="sans-serif" font-size="11" lengthAdjust="spacing" textLength="192" x="75.5" y="349.5908">+novoColaborador(nome,telefone,email)</text><!--MD5=[37bf6c08f758502d5d1a5531d651ab43]
class AlgoritmoGeradorPasswords--><rect codeLine="62" fill="#FEFECE" filter="url(#f1btgyhd7vy78y)" height="61.8359" id="AlgoritmoGeradorPasswords" style="stroke:#A80036;stroke-width:1.5;" width="189" x="7" y="517.5"/><ellipse cx="22" cy="533.5" fill="#B4A7E5" rx="11" ry="11" style="stroke:#A80036;stroke-width:1.0;"/><path d="M22.9531,530.1406 L22.9531,536.7969 L24.6719,536.7969 Q25.2813,536.7969 25.5469,537.0313 Q25.8125,537.2656 25.8125,537.6563 Q25.8125,538.0313 25.5469,538.2656 Q25.2813,538.5 24.6719,538.5 L19.5313,538.5 Q18.9219,538.5 18.6563,538.2656 Q18.3906,538.0313 18.3906,537.6406 Q18.3906,537.2656 18.6563,537.0313 Q18.9219,536.7969 19.5313,536.7969 L21.25,536.7969 L21.25,530.1406 L19.5313,530.1406 Q18.9219,530.1406 18.6563,529.9063 Q18.3906,529.6719 18.3906,529.2813 Q18.3906,528.9063 18.6563,528.6719 Q18.9219,528.4375 19.5313,528.4375 L24.6719,528.4375 Q25.2813,528.4375 25.5469,528.6719 Q25.8125,528.9063 25.8125,529.2813 Q25.8125,529.6719 25.5469,529.9063 Q25.2813,530.1406 24.6719,530.1406 L22.9531,530.1406 Z " fill="#000000"/><text fill="#000000" font-family="sans-serif" font-size="12" font-style="italic" lengthAdjust="spacing" textLength="157" x="36" y="538.4102">AlgoritmoGeradorPasswords</text><line style="stroke:#A80036;stroke-width:1.5;" x1="8" x2="195" y1="549.5" y2="549.5"/><line style="stroke:#A80036;stroke-width:1.5;" x1="8" x2="195" y1="557.5" y2="557.5"/><text fill="#000000" font-family="sans-serif" font-size="11" lengthAdjust="spacing" textLength="86" x="13" y="572.9189">+geraPassword()</text><!--MD5=[efc07359af4002ede352d360e3e5f791]
link EspecificarColaboradorUI to EspecificarColaboradorController--><path codeLine="67" d="M626.5,55.07 C626.5,71.01 626.5,92.51 626.5,110.6 " fill="none" id="EspecificarColaboradorUI-to-EspecificarColaboradorController" style="stroke:#A80036;stroke-width:1.0;stroke-dasharray:7.0,7.0;"/><polygon fill="#A80036" points="626.5,115.61,630.5,106.61,626.5,110.61,622.5,106.61,626.5,115.61" style="stroke:#A80036;stroke-width:1.0;"/><!--MD5=[2bb086275742376c3d50393d164192a9]
link EspecificarColaboradorController to UsersAPI--><path codeLine="69" d="M753.19,174.53 C784.16,183.21 816.67,194.26 845.5,208 C876.12,222.59 907.09,243.81 932.34,263.17 " fill="none" id="EspecificarColaboradorController-to-UsersAPI" style="stroke:#A80036;stroke-width:1.0;stroke-dasharray:7.0,7.0;"/><polygon fill="#A80036" points="936.34,266.26,931.6633,257.5923,932.3833,263.2032,926.7724,263.9231,936.34,266.26" style="stroke:#A80036;stroke-width:1.0;"/><!--MD5=[e749425d82a7a68558984fefba013df9]
link EspecificarColaboradorController to Plataforma--><path codeLine="70" d="M647.86,178.2 C684.51,232.09 758,349.75 784.5,462 C802.17,536.83 798.1,559.32 784.5,635 C781.15,653.66 775.05,673.22 768.44,690.94 " fill="none" id="EspecificarColaboradorController-to-Plataforma" style="stroke:#A80036;stroke-width:1.0;stroke-dasharray:7.0,7.0;"/><polygon fill="#A80036" points="766.56,695.89,773.4912,688.893,768.3328,691.2148,766.011,686.0565,766.56,695.89" style="stroke:#A80036;stroke-width:1.0;"/><!--MD5=[59cf18256fd8b5aa6b8e176185a9c121]
link EspecificarColaboradorController to RepositorioColaborador--><path codeLine="71" d="M499.69,173.84 C435.84,188.99 358.08,210.75 291.5,239 C275.18,245.93 258.39,254.73 242.73,263.77 " fill="none" id="EspecificarColaboradorController-to-RepositorioColaborador" style="stroke:#A80036;stroke-width:1.0;stroke-dasharray:7.0,7.0;"/><polygon fill="#A80036" points="238.34,266.33,248.1299,265.2543,242.6599,263.8124,244.1018,258.3424,238.34,266.33" style="stroke:#A80036;stroke-width:1.0;"/><!--MD5=[9c73233cbb6f579cf910689870d2b782]
link EspecificarColaboradorController to RegistoOrganizacoes--><path codeLine="72" d="M629.21,178.03 C635.73,250.42 652.3,434.3 659.3,511.99 " fill="none" id="EspecificarColaboradorController-to-RegistoOrganizacoes" style="stroke:#A80036;stroke-width:1.0;stroke-dasharray:7.0,7.0;"/><polygon fill="#A80036" points="659.79,517.4,662.9757,508.0806,659.3464,512.4197,655.0072,508.7904,659.79,517.4" style="stroke:#A80036;stroke-width:1.0;"/><!--MD5=[3ea4a54878a3bfc205bf7413d5ce6eb6]
link EspecificarColaboradorController to Organizacao--><path codeLine="73" d="M623.1,178.33 C616.59,225.7 598.95,318.6 555.5,384 C537.35,411.32 513.28,436.43 488.2,458.36 " fill="none" id="EspecificarColaboradorController-to-Organizacao" style="stroke:#A80036;stroke-width:1.0;stroke-dasharray:7.0,7.0;"/><polygon fill="#A80036" points="484.16,461.85,493.585,458.9919,487.9432,458.5808,488.3543,452.9389,484.16,461.85" style="stroke:#A80036;stroke-width:1.0;"/><!--MD5=[ea1c4a716374c6a44de667b4314b01f1]
link EspecificarColaboradorController to Colaborador--><path codeLine="74" d="M588.79,178.18 C568.44,194.48 542.33,215.38 516.91,235.73 " fill="none" id="EspecificarColaboradorController-to-Colaborador" style="stroke:#A80036;stroke-width:1.0;stroke-dasharray:7.0,7.0;"/><polygon fill="#A80036" points="512.83,238.99,522.3532,236.4785,516.7302,235.8613,517.3473,230.2382,512.83,238.99" style="stroke:#A80036;stroke-width:1.0;"/><!--MD5=[847c2704e783791d97544b9bc69cf35e]
reverse link Organizacao to RegistoOrganizacoes--><path codeLine="76" d="M489.42,548.5 C512.51,548.5 536.24,548.5 558.43,548.5 " fill="none" id="Organizacao-backto-RegistoOrganizacoes" style="stroke:#A80036;stroke-width:1.0;"/><polygon fill="#A80036" points="484.2,548.5,493.2,552.5,489.2,548.5,493.2,544.5,484.2,548.5" style="stroke:#A80036;stroke-width:1.0;"/><text fill="#000000" font-family="sans-serif" font-size="13" lengthAdjust="spacing" textLength="38" x="502.25" y="541.9951">possui</text><text fill="#000000" font-family="sans-serif" font-size="13" lengthAdjust="spacing" textLength="5" x="492.0731" y="545.5328">*</text><text fill="#000000" font-family="sans-serif" font-size="13" lengthAdjust="spacing" textLength="7" x="543.5303" y="545.4266">1</text><!--MD5=[4af63d3dea35e3291155f9f8678ce2df]
reverse link Colaborador to Organizacao--><path codeLine="78" d="M401.96,389.19 C395.45,412.37 388.26,437.96 381.6,461.69 " fill="none" id="Colaborador-backto-Organizacao" style="stroke:#A80036;stroke-width:1.0;"/><polygon fill="#A80036" points="403.34,384.28,397.069,391.8744,401.9966,389.0962,404.7748,394.0238,403.34,384.28" style="stroke:#A80036;stroke-width:1.0;"/><text fill="#000000" font-family="sans-serif" font-size="13" lengthAdjust="spacing" textLength="38" x="394.5" y="428.4951">possui</text><text fill="#000000" font-family="sans-serif" font-size="13" lengthAdjust="spacing" textLength="20" x="380.5596" y="405.2451">1..*</text><text fill="#000000" font-family="sans-serif" font-size="13" lengthAdjust="spacing" textLength="7" x="376.3703" y="451.073">1</text><!--MD5=[7211a0ad0adb06f7239aae2bd3252f07]
reverse link RepositorioColaborador to Organizacao--><path codeLine="79" d="M209.82,360.92 C232.79,389.94 262.66,427.68 289.52,461.62 " fill="none" id="RepositorioColaborador-backto-Organizacao" style="stroke:#A80036;stroke-width:1.0;"/><polygon fill="#A80036" points="206.49,356.7,208.9419,366.2388,209.5942,360.6196,215.2134,361.272,206.49,356.7" style="stroke:#A80036;stroke-width:1.0;"/><text fill="#000000" font-family="sans-serif" font-size="13" lengthAdjust="spacing" textLength="38" x="265.5" y="428.4951">possui</text><text fill="#000000" font-family="sans-serif" font-size="13" lengthAdjust="spacing" textLength="7" x="203.7215" y="377.4006">1</text><text fill="#000000" font-family="sans-serif" font-size="13" lengthAdjust="spacing" textLength="7" x="276.3772" y="450.997">1</text><!--MD5=[f956b01fa20498051cb5c0231a4b59ec]
link RepositorioColaborador to AlgoritmoGeradorPasswords--><path codeLine="80" d="M158.33,356.7 C144.9,401.8 124.32,470.89 111.96,512.39 " fill="none" id="RepositorioColaborador-to-AlgoritmoGeradorPasswords" style="stroke:#A80036;stroke-width:1.0;stroke-dasharray:7.0,7.0;"/><polygon fill="#A80036" points="110.49,517.31,116.8911,509.8249,111.9163,512.5177,109.2235,507.5429,110.49,517.31" style="stroke:#A80036;stroke-width:1.0;"/><!--MD5=[a774be99f5289ddf5cc1156e77f855c9]
link RegistoOrganizacoes to Plataforma--><path codeLine="81" d="M674.01,579.6 C685.16,608.77 702.42,653.9 716.56,690.88 " fill="none" id="RegistoOrganizacoes-to-Plataforma" style="stroke:#A80036;stroke-width:1.0;stroke-dasharray:7.0,7.0;"/><polygon fill="#A80036" points="718.44,695.8,718.9627,685.965,716.6547,691.1296,711.4901,688.8215,718.44,695.8" style="stroke:#A80036;stroke-width:1.0;"/><!--MD5=[2fdf774dfb9ec32269dd2216a0770de2]
@startuml
skinparam classAttributeIconSize 0

class EspecificarColaboradorUI {
}

class EspecificarColaboradorController {
  +novoColaborador(nome, funcao, contacto, email)
}

class Plataforma {
  -String designacao
  +getUsersAPI()
  +getRegistoOrganizacao()
  +getAlgoritmoGeradorPasswords()
  +getGestaoUtilizadoresFacade()
}

class UsersAPI{
  +getEmail();
}

class RegistoOrganizacoes {
  +getOrganizacaoByEmailUtilizador(email)
}

class Organizacao {
  +novoColaborador(nome, funcao, contacto, email)
  +getRepositorioColaborador()
}

class Colaborador {
  -String nome
  -String funcao
  -String telefone
  -String email
  +Colaborador(nome, funcao, contacto, email)
  +getEmail()
  +getNome()
}

class Organizacao {
  -String nome
  -String NIF
  -String website
  -String telefone
  -String email
  +getOrganizacao()
  +validaColaborador(c)
}

class UsersAPI {
  +getEmailUtilizador()
  +RegisterUserWithRoles(nome,telefone,email)
}

class RepositorioColaborador {
  +novoColaborador(nome,telefone,email)
  +validaColaborador
  +addColaborador
}

interface AlgoritmoGeradorPasswords{
  +geraPassword()
}


EspecificarColaboradorUI ..> EspecificarColaboradorController

EspecificarColaboradorController ..> UsersAPI
EspecificarColaboradorController ..> Plataforma
EspecificarColaboradorController ..> RepositorioColaborador
EspecificarColaboradorController ..> RegistoOrganizacoes
EspecificarColaboradorController ..> Organizacao
EspecificarColaboradorController ..> Colaborador

RegistoOrganizacoes "1" -l> "*" Organizacao : possui

Organizacao "1" - -u> "1..*" Colaborador : possui
Organizacao "1" - -u> "1" RepositorioColaborador : possui
RepositorioColaborador ..> AlgoritmoGeradorPasswords
RegistoOrganizacoes ..> Plataforma




@enduml

PlantUML version 1.2021.00(Sun Jan 10 10:25:05 WET 2021)
(GPL source distribution)
Java Runtime: OpenJDK Runtime Environment
JVM: OpenJDK 64-Bit Server VM
Default Encoding: Cp1252
Language: en
Country: US
--></g></svg>