<?xml version="1.0" encoding="UTF-8" standalone="no"?><svg xmlns="http://www.w3.org/2000/svg" xmlns:xlink="http://www.w3.org/1999/xlink" contentScriptType="application/ecmascript" contentStyleType="text/css" height="377px" preserveAspectRatio="none" style="width:512px;height:377px;" version="1.1" viewBox="0 0 512 377" width="512px" zoomAndPan="magnify"><defs><filter height="300%" id="f96pmsga82fc0" width="300%" x="-1" y="-1"><feGaussianBlur result="blurOut" stdDeviation="2.0"/><feColorMatrix in="blurOut" result="blurOut2" type="matrix" values="0 0 0 0 0 0 0 0 0 0 0 0 0 0 0 0 0 0 .4 0"/><feOffset dx="4.0" dy="4.0" in="blurOut2" result="blurOut3"/><feBlend in="SourceGraphic" in2="blurOut3" mode="normal"/></filter></defs><g><rect fill="#FFFFFF" filter="url(#f96pmsga82fc0)" height="174.1094" style="stroke:#A80036;stroke-width:1.0;" width="10" x="76.5" y="99.6094"/><rect fill="#FFFFFF" filter="url(#f96pmsga82fc0)" height="30.3516" style="stroke:#A80036;stroke-width:1.0;" width="10" x="461.5" y="121.9609"/><rect fill="#FFFFFF" filter="url(#f96pmsga82fc0)" height="30.3516" style="stroke:#A80036;stroke-width:1.0;" width="10" x="461.5" y="182.6641"/><rect fill="#FFFFFF" filter="url(#f96pmsga82fc0)" height="30.3516" style="stroke:#A80036;stroke-width:1.0;" width="10" x="461.5" y="243.3672"/><line style="stroke:#A80036;stroke-width:1.0;stroke-dasharray:5.0,5.0;" x1="81" x2="81" y1="89.6094" y2="291.7188"/><line style="stroke:#A80036;stroke-width:1.0;stroke-dasharray:5.0,5.0;" x1="466.5" x2="466.5" y1="89.6094" y2="291.7188"/><text fill="#000000" font-family="sans-serif" font-size="14" lengthAdjust="spacing" textLength="147" x="5" y="86.5332">Gestor de Organização</text><ellipse cx="81.5" cy="15" fill="#FEFECE" filter="url(#f96pmsga82fc0)" rx="8" ry="8" style="stroke:#A80036;stroke-width:2.0;"/><path d="M81.5,23 L81.5,50 M68.5,31 L94.5,31 M81.5,50 L68.5,65 M81.5,50 L94.5,65 " fill="none" filter="url(#f96pmsga82fc0)" style="stroke:#A80036;stroke-width:2.0;"/><text fill="#000000" font-family="sans-serif" font-size="14" lengthAdjust="spacing" textLength="147" x="5" y="305.252">Gestor de Organização</text><ellipse cx="81.5" cy="318.3281" fill="#FEFECE" filter="url(#f96pmsga82fc0)" rx="8" ry="8" style="stroke:#A80036;stroke-width:2.0;"/><path d="M81.5,326.3281 L81.5,353.3281 M68.5,334.3281 L94.5,334.3281 M81.5,353.3281 L68.5,368.3281 M81.5,353.3281 L94.5,368.3281 " fill="none" filter="url(#f96pmsga82fc0)" style="stroke:#A80036;stroke-width:2.0;"/><rect fill="#FEFECE" filter="url(#f96pmsga82fc0)" height="31.6094" style="stroke:#A80036;stroke-width:1.5;" width="68" x="430.5" y="53"/><text fill="#000000" font-family="sans-serif" font-size="14" lengthAdjust="spacing" textLength="54" x="437.5" y="74.5332">:Sistema</text><rect fill="#FEFECE" filter="url(#f96pmsga82fc0)" height="31.6094" style="stroke:#A80036;stroke-width:1.5;" width="68" x="430.5" y="290.7188"/><text fill="#000000" font-family="sans-serif" font-size="14" lengthAdjust="spacing" textLength="54" x="437.5" y="312.252">:Sistema</text><rect fill="#FFFFFF" filter="url(#f96pmsga82fc0)" height="174.1094" style="stroke:#A80036;stroke-width:1.0;" width="10" x="76.5" y="99.6094"/><rect fill="#FFFFFF" filter="url(#f96pmsga82fc0)" height="30.3516" style="stroke:#A80036;stroke-width:1.0;" width="10" x="461.5" y="121.9609"/><rect fill="#FFFFFF" filter="url(#f96pmsga82fc0)" height="30.3516" style="stroke:#A80036;stroke-width:1.0;" width="10" x="461.5" y="182.6641"/><rect fill="#FFFFFF" filter="url(#f96pmsga82fc0)" height="30.3516" style="stroke:#A80036;stroke-width:1.0;" width="10" x="461.5" y="243.3672"/><polygon fill="#A80036" points="449.5,117.9609,459.5,121.9609,449.5,125.9609,453.5,121.9609" style="stroke:#A80036;stroke-width:1.0;"/><line style="stroke:#A80036;stroke-width:1.0;" x1="86.5" x2="455.5" y1="121.9609" y2="121.9609"/><text fill="#000000" font-family="sans-serif" font-size="13" font-weight="bold" lengthAdjust="spacing" textLength="7" x="93.5" y="117.1045">1</text><text fill="#000000" font-family="sans-serif" font-size="13" lengthAdjust="spacing" textLength="345" x="104.5" y="117.1045">inicia o processo de registo de Colaborador da Organização</text><polygon fill="#A80036" points="97.5,148.3125,87.5,152.3125,97.5,156.3125,93.5,152.3125" style="stroke:#A80036;stroke-width:1.0;"/><line style="stroke:#A80036;stroke-width:1.0;stroke-dasharray:2.0,2.0;" x1="91.5" x2="465.5" y1="152.3125" y2="152.3125"/><text fill="#000000" font-family="sans-serif" font-size="13" font-weight="bold" lengthAdjust="spacing" textLength="7" x="103.5" y="147.4561">2</text><text fill="#000000" font-family="sans-serif" font-size="13" lengthAdjust="spacing" textLength="319" x="114.5" y="147.4561">solicita os dados necessários (Nome, Contacto, Email)</text><polygon fill="#A80036" points="449.5,178.6641,459.5,182.6641,449.5,186.6641,453.5,182.6641" style="stroke:#A80036;stroke-width:1.0;"/><line style="stroke:#A80036;stroke-width:1.0;" x1="86.5" x2="455.5" y1="182.6641" y2="182.6641"/><text fill="#000000" font-family="sans-serif" font-size="13" font-weight="bold" lengthAdjust="spacing" textLength="7" x="93.5" y="177.8076">3</text><text fill="#000000" font-family="sans-serif" font-size="13" lengthAdjust="spacing" textLength="92" x="104.5" y="177.8076">insere os dados</text><polygon fill="#A80036" points="97.5,209.0156,87.5,213.0156,97.5,217.0156,93.5,213.0156" style="stroke:#A80036;stroke-width:1.0;"/><line style="stroke:#A80036;stroke-width:1.0;stroke-dasharray:2.0,2.0;" x1="91.5" x2="465.5" y1="213.0156" y2="213.0156"/><text fill="#000000" font-family="sans-serif" font-size="13" font-weight="bold" lengthAdjust="spacing" textLength="7" x="103.5" y="208.1592">4</text><text fill="#000000" font-family="sans-serif" font-size="13" lengthAdjust="spacing" textLength="219" x="114.5" y="208.1592">valida os dados e solicita confirmação</text><polygon fill="#A80036" points="449.5,239.3672,459.5,243.3672,449.5,247.3672,453.5,243.3672" style="stroke:#A80036;stroke-width:1.0;"/><line style="stroke:#A80036;stroke-width:1.0;" x1="86.5" x2="455.5" y1="243.3672" y2="243.3672"/><text fill="#000000" font-family="sans-serif" font-size="13" font-weight="bold" lengthAdjust="spacing" textLength="7" x="93.5" y="238.5107">5</text><text fill="#000000" font-family="sans-serif" font-size="13" lengthAdjust="spacing" textLength="106" x="104.5" y="238.5107">confirma os dados</text><polygon fill="#A80036" points="92.5,269.7188,82.5,273.7188,92.5,277.7188,88.5,273.7188" style="stroke:#A80036;stroke-width:1.0;"/><line style="stroke:#A80036;stroke-width:1.0;stroke-dasharray:2.0,2.0;" x1="86.5" x2="465.5" y1="273.7188" y2="273.7188"/><text fill="#000000" font-family="sans-serif" font-size="13" font-weight="bold" lengthAdjust="spacing" textLength="7" x="98.5" y="268.8623">6</text><text fill="#000000" font-family="sans-serif" font-size="13" lengthAdjust="spacing" textLength="196" x="109.5" y="268.8623">apresenta mensagem de sucesso</text><!--MD5=[34e15e91844c884fbef7b33fbeba41b1]
@startuml
autonumber
actor "Gestor de Organização" as GES

participant ":Sistema" as SIST

activate GES
GES -> SIST : inicia o processo de registo de Colaborador da Organização
activate SIST
SIST - -> GES : solicita os dados necessários (Nome, Contacto, Email)
deactivate SIST

GES -> SIST : insere os dados
activate SIST
SIST - -> GES : valida os dados e solicita confirmação
deactivate SIST

GES -> SIST : confirma os dados
activate SIST
SIST - -> GES : apresenta mensagem de sucesso
deactivate SIST

deactivate GES

@enduml

PlantUML version 1.2021.00(Sun Jan 10 10:25:05 WET 2021)
(GPL source distribution)
Java Runtime: OpenJDK Runtime Environment
JVM: OpenJDK 64-Bit Server VM
Default Encoding: Cp1252
Language: en
Country: US
--></g></svg>