<?xml version="1.0" encoding="UTF-8" standalone="no"?><svg xmlns="http://www.w3.org/2000/svg" xmlns:xlink="http://www.w3.org/1999/xlink" contentScriptType="application/ecmascript" contentStyleType="text/css" height="203px" preserveAspectRatio="none" style="width:972px;height:203px;" version="1.1" viewBox="0 0 972 203" width="972px" zoomAndPan="magnify"><defs><filter height="300%" id="fee7l9uvensbe" width="300%" x="-1" y="-1"><feGaussianBlur result="blurOut" stdDeviation="2.0"/><feColorMatrix in="blurOut" result="blurOut2" type="matrix" values="0 0 0 0 0 0 0 0 0 0 0 0 0 0 0 0 0 0 .4 0"/><feOffset dx="4.0" dy="4.0" in="blurOut2" result="blurOut3"/><feBlend in="SourceGraphic" in2="blurOut3" mode="normal"/></filter></defs><g><!--MD5=[ecaed46f78f8cfe1e9ce18477649be18]
class Plataforma--><rect codeLine="6" fill="#FEFECE" filter="url(#fee7l9uvensbe)" height="53.8359" id="Plataforma" style="stroke:#A80036;stroke-width:1.5;" width="103" x="7" y="101.5"/><ellipse cx="26.95" cy="117.5" fill="#ADD1B2" rx="11" ry="11" style="stroke:#A80036;stroke-width:1.0;"/><path d="M29.7156,113.375 Q29.8719,113.1563 30.0594,113.0469 Q30.2469,112.9375 30.4656,112.9375 Q30.8406,112.9375 31.075,113.2031 Q31.3094,113.4531 31.3094,114.0625 L31.3094,115.5156 Q31.3094,116.125 31.075,116.3906 Q30.8406,116.6563 30.4656,116.6563 Q30.1219,116.6563 29.9188,116.4531 Q29.7156,116.2656 29.6063,115.75 Q29.5594,115.3906 29.3719,115.2031 Q29.0438,114.8281 28.4344,114.6094 Q27.825,114.3906 27.2,114.3906 Q26.4344,114.3906 25.7938,114.7188 Q25.1688,115.0469 24.6688,115.7969 Q24.1844,116.5469 24.1844,117.5781 L24.1844,118.6719 Q24.1844,119.9063 25.075,120.7344 Q25.9656,121.5469 27.5594,121.5469 Q28.4969,121.5469 29.1531,121.2969 Q29.5438,121.1406 29.9656,120.7031 Q30.2313,120.4375 30.3719,120.3594 Q30.5281,120.2813 30.7313,120.2813 Q31.0594,120.2813 31.3094,120.5469 Q31.575,120.7969 31.575,121.1406 Q31.575,121.4844 31.2313,121.8906 Q30.7313,122.4688 29.9344,122.7969 Q28.8563,123.25 27.5594,123.25 Q26.0438,123.25 24.8406,122.625 Q23.8563,122.125 23.1688,121.0625 Q22.4813,119.9844 22.4813,118.7031 L22.4813,117.5469 Q22.4813,116.2188 23.0906,115.0781 Q23.7156,113.9219 24.8094,113.3125 Q25.9031,112.6875 27.1375,112.6875 Q27.8719,112.6875 28.5125,112.8594 Q29.1688,113.0156 29.7156,113.375 Z " fill="#000000"/><text fill="#000000" font-family="sans-serif" font-size="12" lengthAdjust="spacingAndGlyphs" textLength="60" x="42.05" y="122.4102">Plataforma</text><line style="stroke:#A80036;stroke-width:1.5;" x1="8" x2="109" y1="133.5" y2="133.5"/><text fill="#000000" font-family="sans-serif" font-size="11" lengthAdjust="spacingAndGlyphs" textLength="91" x="13" y="148.9189">-String designacao</text><!--MD5=[807977ceb130c090ed5febfb6de2bdea]
class Organizacao--><rect codeLine="10" fill="#FEFECE" filter="url(#fee7l9uvensbe)" height="109.1797" id="Organizacao" style="stroke:#A80036;stroke-width:1.5;" width="101" x="271" y="7"/><ellipse cx="286" cy="23" fill="#ADD1B2" rx="11" ry="11" style="stroke:#A80036;stroke-width:1.0;"/><path d="M288.7656,18.875 Q288.9219,18.6563 289.1094,18.5469 Q289.2969,18.4375 289.5156,18.4375 Q289.8906,18.4375 290.125,18.7031 Q290.3594,18.9531 290.3594,19.5625 L290.3594,21.0156 Q290.3594,21.625 290.125,21.8906 Q289.8906,22.1563 289.5156,22.1563 Q289.1719,22.1563 288.9688,21.9531 Q288.7656,21.7656 288.6563,21.25 Q288.6094,20.8906 288.4219,20.7031 Q288.0938,20.3281 287.4844,20.1094 Q286.875,19.8906 286.25,19.8906 Q285.4844,19.8906 284.8438,20.2188 Q284.2188,20.5469 283.7188,21.2969 Q283.2344,22.0469 283.2344,23.0781 L283.2344,24.1719 Q283.2344,25.4063 284.125,26.2344 Q285.0156,27.0469 286.6094,27.0469 Q287.5469,27.0469 288.2031,26.7969 Q288.5938,26.6406 289.0156,26.2031 Q289.2813,25.9375 289.4219,25.8594 Q289.5781,25.7813 289.7813,25.7813 Q290.1094,25.7813 290.3594,26.0469 Q290.625,26.2969 290.625,26.6406 Q290.625,26.9844 290.2813,27.3906 Q289.7813,27.9688 288.9844,28.2969 Q287.9063,28.75 286.6094,28.75 Q285.0938,28.75 283.8906,28.125 Q282.9063,27.625 282.2188,26.5625 Q281.5313,25.4844 281.5313,24.2031 L281.5313,23.0469 Q281.5313,21.7188 282.1406,20.5781 Q282.7656,19.4219 283.8594,18.8125 Q284.9531,18.1875 286.1875,18.1875 Q286.9219,18.1875 287.5625,18.3594 Q288.2188,18.5156 288.7656,18.875 Z " fill="#000000"/><text fill="#000000" font-family="sans-serif" font-size="12" lengthAdjust="spacingAndGlyphs" textLength="69" x="300" y="27.9102">Organizacao</text><line style="stroke:#A80036;stroke-width:1.5;" x1="272" x2="371" y1="39" y2="39"/><text fill="#000000" font-family="sans-serif" font-size="11" lengthAdjust="spacingAndGlyphs" textLength="61" x="277" y="54.4189">-String nome</text><text fill="#000000" font-family="sans-serif" font-size="11" lengthAdjust="spacingAndGlyphs" textLength="50" x="277" y="68.2549">-String NIF</text><text fill="#000000" font-family="sans-serif" font-size="11" lengthAdjust="spacingAndGlyphs" textLength="74" x="277" y="82.0908">-String website</text><text fill="#000000" font-family="sans-serif" font-size="11" lengthAdjust="spacingAndGlyphs" textLength="74" x="277" y="95.9268">-String telefone</text><text fill="#000000" font-family="sans-serif" font-size="11" lengthAdjust="spacingAndGlyphs" textLength="59" x="277" y="109.7627">-String email</text><!--MD5=[ac8682ea5466d223e49472789fb200d2]
class Colaborador--><rect codeLine="18" fill="#FEFECE" filter="url(#fee7l9uvensbe)" height="95.3438" id="Colaborador" style="stroke:#A80036;stroke-width:1.5;" width="101" x="624" y="21"/><ellipse cx="639" cy="37" fill="#ADD1B2" rx="11" ry="11" style="stroke:#A80036;stroke-width:1.0;"/><path d="M641.7656,32.875 Q641.9219,32.6563 642.1094,32.5469 Q642.2969,32.4375 642.5156,32.4375 Q642.8906,32.4375 643.125,32.7031 Q643.3594,32.9531 643.3594,33.5625 L643.3594,35.0156 Q643.3594,35.625 643.125,35.8906 Q642.8906,36.1563 642.5156,36.1563 Q642.1719,36.1563 641.9688,35.9531 Q641.7656,35.7656 641.6563,35.25 Q641.6094,34.8906 641.4219,34.7031 Q641.0938,34.3281 640.4844,34.1094 Q639.875,33.8906 639.25,33.8906 Q638.4844,33.8906 637.8438,34.2188 Q637.2188,34.5469 636.7188,35.2969 Q636.2344,36.0469 636.2344,37.0781 L636.2344,38.1719 Q636.2344,39.4063 637.125,40.2344 Q638.0156,41.0469 639.6094,41.0469 Q640.5469,41.0469 641.2031,40.7969 Q641.5938,40.6406 642.0156,40.2031 Q642.2813,39.9375 642.4219,39.8594 Q642.5781,39.7813 642.7813,39.7813 Q643.1094,39.7813 643.3594,40.0469 Q643.625,40.2969 643.625,40.6406 Q643.625,40.9844 643.2813,41.3906 Q642.7813,41.9688 641.9844,42.2969 Q640.9063,42.75 639.6094,42.75 Q638.0938,42.75 636.8906,42.125 Q635.9063,41.625 635.2188,40.5625 Q634.5313,39.4844 634.5313,38.2031 L634.5313,37.0469 Q634.5313,35.7188 635.1406,34.5781 Q635.7656,33.4219 636.8594,32.8125 Q637.9531,32.1875 639.1875,32.1875 Q639.9219,32.1875 640.5625,32.3594 Q641.2188,32.5156 641.7656,32.875 Z " fill="#000000"/><text fill="#000000" font-family="sans-serif" font-size="12" lengthAdjust="spacingAndGlyphs" textLength="69" x="653" y="41.9102">Colaborador</text><line style="stroke:#A80036;stroke-width:1.5;" x1="625" x2="724" y1="53" y2="53"/><text fill="#000000" font-family="sans-serif" font-size="11" lengthAdjust="spacingAndGlyphs" textLength="61" x="630" y="68.4189">-String nome</text><text fill="#000000" font-family="sans-serif" font-size="11" lengthAdjust="spacingAndGlyphs" textLength="69" x="630" y="82.2549">-String funcao</text><text fill="#000000" font-family="sans-serif" font-size="11" lengthAdjust="spacingAndGlyphs" textLength="74" x="630" y="96.0908">-String telefone</text><text fill="#000000" font-family="sans-serif" font-size="11" lengthAdjust="spacingAndGlyphs" textLength="59" x="630" y="109.9268">-String email</text><!--MD5=[5dd1d6732c071e710b9290b531f2fa3b]
class Utilizador--><rect codeLine="25" fill="#FEFECE" filter="url(#fee7l9uvensbe)" height="81.5078" id="Utilizador" style="stroke:#A80036;stroke-width:1.5;" width="97" x="861" y="89.5"/><ellipse cx="882.3" cy="105.5" fill="#ADD1B2" rx="11" ry="11" style="stroke:#A80036;stroke-width:1.0;"/><path d="M885.0656,101.375 Q885.2219,101.1563 885.4094,101.0469 Q885.5969,100.9375 885.8156,100.9375 Q886.1906,100.9375 886.425,101.2031 Q886.6594,101.4531 886.6594,102.0625 L886.6594,103.5156 Q886.6594,104.125 886.425,104.3906 Q886.1906,104.6563 885.8156,104.6563 Q885.4719,104.6563 885.2688,104.4531 Q885.0656,104.2656 884.9563,103.75 Q884.9094,103.3906 884.7219,103.2031 Q884.3938,102.8281 883.7844,102.6094 Q883.175,102.3906 882.55,102.3906 Q881.7844,102.3906 881.1438,102.7188 Q880.5188,103.0469 880.0188,103.7969 Q879.5344,104.5469 879.5344,105.5781 L879.5344,106.6719 Q879.5344,107.9063 880.425,108.7344 Q881.3156,109.5469 882.9094,109.5469 Q883.8469,109.5469 884.5031,109.2969 Q884.8938,109.1406 885.3156,108.7031 Q885.5813,108.4375 885.7219,108.3594 Q885.8781,108.2813 886.0813,108.2813 Q886.4094,108.2813 886.6594,108.5469 Q886.925,108.7969 886.925,109.1406 Q886.925,109.4844 886.5813,109.8906 Q886.0813,110.4688 885.2844,110.7969 Q884.2063,111.25 882.9094,111.25 Q881.3938,111.25 880.1906,110.625 Q879.2063,110.125 878.5188,109.0625 Q877.8313,107.9844 877.8313,106.7031 L877.8313,105.5469 Q877.8313,104.2188 878.4406,103.0781 Q879.0656,101.9219 880.1594,101.3125 Q881.2531,100.6875 882.4875,100.6875 Q883.2219,100.6875 883.8625,100.8594 Q884.5188,101.0156 885.0656,101.375 Z " fill="#000000"/><text fill="#000000" font-family="sans-serif" font-size="12" lengthAdjust="spacingAndGlyphs" textLength="51" x="897.7" y="110.4102">Utilizador</text><line style="stroke:#A80036;stroke-width:1.5;" x1="862" x2="957" y1="121.5" y2="121.5"/><text fill="#000000" font-family="sans-serif" font-size="11" lengthAdjust="spacingAndGlyphs" textLength="61" x="867" y="136.9189">-String nome</text><text fill="#000000" font-family="sans-serif" font-size="11" lengthAdjust="spacingAndGlyphs" textLength="59" x="867" y="150.7549">-String email</text><text fill="#000000" font-family="sans-serif" font-size="11" lengthAdjust="spacingAndGlyphs" textLength="85" x="867" y="164.5908">-String password</text><!--MD5=[37bf6c08f758502d5d1a5531d651ab43]
class AlgoritmoGeradorPasswords--><rect codeLine="31" fill="#00BFFF" filter="url(#fee7l9uvensbe)" height="40" id="AlgoritmoGeradorPasswords" style="stroke:#A80036;stroke-width:1.5;" width="192" x="402" y="149.5"/><ellipse cx="417" cy="165.5" fill="#ADD1B2" rx="11" ry="11" style="stroke:#A80036;stroke-width:1.0;"/><path d="M419.7656,161.375 Q419.9219,161.1563 420.1094,161.0469 Q420.2969,160.9375 420.5156,160.9375 Q420.8906,160.9375 421.125,161.2031 Q421.3594,161.4531 421.3594,162.0625 L421.3594,163.5156 Q421.3594,164.125 421.125,164.3906 Q420.8906,164.6563 420.5156,164.6563 Q420.1719,164.6563 419.9688,164.4531 Q419.7656,164.2656 419.6563,163.75 Q419.6094,163.3906 419.4219,163.2031 Q419.0938,162.8281 418.4844,162.6094 Q417.875,162.3906 417.25,162.3906 Q416.4844,162.3906 415.8438,162.7188 Q415.2188,163.0469 414.7188,163.7969 Q414.2344,164.5469 414.2344,165.5781 L414.2344,166.6719 Q414.2344,167.9063 415.125,168.7344 Q416.0156,169.5469 417.6094,169.5469 Q418.5469,169.5469 419.2031,169.2969 Q419.5938,169.1406 420.0156,168.7031 Q420.2813,168.4375 420.4219,168.3594 Q420.5781,168.2813 420.7813,168.2813 Q421.1094,168.2813 421.3594,168.5469 Q421.625,168.7969 421.625,169.1406 Q421.625,169.4844 421.2813,169.8906 Q420.7813,170.4688 419.9844,170.7969 Q418.9063,171.25 417.6094,171.25 Q416.0938,171.25 414.8906,170.625 Q413.9063,170.125 413.2188,169.0625 Q412.5313,167.9844 412.5313,166.7031 L412.5313,165.5469 Q412.5313,164.2188 413.1406,163.0781 Q413.7656,161.9219 414.8594,161.3125 Q415.9531,160.6875 417.1875,160.6875 Q417.9219,160.6875 418.5625,160.8594 Q419.2188,161.0156 419.7656,161.375 Z " fill="#000000"/><text fill="#000000" font-family="sans-serif" font-size="12" lengthAdjust="spacingAndGlyphs" textLength="160" x="431" y="170.4102">AlgoritmoGeradorPasswords</text><line style="stroke:#A80036;stroke-width:1.5;" x1="403" x2="593" y1="181.5" y2="181.5"/><!--MD5=[1c2ad462e362697fcdc859a6327d55c7]
link Plataforma to Organizacao--><path codeLine="34" d="M110.133,115.5023 C156.533,103.5912 224.82,86.061 270.894,74.234 " fill="none" id="Plataforma-Organizacao" style="stroke:#A80036;stroke-width:1.0;"/><polygon fill="#000000" points="149.843,72.4326,140.3512,71.8349,141.8127,77.5282,149.843,72.4326" style="stroke:#000000;stroke-width:1.0;"/><text fill="#000000" font-family="sans-serif" font-size="13" lengthAdjust="spacingAndGlyphs" textLength="86" x="154" y="78.9951">tem registadas</text><text fill="#000000" font-family="sans-serif" font-size="13" lengthAdjust="spacingAndGlyphs" textLength="7" x="117.8861" y="128.3309">1</text><text fill="#000000" font-family="sans-serif" font-size="13" lengthAdjust="spacingAndGlyphs" textLength="5" x="258.0941" y="90.787">*</text><!--MD5=[567db691f9836c63f305bad1024cbc66]
link Organizacao to Colaborador--><path codeLine="35" d="M372.045,62.488 C438.847,63.82 557.106,66.179 623.924,67.511 " fill="none" id="Organizacao-Colaborador" style="stroke:#A80036;stroke-width:1.0;"/><polygon fill="#000000" points="489.499,53.7755,480.5143,50.6568,480.3971,56.5335,489.499,53.7755" style="stroke:#000000;stroke-width:1.0;"/><text fill="#000000" font-family="sans-serif" font-size="13" lengthAdjust="spacingAndGlyphs" textLength="22" x="493.5" y="58.9951">tem</text><text fill="#000000" font-family="sans-serif" font-size="13" lengthAdjust="spacingAndGlyphs" textLength="7" x="379.9829" y="77.3159">1</text><text fill="#000000" font-family="sans-serif" font-size="13" lengthAdjust="spacingAndGlyphs" textLength="20" x="596.1627" y="81.9049">1..*</text><!--MD5=[567db691f9836c63f305bad1024cbc66]
link Organizacao to Colaborador--><path codeLine="36" d="M372.135,84.088 C381.85,87.578 392.1,90.6381 402,92.5 C485.863,108.2723 509.582,104.9646 594,92.5 C603.841,91.0469 614.153,88.634 623.966,85.883 " fill="none" id="Organizacao-Colaborador-1" style="stroke:#A80036;stroke-width:1.0;"/><polygon fill="#000000" points="469.4999,83.7114,460.476,80.7081,460.4341,86.5858,469.4999,83.7114" style="stroke:#000000;stroke-width:1.0;"/><text fill="#000000" font-family="sans-serif" font-size="13" lengthAdjust="spacingAndGlyphs" textLength="62" x="473.5" y="88.9951">tem gestor</text><text fill="#000000" font-family="sans-serif" font-size="13" lengthAdjust="spacingAndGlyphs" textLength="7" x="380.0861" y="102.0884">1</text><text fill="#000000" font-family="sans-serif" font-size="13" lengthAdjust="spacingAndGlyphs" textLength="7" x="609.0298" y="103.1068">1</text><!--MD5=[bcb5794e8184ce78d304f04a5beabbc0]
link Colaborador to Utilizador--><path codeLine="37" d="M725.199,81.725 C765.294,92.3937 821.334,107.3057 860.868,117.8254 " fill="none" id="Colaborador-Utilizador" style="stroke:#A80036;stroke-width:1.0;"/><polygon fill="#000000" points="764.8319,81.9615,756.8467,76.7955,755.3352,82.4757,764.8319,81.9615" style="stroke:#000000;stroke-width:1.0;"/><text fill="#000000" font-family="sans-serif" font-size="13" lengthAdjust="spacingAndGlyphs" textLength="61" x="769" y="85.9951">atua como</text><text fill="#000000" font-family="sans-serif" font-size="13" lengthAdjust="spacingAndGlyphs" textLength="22" x="733.1042" y="97.9401">0..1</text><text fill="#000000" font-family="sans-serif" font-size="13" lengthAdjust="spacingAndGlyphs" textLength="7" x="845.8853" y="130.6693">1</text><!--MD5=[49996cf4319f45f78007483382b2a228]
link Plataforma to AlgoritmoGeradorPasswords--><path codeLine="38" d="M110.114,133.2433 C181.304,139.9148 312.319,152.1928 401.993,160.5965 " fill="none" id="Plataforma-AlgoritmoGeradorPasswords" style="stroke:#00BFFF;stroke-width:1.0;"/><polygon fill="#000000" points="167.4782,128.1423,158.7468,124.3722,158.1983,130.2245,167.4782,128.1423" style="stroke:#000000;stroke-width:1.0;"/><text fill="#000000" font-family="sans-serif" font-size="13" lengthAdjust="spacingAndGlyphs" textLength="51" x="171.5" y="132.9951">recorre a</text><text fill="#000000" font-family="sans-serif" font-size="13" lengthAdjust="spacingAndGlyphs" textLength="7" x="117.8644" y="148.5667">1</text><text fill="#000000" font-family="sans-serif" font-size="13" lengthAdjust="spacingAndGlyphs" textLength="7" x="387.0635" y="174.0336">1</text><!--MD5=[4aa6a936df4ad7b844bdcf1457a2ad73]
link AlgoritmoGeradorPasswords to Utilizador--><path codeLine="39" d="M594.182,162.6512 C634.553,159.5565 682.102,155.6618 725,151.5 C771.118,147.0259 823.638,140.9118 860.638,136.4347 " fill="none" id="AlgoritmoGeradorPasswords-Utilizador" style="stroke:#00BFFF;stroke-width:1.0;"/><polygon fill="#000000" points="634.976,142.1862,625.6866,140.1471,626.2621,145.9967,634.976,142.1862" style="stroke:#000000;stroke-width:1.0;"/><text fill="#000000" font-family="sans-serif" font-size="13" lengthAdjust="spacingAndGlyphs" textLength="84" x="639" y="147.9951">gera password</text><text fill="#000000" font-family="sans-serif" font-size="13" lengthAdjust="spacingAndGlyphs" textLength="7" x="602.1254" y="176.2521">1</text><text fill="#000000" font-family="sans-serif" font-size="13" lengthAdjust="spacingAndGlyphs" textLength="5" x="848.0942" y="152.0384">*</text><!--MD5=[4c367fb62702f2a725cc450e50b14a24]
@startuml
skinparam classAttributeIconSize 0

hide methods
left to right direction

class Plataforma {
  -String designacao
}

class Organizacao {
  -String nome
  -String NIF
  -String website
  -String telefone
  -String email
}

class Colaborador {
  -String nome
  -String funcao
  -String telefone
  -String email
}

class Utilizador {
  -String nome
  -String email
  -String password
}

class AlgoritmoGeradorPasswords #DeepSkyBlue {
}

Plataforma "1" - - "*" Organizacao : tem registadas >
Organizacao "1" - - "1..*" Colaborador: tem >
Organizacao "1" - - "1" Colaborador: tem gestor >
Colaborador "0..1" - - "1" Utilizador : atua como >
Plataforma "1" - - "1" AlgoritmoGeradorPasswords #DeepSkyBlue : recorre a >
AlgoritmoGeradorPasswords "1" - - "*" Utilizador #DeepSkyBlue : gera password >

@enduml

PlantUML version 1.2020.22(Sun Dec 06 09:36:27 WET 2020)
(GPL source distribution)
Java Runtime: Java(TM) SE Runtime Environment
JVM: Java HotSpot(TM) 64-Bit Server VM
Default Encoding: Cp1252
Language: pt
Country: PT
--></g></svg>