<?xml version="1.0" encoding="UTF-8" standalone="no"?><svg xmlns="http://www.w3.org/2000/svg" xmlns:xlink="http://www.w3.org/1999/xlink" contentScriptType="application/ecmascript" contentStyleType="text/css" height="225px" preserveAspectRatio="none" style="width:930px;height:225px;" version="1.1" viewBox="0 0 930 225" width="930px" zoomAndPan="magnify"><defs><filter height="300%" id="f1qk4oy38ppa7u" width="300%" x="-1" y="-1"><feGaussianBlur result="blurOut" stdDeviation="2.0"/><feColorMatrix in="blurOut" result="blurOut2" type="matrix" values="0 0 0 0 0 0 0 0 0 0 0 0 0 0 0 0 0 0 .4 0"/><feOffset dx="4.0" dy="4.0" in="blurOut2" result="blurOut3"/><feBlend in="SourceGraphic" in2="blurOut3" mode="normal"/></filter></defs><g><!--MD5=[ecaed46f78f8cfe1e9ce18477649be18]
class Plataforma--><rect fill="#FEFECE" filter="url(#f1qk4oy38ppa7u)" height="52.9551" id="Plataforma" style="stroke: #A80036; stroke-width: 1.5;" width="114" x="6" y="85"/><ellipse cx="30" cy="101" fill="#ADD1B2" rx="11" ry="11" style="stroke: #A80036; stroke-width: 1.0;"/><path d="M32.4731,107.1431 Q31.8921,107.4419 31.2529,107.5913 Q30.6138,107.7407 29.9082,107.7407 Q27.4014,107.7407 26.0815,106.0889 Q24.7617,104.437 24.7617,101.3159 Q24.7617,98.1865 26.0815,96.5347 Q27.4014,94.8828 29.9082,94.8828 Q30.6138,94.8828 31.2612,95.0322 Q31.9087,95.1816 32.4731,95.4805 L32.4731,98.2031 Q31.8423,97.6221 31.2488,97.3523 Q30.6553,97.0825 30.0244,97.0825 Q28.6797,97.0825 27.9949,98.1492 Q27.3101,99.2158 27.3101,101.3159 Q27.3101,103.4077 27.9949,104.4744 Q28.6797,105.541 30.0244,105.541 Q30.6553,105.541 31.2488,105.2712 Q31.8423,105.0015 32.4731,104.4204 Z "/><text fill="#000000" font-family="sans-serif" font-size="12" lengthAdjust="spacingAndGlyphs" textLength="62" x="46" y="105.5352">Plataforma</text><line style="stroke: #A80036; stroke-width: 1.5;" x1="7" x2="119" y1="117" y2="117"/><text fill="#000000" font-family="sans-serif" font-size="11" lengthAdjust="spacingAndGlyphs" textLength="102" x="12" y="131.6348">-String designacao</text><!--MD5=[807977ceb130c090ed5febfb6de2bdea]
class Organizacao--><rect fill="#FEFECE" filter="url(#f1qk4oy38ppa7u)" height="104.7754" id="Organizacao" style="stroke: #A80036; stroke-width: 1.5;" width="104" x="288" y="59"/><ellipse cx="303" cy="75" fill="#ADD1B2" rx="11" ry="11" style="stroke: #A80036; stroke-width: 1.0;"/><path d="M305.4731,81.1431 Q304.8921,81.4419 304.2529,81.5913 Q303.6138,81.7407 302.9082,81.7407 Q300.4014,81.7407 299.0815,80.0889 Q297.7617,78.437 297.7617,75.3159 Q297.7617,72.1865 299.0815,70.5347 Q300.4014,68.8828 302.9082,68.8828 Q303.6138,68.8828 304.2612,69.0322 Q304.9087,69.1816 305.4731,69.4805 L305.4731,72.2031 Q304.8423,71.6221 304.2488,71.3523 Q303.6553,71.0825 303.0244,71.0825 Q301.6797,71.0825 300.9949,72.1492 Q300.3101,73.2158 300.3101,75.3159 Q300.3101,77.4077 300.9949,78.4744 Q301.6797,79.541 303.0244,79.541 Q303.6553,79.541 304.2488,79.2712 Q304.8423,79.0015 305.4731,78.4204 Z "/><text fill="#000000" font-family="sans-serif" font-size="12" lengthAdjust="spacingAndGlyphs" textLength="72" x="317" y="79.5352">Organizacao</text><line style="stroke: #A80036; stroke-width: 1.5;" x1="289" x2="391" y1="91" y2="91"/><text fill="#000000" font-family="sans-serif" font-size="11" lengthAdjust="spacingAndGlyphs" textLength="71" x="294" y="105.6348">-String nome</text><text fill="#000000" font-family="sans-serif" font-size="11" lengthAdjust="spacingAndGlyphs" textLength="58" x="294" y="118.5898">-String NIF</text><text fill="#000000" font-family="sans-serif" font-size="11" lengthAdjust="spacingAndGlyphs" textLength="81" x="294" y="131.5449">-String website</text><text fill="#000000" font-family="sans-serif" font-size="11" lengthAdjust="spacingAndGlyphs" textLength="84" x="294" y="144.5">-String telefone</text><text fill="#000000" font-family="sans-serif" font-size="11" lengthAdjust="spacingAndGlyphs" textLength="69" x="294" y="157.4551">-String email</text><!--MD5=[ac8682ea5466d223e49472789fb200d2]
class Colaborador--><rect fill="#FEFECE" filter="url(#f1qk4oy38ppa7u)" height="91.8203" id="Colaborador" style="stroke: #A80036; stroke-width: 1.5;" width="104" x="561" y="8.5"/><ellipse cx="576" cy="24.5" fill="#ADD1B2" rx="11" ry="11" style="stroke: #A80036; stroke-width: 1.0;"/><path d="M578.4731,30.6431 Q577.8921,30.9419 577.2529,31.0913 Q576.6138,31.2407 575.9082,31.2407 Q573.4014,31.2407 572.0815,29.5889 Q570.7617,27.937 570.7617,24.8159 Q570.7617,21.6865 572.0815,20.0347 Q573.4014,18.3828 575.9082,18.3828 Q576.6138,18.3828 577.2612,18.5322 Q577.9087,18.6816 578.4731,18.9805 L578.4731,21.7031 Q577.8423,21.1221 577.2488,20.8523 Q576.6553,20.5825 576.0244,20.5825 Q574.6797,20.5825 573.9949,21.6492 Q573.3101,22.7158 573.3101,24.8159 Q573.3101,26.9077 573.9949,27.9744 Q574.6797,29.041 576.0244,29.041 Q576.6553,29.041 577.2488,28.7712 Q577.8423,28.5015 578.4731,27.9204 Z "/><text fill="#000000" font-family="sans-serif" font-size="12" lengthAdjust="spacingAndGlyphs" textLength="72" x="590" y="29.0352">Colaborador</text><line style="stroke: #A80036; stroke-width: 1.5;" x1="562" x2="664" y1="40.5" y2="40.5"/><text fill="#000000" font-family="sans-serif" font-size="11" lengthAdjust="spacingAndGlyphs" textLength="71" x="567" y="55.1348">-String nome</text><text fill="#000000" font-family="sans-serif" font-size="11" lengthAdjust="spacingAndGlyphs" textLength="78" x="567" y="68.0898">-String funcao</text><text fill="#000000" font-family="sans-serif" font-size="11" lengthAdjust="spacingAndGlyphs" textLength="84" x="567" y="81.0449">-String telefone</text><text fill="#000000" font-family="sans-serif" font-size="11" lengthAdjust="spacingAndGlyphs" textLength="69" x="567" y="94">-String email</text><!--MD5=[dcda844062f930f807532403427d3023]
class EnderecoPostal--><rect fill="#FEFECE" filter="url(#f1qk4oy38ppa7u)" height="78.8652" id="EnderecoPostal" style="stroke: #A80036; stroke-width: 1.5;" width="120" x="553" y="136"/><ellipse cx="568" cy="152" fill="#ADD1B2" rx="11" ry="11" style="stroke: #A80036; stroke-width: 1.0;"/><path d="M570.4731,158.1431 Q569.8921,158.4419 569.2529,158.5913 Q568.6138,158.7407 567.9082,158.7407 Q565.4014,158.7407 564.0815,157.0889 Q562.7617,155.437 562.7617,152.3159 Q562.7617,149.1865 564.0815,147.5347 Q565.4014,145.8828 567.9082,145.8828 Q568.6138,145.8828 569.2612,146.0322 Q569.9087,146.1816 570.4731,146.4805 L570.4731,149.2031 Q569.8423,148.6221 569.2488,148.3523 Q568.6553,148.0825 568.0244,148.0825 Q566.6797,148.0825 565.9949,149.1492 Q565.3101,150.2158 565.3101,152.3159 Q565.3101,154.4077 565.9949,155.4744 Q566.6797,156.541 568.0244,156.541 Q568.6553,156.541 569.2488,156.2712 Q569.8423,156.0015 570.4731,155.4204 Z "/><text fill="#000000" font-family="sans-serif" font-size="12" lengthAdjust="spacingAndGlyphs" textLength="88" x="582" y="156.5352">EnderecoPostal</text><line style="stroke: #A80036; stroke-width: 1.5;" x1="554" x2="672" y1="168" y2="168"/><text fill="#000000" font-family="sans-serif" font-size="11" lengthAdjust="spacingAndGlyphs" textLength="66" x="559" y="182.6348">-String local</text><text fill="#000000" font-family="sans-serif" font-size="11" lengthAdjust="spacingAndGlyphs" textLength="93" x="559" y="195.5898">-String codPostal</text><text fill="#000000" font-family="sans-serif" font-size="11" lengthAdjust="spacingAndGlyphs" textLength="95" x="559" y="208.5449">-String localidade</text><!--MD5=[5dd1d6732c071e710b9290b531f2fa3b]
class Utilizador--><rect fill="#FEFECE" filter="url(#f1qk4oy38ppa7u)" height="78.8652" id="Utilizador" style="stroke: #A80036; stroke-width: 1.5;" width="105" x="814" y="15"/><ellipse cx="837.1" cy="31" fill="#ADD1B2" rx="11" ry="11" style="stroke: #A80036; stroke-width: 1.0;"/><path d="M839.5731,37.1431 Q838.9921,37.4419 838.3529,37.5913 Q837.7138,37.7407 837.0082,37.7407 Q834.5014,37.7407 833.1815,36.0889 Q831.8617,34.437 831.8617,31.3159 Q831.8617,28.1865 833.1815,26.5347 Q834.5014,24.8828 837.0082,24.8828 Q837.7138,24.8828 838.3612,25.0322 Q839.0087,25.1816 839.5731,25.4805 L839.5731,28.2031 Q838.9423,27.6221 838.3488,27.3523 Q837.7553,27.0825 837.1244,27.0825 Q835.7797,27.0825 835.0949,28.1492 Q834.4101,29.2158 834.4101,31.3159 Q834.4101,33.4077 835.0949,34.4744 Q835.7797,35.541 837.1244,35.541 Q837.7553,35.541 838.3488,35.2712 Q838.9423,35.0015 839.5731,34.4204 Z "/><text fill="#000000" font-family="sans-serif" font-size="12" lengthAdjust="spacingAndGlyphs" textLength="55" x="852.9" y="35.5352">Utilizador</text><line style="stroke: #A80036; stroke-width: 1.5;" x1="815" x2="918" y1="47" y2="47"/><text fill="#000000" font-family="sans-serif" font-size="11" lengthAdjust="spacingAndGlyphs" textLength="71" x="820" y="61.6348">-String nome</text><text fill="#000000" font-family="sans-serif" font-size="11" lengthAdjust="spacingAndGlyphs" textLength="69" x="820" y="74.5898">-String email</text><text fill="#000000" font-family="sans-serif" font-size="11" lengthAdjust="spacingAndGlyphs" textLength="93" x="820" y="87.5449">-String password</text><!--MD5=[1c2ad462e362697fcdc859a6327d55c7]
link Plataforma to Organizacao--><path d="M120.31,111.5 C169.5,111.5 240.27,111.5 287.86,111.5 " fill="none" id="Plataforma-Organizacao" style="stroke: #A80036; stroke-width: 1.0;"/><text fill="#000000" font-family="sans-serif" font-size="13" lengthAdjust="spacingAndGlyphs" textLength="93" x="151" y="108.0684">tem registadas</text><polygon fill="#000000" points="247,101.6553,253,104.6553,247,107.6553,247,101.6553" style="stroke: #000000; stroke-width: 1.0;"/><text fill="#000000" font-family="sans-serif" font-size="13" lengthAdjust="spacingAndGlyphs" textLength="8" x="128.1653" y="125.0521">1</text><text fill="#000000" font-family="sans-serif" font-size="13" lengthAdjust="spacingAndGlyphs" textLength="6" x="274.1059" y="125.1607">*</text><!--MD5=[567db691f9836c63f305bad1024cbc66]
link Organizacao to Colaborador--><path d="M392.39,99.95 C402.22,97.78 412.42,95.55 422,93.5 C468.93,83.47 522.48,72.52 560.75,64.79 " fill="none" id="Organizacao-Colaborador" style="stroke: #A80036; stroke-width: 1.0;"/><text fill="#000000" font-family="sans-serif" font-size="13" lengthAdjust="spacingAndGlyphs" textLength="24" x="454" y="70.0684">tem</text><polygon fill="#000000" points="481,63.6553,487,66.6553,481,69.6553,481,63.6553" style="stroke: #000000; stroke-width: 1.0;"/><text fill="#000000" font-family="sans-serif" font-size="13" lengthAdjust="spacingAndGlyphs" textLength="8" x="399.9674" y="112.0101">1</text><text fill="#000000" font-family="sans-serif" font-size="13" lengthAdjust="spacingAndGlyphs" textLength="22" x="531.0414" y="79.5564">1..*</text><!--MD5=[567db691f9836c63f305bad1024cbc66]
link Organizacao to Colaborador--><path d="M392.1,122.68 C429.3,128.64 480.41,132.22 523,118.5 C536.22,114.24 549.14,107.2 560.86,99.32 " fill="none" id="Organizacao-Colaborador-1" style="stroke: #A80036; stroke-width: 1.0;"/><text fill="#000000" font-family="sans-serif" font-size="13" lengthAdjust="spacingAndGlyphs" textLength="68" x="432" y="115.0684">tem gestor</text><polygon fill="#000000" points="503,108.6553,509,111.6553,503,114.6553,503,108.6553" style="stroke: #000000; stroke-width: 1.0;"/><text fill="#000000" font-family="sans-serif" font-size="13" lengthAdjust="spacingAndGlyphs" textLength="8" x="399.9891" y="137.9129">1</text><text fill="#000000" font-family="sans-serif" font-size="13" lengthAdjust="spacingAndGlyphs" textLength="8" x="544.9653" y="119.2803">1</text><!--MD5=[ca49ec1e86bb5e8c049c02c54bfc3088]
link Organizacao to EnderecoPostal--><path d="M392.17,140.74 C401.84,145.29 412.05,149.48 422,152.5 C464.61,165.42 514.67,171.12 552.7,173.61 " fill="none" id="Organizacao-EnderecoPostal" style="stroke: #A80036; stroke-width: 1.0;"/><text fill="#000000" font-family="sans-serif" font-size="13" lengthAdjust="spacingAndGlyphs" textLength="86" x="423" y="149.0684">localizada em</text><polygon fill="#000000" points="512,142.6553,518,145.6553,512,148.6553,512,142.6553" style="stroke: #000000; stroke-width: 1.0;"/><text fill="#000000" font-family="sans-serif" font-size="13" lengthAdjust="spacingAndGlyphs" textLength="8" x="400.0689" y="158.5126">1</text><text fill="#000000" font-family="sans-serif" font-size="13" lengthAdjust="spacingAndGlyphs" textLength="8" x="536.8634" y="186.8892">1</text><!--MD5=[bcb5794e8184ce78d304f04a5beabbc0]
link Colaborador to Utilizador--><path d="M665.2,54.5 C708.57,54.5 770.47,54.5 813.94,54.5 " fill="none" id="Colaborador-Utilizador" style="stroke: #A80036; stroke-width: 1.0;"/><text fill="#000000" font-family="sans-serif" font-size="13" lengthAdjust="spacingAndGlyphs" textLength="66" x="704" y="51.0684">atua como</text><polygon fill="#000000" points="773,44.6553,779,47.6553,773,50.6553,773,44.6553" style="stroke: #000000; stroke-width: 1.0;"/><text fill="#000000" font-family="sans-serif" font-size="13" lengthAdjust="spacingAndGlyphs" textLength="24" x="673.0244" y="68.0123">0..1</text><text fill="#000000" font-family="sans-serif" font-size="13" lengthAdjust="spacingAndGlyphs" textLength="8" x="797.9863" y="68.1544">1</text><!--MD5=[44e0c0a92f14deb7954dd82165fe03db]
@startuml
skinparam classAttributeIconSize 0
hide methods
left to right direction

class Plataforma {
  -String designacao
}

class Organizacao {
  -String nome
  -String NIF
  -String website
  -String telefone
  -String email
}

class Colaborador {
  -String nome
  -String funcao
  -String telefone
  -String email
}

class EnderecoPostal {
  -String local
  -String codPostal
  -String localidade
}


class Utilizador {
  -String nome
  -String email
  -String password
}


Plataforma "1" - - "*" Organizacao : tem registadas >
Organizacao "1" - - "1..*" Colaborador: tem >
Organizacao "1" - - "1" Colaborador: tem gestor >
Organizacao "1" - - "1" EnderecoPostal: localizada em >
Colaborador "0..1" - - "1" Utilizador: atua como >
@enduml

PlantUML version 1.2020.03beta6(Unknown compile time)
(GPL source distribution)
Java Runtime: OpenJDK Runtime Environment
JVM: OpenJDK 64-Bit Server VM
Java Version: 11.0.5+10-b520.38
Operating System: Mac OS X
Default Encoding: UTF-8
Language: en
Country: PT
--></g></svg>