<?xml version="1.0" encoding="UTF-8" standalone="no"?><svg xmlns="http://www.w3.org/2000/svg" xmlns:xlink="http://www.w3.org/1999/xlink" contentScriptType="application/ecmascript" contentStyleType="text/css" height="364px" preserveAspectRatio="none" style="width:735px;height:364px;" version="1.1" viewBox="0 0 735 364" width="735px" zoomAndPan="magnify"><defs><filter height="300%" id="f1y105xw8jpv4r" width="300%" x="-1" y="-1"><feGaussianBlur result="blurOut" stdDeviation="2.0"/><feColorMatrix in="blurOut" result="blurOut2" type="matrix" values="0 0 0 0 0 0 0 0 0 0 0 0 0 0 0 0 0 0 .4 0"/><feOffset dx="4.0" dy="4.0" in="blurOut2" result="blurOut3"/><feBlend in="SourceGraphic" in2="blurOut3" mode="normal"/></filter></defs><g><!--MD5=[37bf6c08f758502d5d1a5531d651ab43]
class AlgoritmoGeradorPasswords--><rect codeLine="12" fill="#FEFECE" filter="url(#f1y105xw8jpv4r)" height="62.0234" id="AlgoritmoGeradorPasswords" style="stroke:#A80036;stroke-width:1.5;" width="247" x="245.5" y="12.5"/><ellipse cx="286.6" cy="32.5938" fill="#B4A7E5" rx="11" ry="11" style="stroke:#A80036;stroke-width:1.0;"/><path d="M287.5531,29.2344 L287.5531,35.8906 L289.2719,35.8906 Q289.8813,35.8906 290.1469,36.125 Q290.4125,36.3594 290.4125,36.75 Q290.4125,37.125 290.1469,37.3594 Q289.8813,37.5938 289.2719,37.5938 L284.1313,37.5938 Q283.5219,37.5938 283.2563,37.3594 Q282.9906,37.125 282.9906,36.7344 Q282.9906,36.3594 283.2563,36.125 Q283.5219,35.8906 284.1313,35.8906 L285.85,35.8906 L285.85,29.2344 L284.1313,29.2344 Q283.5219,29.2344 283.2563,29 Q282.9906,28.7656 282.9906,28.375 Q282.9906,28 283.2563,27.7656 Q283.5219,27.5313 284.1313,27.5313 L289.2719,27.5313 Q289.8813,27.5313 290.1469,27.7656 Q290.4125,28 290.4125,28.375 Q290.4125,28.7656 290.1469,29 Q289.8813,29.2344 289.2719,29.2344 L287.5531,29.2344 Z " fill="#000000"/><text fill="#000000" font-family="sans-serif" font-size="12" font-style="italic" lengthAdjust="spacingAndGlyphs" textLength="61" x="354.4" y="29.957">«interface»</text><text fill="#000000" font-family="sans-serif" font-size="12" font-style="italic" lengthAdjust="spacingAndGlyphs" textLength="157" x="306.4" y="45.0508">AlgoritmoGeradorPasswords</text><line style="stroke:#A80036;stroke-width:1.5;" x1="246.5" x2="491.5" y1="52.6875" y2="52.6875"/><text fill="#000000" font-family="sans-serif" font-size="11" lengthAdjust="spacingAndGlyphs" textLength="235" x="251.5" y="68.1064">+String geraPassword(String nome, String email)</text><path d="M6,6 L6,81.4063 A0,0 0 0 0 6,81.4063 L210,81.4063 A0,0 0 0 0 210,81.4063 L210,47.5 L245.254,43.5 L210,39.5 L210,16 L200,6 L6,6 A0,0 0 0 0 6,6 " fill="#FBFB77" filter="url(#f1y105xw8jpv4r)" style="stroke:#A80036;stroke-width:1.0;"/><path d="M200,6 L200,16 L210,16 L200,6 " fill="#FBFB77" style="stroke:#A80036;stroke-width:1.0;"/><text fill="#000000" font-family="sans-serif" font-size="13" lengthAdjust="spacingAndGlyphs" textLength="135" x="12" y="24.4951">Esta interface será alvo</text><text fill="#000000" font-family="sans-serif" font-size="13" lengthAdjust="spacingAndGlyphs" textLength="173" x="12" y="40.8467">de multiplas implementações,</text><text fill="#000000" font-family="sans-serif" font-size="13" lengthAdjust="spacingAndGlyphs" textLength="183" x="12" y="57.1982">uma por cada algoritmo externo</text><text fill="#000000" font-family="sans-serif" font-size="13" lengthAdjust="spacingAndGlyphs" textLength="169" x="12" y="73.5498">que tenha que ser suportado.</text><!--MD5=[6e5ff9fcfeb9f23a1698ee53d76f3e0c]
class AlgoritmoGeradorPasswordsAdapter1--><rect codeLine="18" fill="#FEFECE" filter="url(#f1y105xw8jpv4r)" height="53.8359" id="AlgoritmoGeradorPasswordsAdapter1" style="stroke:#A80036;stroke-width:1.5;" width="247" x="84.5" y="141"/><ellipse cx="102.2" cy="157" fill="#ADD1B2" rx="11" ry="11" style="stroke:#A80036;stroke-width:1.0;"/><path d="M104.9656,152.875 Q105.1219,152.6563 105.3094,152.5469 Q105.4969,152.4375 105.7156,152.4375 Q106.0906,152.4375 106.325,152.7031 Q106.5594,152.9531 106.5594,153.5625 L106.5594,155.0156 Q106.5594,155.625 106.325,155.8906 Q106.0906,156.1563 105.7156,156.1563 Q105.3719,156.1563 105.1688,155.9531 Q104.9656,155.7656 104.8563,155.25 Q104.8094,154.8906 104.6219,154.7031 Q104.2938,154.3281 103.6844,154.1094 Q103.075,153.8906 102.45,153.8906 Q101.6844,153.8906 101.0438,154.2188 Q100.4188,154.5469 99.9188,155.2969 Q99.4344,156.0469 99.4344,157.0781 L99.4344,158.1719 Q99.4344,159.4063 100.325,160.2344 Q101.2156,161.0469 102.8094,161.0469 Q103.7469,161.0469 104.4031,160.7969 Q104.7938,160.6406 105.2156,160.2031 Q105.4813,159.9375 105.6219,159.8594 Q105.7781,159.7813 105.9813,159.7813 Q106.3094,159.7813 106.5594,160.0469 Q106.825,160.2969 106.825,160.6406 Q106.825,160.9844 106.4813,161.3906 Q105.9813,161.9688 105.1844,162.2969 Q104.1063,162.75 102.8094,162.75 Q101.2938,162.75 100.0906,162.125 Q99.1063,161.625 98.4188,160.5625 Q97.7313,159.4844 97.7313,158.2031 L97.7313,157.0469 Q97.7313,155.7188 98.3406,154.5781 Q98.9656,153.4219 100.0594,152.8125 Q101.1531,152.1875 102.3875,152.1875 Q103.1219,152.1875 103.7625,152.3594 Q104.4188,152.5156 104.9656,152.875 Z " fill="#000000"/><text fill="#000000" font-family="sans-serif" font-size="12" lengthAdjust="spacingAndGlyphs" textLength="209" x="116.8" y="161.9102">AlgoritmoGeradorPasswordsAdapter1</text><line style="stroke:#A80036;stroke-width:1.5;" x1="85.5" x2="330.5" y1="173" y2="173"/><text fill="#000000" font-family="sans-serif" font-size="11" lengthAdjust="spacingAndGlyphs" textLength="235" x="90.5" y="188.4189">+String geraPassword(String nome, String email)</text><!--MD5=[9615d04c2893a05b5bb041ad0e724e2b]
class AlgoritmoExterno1API--><rect codeLine="23" fill="#FEFECE" filter="url(#f1y105xw8jpv4r)" height="67.6719" id="AlgoritmoExterno1API" style="stroke:#A80036;stroke-width:1.5;" width="315" x="30.5" y="268.5"/><ellipse cx="124.75" cy="284.5" fill="#ADD1B2" rx="11" ry="11" style="stroke:#A80036;stroke-width:1.0;"/><path d="M127.5156,280.375 Q127.6719,280.1563 127.8594,280.0469 Q128.0469,279.9375 128.2656,279.9375 Q128.6406,279.9375 128.875,280.2031 Q129.1094,280.4531 129.1094,281.0625 L129.1094,282.5156 Q129.1094,283.125 128.875,283.3906 Q128.6406,283.6563 128.2656,283.6563 Q127.9219,283.6563 127.7188,283.4531 Q127.5156,283.2656 127.4063,282.75 Q127.3594,282.3906 127.1719,282.2031 Q126.8438,281.8281 126.2344,281.6094 Q125.625,281.3906 125,281.3906 Q124.2344,281.3906 123.5938,281.7188 Q122.9688,282.0469 122.4688,282.7969 Q121.9844,283.5469 121.9844,284.5781 L121.9844,285.6719 Q121.9844,286.9063 122.875,287.7344 Q123.7656,288.5469 125.3594,288.5469 Q126.2969,288.5469 126.9531,288.2969 Q127.3438,288.1406 127.7656,287.7031 Q128.0313,287.4375 128.1719,287.3594 Q128.3281,287.2813 128.5313,287.2813 Q128.8594,287.2813 129.1094,287.5469 Q129.375,287.7969 129.375,288.1406 Q129.375,288.4844 129.0313,288.8906 Q128.5313,289.4688 127.7344,289.7969 Q126.6563,290.25 125.3594,290.25 Q123.8438,290.25 122.6406,289.625 Q121.6563,289.125 120.9688,288.0625 Q120.2813,286.9844 120.2813,285.7031 L120.2813,284.5469 Q120.2813,283.2188 120.8906,282.0781 Q121.5156,280.9219 122.6094,280.3125 Q123.7031,279.6875 124.9375,279.6875 Q125.6719,279.6875 126.3125,279.8594 Q126.9688,280.0156 127.5156,280.375 Z " fill="#000000"/><text fill="#000000" font-family="sans-serif" font-size="12" lengthAdjust="spacingAndGlyphs" textLength="118" x="145.25" y="289.4102">AlgoritmoExterno1API</text><line style="stroke:#A80036;stroke-width:1.5;" x1="31.5" x2="344.5" y1="300.5" y2="300.5"/><text fill="#000000" font-family="sans-serif" font-size="11" lengthAdjust="spacingAndGlyphs" textLength="131" x="36.5" y="315.9189">+String randomPassword()</text><text fill="#000000" font-family="sans-serif" font-size="11" lengthAdjust="spacingAndGlyphs" textLength="303" x="36.5" y="329.7549">+String randomPassword(Integer minChars, Integer maxChars)</text><!--MD5=[98fff984016099dc1d2cdb7554a63110]
class AlgoritmoGeradorPasswordsAdapter2--><rect codeLine="32" fill="#FEFECE" filter="url(#f1y105xw8jpv4r)" height="53.8359" id="AlgoritmoGeradorPasswordsAdapter2" style="stroke:#A80036;stroke-width:1.5;" width="247" x="406.5" y="141"/><ellipse cx="424.2" cy="157" fill="#ADD1B2" rx="11" ry="11" style="stroke:#A80036;stroke-width:1.0;"/><path d="M426.9656,152.875 Q427.1219,152.6563 427.3094,152.5469 Q427.4969,152.4375 427.7156,152.4375 Q428.0906,152.4375 428.325,152.7031 Q428.5594,152.9531 428.5594,153.5625 L428.5594,155.0156 Q428.5594,155.625 428.325,155.8906 Q428.0906,156.1563 427.7156,156.1563 Q427.3719,156.1563 427.1688,155.9531 Q426.9656,155.7656 426.8563,155.25 Q426.8094,154.8906 426.6219,154.7031 Q426.2938,154.3281 425.6844,154.1094 Q425.075,153.8906 424.45,153.8906 Q423.6844,153.8906 423.0438,154.2188 Q422.4188,154.5469 421.9188,155.2969 Q421.4344,156.0469 421.4344,157.0781 L421.4344,158.1719 Q421.4344,159.4063 422.325,160.2344 Q423.2156,161.0469 424.8094,161.0469 Q425.7469,161.0469 426.4031,160.7969 Q426.7938,160.6406 427.2156,160.2031 Q427.4813,159.9375 427.6219,159.8594 Q427.7781,159.7813 427.9813,159.7813 Q428.3094,159.7813 428.5594,160.0469 Q428.825,160.2969 428.825,160.6406 Q428.825,160.9844 428.4813,161.3906 Q427.9813,161.9688 427.1844,162.2969 Q426.1063,162.75 424.8094,162.75 Q423.2938,162.75 422.0906,162.125 Q421.1063,161.625 420.4188,160.5625 Q419.7313,159.4844 419.7313,158.2031 L419.7313,157.0469 Q419.7313,155.7188 420.3406,154.5781 Q420.9656,153.4219 422.0594,152.8125 Q423.1531,152.1875 424.3875,152.1875 Q425.1219,152.1875 425.7625,152.3594 Q426.4188,152.5156 426.9656,152.875 Z " fill="#000000"/><text fill="#000000" font-family="sans-serif" font-size="12" lengthAdjust="spacingAndGlyphs" textLength="209" x="438.8" y="161.9102">AlgoritmoGeradorPasswordsAdapter2</text><line style="stroke:#A80036;stroke-width:1.5;" x1="407.5" x2="652.5" y1="173" y2="173"/><text fill="#000000" font-family="sans-serif" font-size="11" lengthAdjust="spacingAndGlyphs" textLength="235" x="412.5" y="188.4189">+String geraPassword(String nome, String email)</text><!--MD5=[c78e3215a40d9e9433c5db1a316bbc7c]
class AlgoritmoExterno2API--><rect codeLine="37" fill="#FEFECE" filter="url(#f1y105xw8jpv4r)" height="95.3438" id="AlgoritmoExterno2API" style="stroke:#A80036;stroke-width:1.5;" width="340" x="381" y="255"/><ellipse cx="487.75" cy="271" fill="#ADD1B2" rx="11" ry="11" style="stroke:#A80036;stroke-width:1.0;"/><path d="M490.5156,266.875 Q490.6719,266.6563 490.8594,266.5469 Q491.0469,266.4375 491.2656,266.4375 Q491.6406,266.4375 491.875,266.7031 Q492.1094,266.9531 492.1094,267.5625 L492.1094,269.0156 Q492.1094,269.625 491.875,269.8906 Q491.6406,270.1563 491.2656,270.1563 Q490.9219,270.1563 490.7188,269.9531 Q490.5156,269.7656 490.4063,269.25 Q490.3594,268.8906 490.1719,268.7031 Q489.8438,268.3281 489.2344,268.1094 Q488.625,267.8906 488,267.8906 Q487.2344,267.8906 486.5938,268.2188 Q485.9688,268.5469 485.4688,269.2969 Q484.9844,270.0469 484.9844,271.0781 L484.9844,272.1719 Q484.9844,273.4063 485.875,274.2344 Q486.7656,275.0469 488.3594,275.0469 Q489.2969,275.0469 489.9531,274.7969 Q490.3438,274.6406 490.7656,274.2031 Q491.0313,273.9375 491.1719,273.8594 Q491.3281,273.7813 491.5313,273.7813 Q491.8594,273.7813 492.1094,274.0469 Q492.375,274.2969 492.375,274.6406 Q492.375,274.9844 492.0313,275.3906 Q491.5313,275.9688 490.7344,276.2969 Q489.6563,276.75 488.3594,276.75 Q486.8438,276.75 485.6406,276.125 Q484.6563,275.625 483.9688,274.5625 Q483.2813,273.4844 483.2813,272.2031 L483.2813,271.0469 Q483.2813,269.7188 483.8906,268.5781 Q484.5156,267.4219 485.6094,266.8125 Q486.7031,266.1875 487.9375,266.1875 Q488.6719,266.1875 489.3125,266.3594 Q489.9688,266.5156 490.5156,266.875 Z " fill="#000000"/><text fill="#000000" font-family="sans-serif" font-size="12" lengthAdjust="spacingAndGlyphs" textLength="118" x="508.25" y="275.9102">AlgoritmoExterno2API</text><line style="stroke:#A80036;stroke-width:1.5;" x1="382" x2="720" y1="287" y2="287"/><text fill="#000000" font-family="sans-serif" font-size="11" lengthAdjust="spacingAndGlyphs" textLength="160" x="387" y="302.4189">+Password generatePassword()</text><text fill="#000000" font-family="sans-serif" font-size="11" lengthAdjust="spacingAndGlyphs" textLength="242" x="387" y="316.2549">+Password generatePassword(String feedChars)</text><text fill="#000000" font-family="sans-serif" font-size="11" lengthAdjust="spacingAndGlyphs" textLength="240" x="387" y="330.0908">+Paswword generatePassword(Integer strength)</text><text fill="#000000" font-family="sans-serif" font-size="11" lengthAdjust="spacingAndGlyphs" textLength="328" x="387" y="343.9268">+Paswword generatePassword(Integer strength, String feedChars)</text><!--MD5=[3b4c874dbb4796ab835c6ebf706faa50]
reverse link AlgoritmoGeradorPasswords to AlgoritmoGeradorPasswordsAdapter1--><path codeLine="29" d="M313.145,86.999 C289.627,104.893 263.003,125.15 242.43,140.803 " fill="none" id="AlgoritmoGeradorPasswords-backto-AlgoritmoGeradorPasswordsAdapter1" style="stroke:#A80036;stroke-width:1.0;stroke-dasharray:7.0,7.0;"/><polygon fill="none" points="309.047,81.321,329.202,74.781,317.524,92.462,309.047,81.321" style="stroke:#A80036;stroke-width:1.0;"/><!--MD5=[864624d3236818d5e14622be9624e107]
link AlgoritmoGeradorPasswordsAdapter1 to AlgoritmoExterno1API--><path codeLine="30" d="M204.049,195.178 C201.119,214.588 197.079,241.35 193.786,263.1674 " fill="none" id="AlgoritmoGeradorPasswordsAdapter1-to-AlgoritmoExterno1API" style="stroke:#A80036;stroke-width:1.0;"/><polygon fill="#A80036" points="193.009,268.3131,198.3074,260.0109,193.7552,263.3691,190.397,258.8169,193.009,268.3131" style="stroke:#A80036;stroke-width:1.0;"/><!--MD5=[aea5d5f858740067ee7f45dfccd9fbdf]
reverse link AlgoritmoGeradorPasswords to AlgoritmoGeradorPasswordsAdapter2--><path codeLine="45" d="M424.855,86.999 C448.373,104.893 474.997,125.15 495.57,140.803 " fill="none" id="AlgoritmoGeradorPasswords-backto-AlgoritmoGeradorPasswordsAdapter2" style="stroke:#A80036;stroke-width:1.0;stroke-dasharray:7.0,7.0;"/><polygon fill="none" points="420.476,92.462,408.798,74.781,428.953,81.321,420.476,92.462" style="stroke:#A80036;stroke-width:1.0;"/><!--MD5=[46349dc8cff6f25e516fc073b0e7ddd9]
link AlgoritmoGeradorPasswordsAdapter2 to AlgoritmoExterno2API--><path codeLine="46" d="M534.149,195.178 C536.618,210.758 539.838,231.074 542.801,249.768 " fill="none" id="AlgoritmoGeradorPasswordsAdapter2-to-AlgoritmoExterno2API" style="stroke:#A80036;stroke-width:1.0;"/><polygon fill="#A80036" points="543.629,254.9921,546.1714,245.477,542.8466,250.0537,538.27,246.7289,543.629,254.9921" style="stroke:#A80036;stroke-width:1.0;"/><!--MD5=[deeb35eb628b3d1e1b145bb77af26c58]
@startuml

skinparam classAttributeIconSize 0
hide attributes

note left of AlgoritmoGeradorPasswords
Esta interface será alvo
de multiplas implementações,
uma por cada algoritmo externo
que tenha que ser suportado.
end note

interface AlgoritmoGeradorPasswords << interface >>
{
 +String geraPassword(String nome, String email)
}


class AlgoritmoGeradorPasswordsAdapter1
{
+String geraPassword(String nome, String email)
}

class AlgoritmoExterno1API
{
    +String randomPassword()
    +String randomPassword(Integer minChars, Integer maxChars)
}

AlgoritmoGeradorPasswords <|.. AlgoritmoGeradorPasswordsAdapter1
AlgoritmoGeradorPasswordsAdapter1 -d->  AlgoritmoExterno1API

class AlgoritmoGeradorPasswordsAdapter2
{
+String geraPassword(String nome, String email)
}

class AlgoritmoExterno2API
{
    +Password generatePassword()
    +Password generatePassword(String feedChars)
    +Paswword generatePassword(Integer strength)
    +Paswword generatePassword(Integer strength, String feedChars)
}

AlgoritmoGeradorPasswords <|.. AlgoritmoGeradorPasswordsAdapter2
AlgoritmoGeradorPasswordsAdapter2 -d->  AlgoritmoExterno2API


@enduml

PlantUML version 1.2020.22(Sun Dec 06 09:36:27 WET 2020)
(GPL source distribution)
Java Runtime: Java(TM) SE Runtime Environment
JVM: Java HotSpot(TM) 64-Bit Server VM
Default Encoding: Cp1252
Language: pt
Country: PT
--></g></svg>