<?xml version="1.0" encoding="UTF-8" standalone="no"?><svg xmlns="http://www.w3.org/2000/svg" xmlns:xlink="http://www.w3.org/1999/xlink" contentScriptType="application/ecmascript" contentStyleType="text/css" height="871px" preserveAspectRatio="none" style="width:1240px;height:871px;" version="1.1" viewBox="0 0 1240 871" width="1240px" zoomAndPan="magnify"><defs><filter height="300%" id="fej653i8v201i" width="300%" x="-1" y="-1"><feGaussianBlur result="blurOut" stdDeviation="2.0"/><feColorMatrix in="blurOut" result="blurOut2" type="matrix" values="0 0 0 0 0 0 0 0 0 0 0 0 0 0 0 0 0 0 .4 0"/><feOffset dx="4.0" dy="4.0" in="blurOut2" result="blurOut3"/><feBlend in="SourceGraphic" in2="blurOut3" mode="normal"/></filter></defs><g><!--MD5=[ac8682ea5466d223e49472789fb200d2]
class Colaborador--><rect codeLine="3" fill="#FEFECE" filter="url(#fej653i8v201i)" height="144.8516" id="Colaborador" style="stroke:#A80036;stroke-width:1.5;" width="190" x="172" y="713"/><ellipse cx="228.25" cy="729" fill="#ADD1B2" rx="11" ry="11" style="stroke:#A80036;stroke-width:1.0;"/><path d="M231.0156,724.875 Q231.1719,724.6563 231.3594,724.5469 Q231.5469,724.4375 231.7656,724.4375 Q232.1406,724.4375 232.375,724.7031 Q232.6094,724.9531 232.6094,725.5625 L232.6094,727.0156 Q232.6094,727.625 232.375,727.8906 Q232.1406,728.1563 231.7656,728.1563 Q231.4219,728.1563 231.2188,727.9531 Q231.0156,727.7656 230.9063,727.25 Q230.8594,726.8906 230.6719,726.7031 Q230.3438,726.3281 229.7344,726.1094 Q229.125,725.8906 228.5,725.8906 Q227.7344,725.8906 227.0938,726.2188 Q226.4688,726.5469 225.9688,727.2969 Q225.4844,728.0469 225.4844,729.0781 L225.4844,730.1719 Q225.4844,731.4063 226.375,732.2344 Q227.2656,733.0469 228.8594,733.0469 Q229.7969,733.0469 230.4531,732.7969 Q230.8438,732.6406 231.2656,732.2031 Q231.5313,731.9375 231.6719,731.8594 Q231.8281,731.7813 232.0313,731.7813 Q232.3594,731.7813 232.6094,732.0469 Q232.875,732.2969 232.875,732.6406 Q232.875,732.9844 232.5313,733.3906 Q232.0313,733.9688 231.2344,734.2969 Q230.1563,734.75 228.8594,734.75 Q227.3438,734.75 226.1406,734.125 Q225.1563,733.625 224.4688,732.5625 Q223.7813,731.4844 223.7813,730.2031 L223.7813,729.0469 Q223.7813,727.7188 224.3906,726.5781 Q225.0156,725.4219 226.1094,724.8125 Q227.2031,724.1875 228.4375,724.1875 Q229.1719,724.1875 229.8125,724.3594 Q230.4688,724.5156 231.0156,724.875 Z " fill="#000000"/><text fill="#000000" font-family="sans-serif" font-size="12" lengthAdjust="spacing" textLength="69" x="248.75" y="733.9102">Colaborador</text><line style="stroke:#A80036;stroke-width:1.5;" x1="173" x2="361" y1="745" y2="745"/><text fill="#000000" font-family="sans-serif" font-size="11" lengthAdjust="spacing" textLength="61" x="178" y="760.4189">-String nome</text><text fill="#000000" font-family="sans-serif" font-size="11" lengthAdjust="spacing" textLength="69" x="178" y="774.2549">-String funcao</text><text fill="#000000" font-family="sans-serif" font-size="11" lengthAdjust="spacing" textLength="74" x="178" y="788.0908">-String telefone</text><text fill="#000000" font-family="sans-serif" font-size="11" lengthAdjust="spacing" textLength="59" x="178" y="801.9268">-String email</text><line style="stroke:#A80036;stroke-width:1.5;" x1="173" x2="361" y1="808.3438" y2="808.3438"/><text fill="#000000" font-family="sans-serif" font-size="11" lengthAdjust="spacing" textLength="178" x="178" y="823.7627">+Colaborador(nome,função,tlf, email)</text><text fill="#000000" font-family="sans-serif" font-size="11" lengthAdjust="spacing" textLength="87" x="178" y="837.5986">+String getNome()</text><text fill="#000000" font-family="sans-serif" font-size="11" lengthAdjust="spacing" textLength="84" x="178" y="851.4346">+String getEmail()</text><!--MD5=[dcda844062f930f807532403427d3023]
class EnderecoPostal--><rect codeLine="13" fill="#FEFECE" filter="url(#fej653i8v201i)" height="103.3438" id="EnderecoPostal" style="stroke:#A80036;stroke-width:1.5;" width="224" x="665" y="734"/><ellipse cx="728.75" cy="750" fill="#ADD1B2" rx="11" ry="11" style="stroke:#A80036;stroke-width:1.0;"/><path d="M731.5156,745.875 Q731.6719,745.6563 731.8594,745.5469 Q732.0469,745.4375 732.2656,745.4375 Q732.6406,745.4375 732.875,745.7031 Q733.1094,745.9531 733.1094,746.5625 L733.1094,748.0156 Q733.1094,748.625 732.875,748.8906 Q732.6406,749.1563 732.2656,749.1563 Q731.9219,749.1563 731.7188,748.9531 Q731.5156,748.7656 731.4063,748.25 Q731.3594,747.8906 731.1719,747.7031 Q730.8438,747.3281 730.2344,747.1094 Q729.625,746.8906 729,746.8906 Q728.2344,746.8906 727.5938,747.2188 Q726.9688,747.5469 726.4688,748.2969 Q725.9844,749.0469 725.9844,750.0781 L725.9844,751.1719 Q725.9844,752.4063 726.875,753.2344 Q727.7656,754.0469 729.3594,754.0469 Q730.2969,754.0469 730.9531,753.7969 Q731.3438,753.6406 731.7656,753.2031 Q732.0313,752.9375 732.1719,752.8594 Q732.3281,752.7813 732.5313,752.7813 Q732.8594,752.7813 733.1094,753.0469 Q733.375,753.2969 733.375,753.6406 Q733.375,753.9844 733.0313,754.3906 Q732.5313,754.9688 731.7344,755.2969 Q730.6563,755.75 729.3594,755.75 Q727.8438,755.75 726.6406,755.125 Q725.6563,754.625 724.9688,753.5625 Q724.2813,752.4844 724.2813,751.2031 L724.2813,750.0469 Q724.2813,748.7188 724.8906,747.5781 Q725.5156,746.4219 726.6094,745.8125 Q727.7031,745.1875 728.9375,745.1875 Q729.6719,745.1875 730.3125,745.3594 Q730.9688,745.5156 731.5156,745.875 Z " fill="#000000"/><text fill="#000000" font-family="sans-serif" font-size="12" lengthAdjust="spacing" textLength="88" x="749.25" y="754.9102">EnderecoPostal</text><line style="stroke:#A80036;stroke-width:1.5;" x1="666" x2="888" y1="766" y2="766"/><text fill="#000000" font-family="sans-serif" font-size="11" lengthAdjust="spacing" textLength="57" x="671" y="781.4189">-String local</text><text fill="#000000" font-family="sans-serif" font-size="11" lengthAdjust="spacing" textLength="82" x="671" y="795.2549">-String codPostal</text><text fill="#000000" font-family="sans-serif" font-size="11" lengthAdjust="spacing" textLength="83" x="671" y="809.0908">-String localidade</text><line style="stroke:#A80036;stroke-width:1.5;" x1="666" x2="888" y1="815.5078" y2="815.5078"/><text fill="#000000" font-family="sans-serif" font-size="11" lengthAdjust="spacing" textLength="212" x="671" y="830.9268">+EnderecoPostal(local,codPostal,localidade)</text><!--MD5=[807977ceb130c090ed5febfb6de2bdea]
class Organizacao--><rect codeLine="20" fill="#FEFECE" filter="url(#fej653i8v201i)" height="158.6875" id="Organizacao" style="stroke:#A80036;stroke-width:1.5;" width="392" x="7" y="476"/><ellipse cx="164.25" cy="492" fill="#ADD1B2" rx="11" ry="11" style="stroke:#A80036;stroke-width:1.0;"/><path d="M167.0156,487.875 Q167.1719,487.6563 167.3594,487.5469 Q167.5469,487.4375 167.7656,487.4375 Q168.1406,487.4375 168.375,487.7031 Q168.6094,487.9531 168.6094,488.5625 L168.6094,490.0156 Q168.6094,490.625 168.375,490.8906 Q168.1406,491.1563 167.7656,491.1563 Q167.4219,491.1563 167.2188,490.9531 Q167.0156,490.7656 166.9063,490.25 Q166.8594,489.8906 166.6719,489.7031 Q166.3438,489.3281 165.7344,489.1094 Q165.125,488.8906 164.5,488.8906 Q163.7344,488.8906 163.0938,489.2188 Q162.4688,489.5469 161.9688,490.2969 Q161.4844,491.0469 161.4844,492.0781 L161.4844,493.1719 Q161.4844,494.4063 162.375,495.2344 Q163.2656,496.0469 164.8594,496.0469 Q165.7969,496.0469 166.4531,495.7969 Q166.8438,495.6406 167.2656,495.2031 Q167.5313,494.9375 167.6719,494.8594 Q167.8281,494.7813 168.0313,494.7813 Q168.3594,494.7813 168.6094,495.0469 Q168.875,495.2969 168.875,495.6406 Q168.875,495.9844 168.5313,496.3906 Q168.0313,496.9688 167.2344,497.2969 Q166.1563,497.75 164.8594,497.75 Q163.3438,497.75 162.1406,497.125 Q161.1563,496.625 160.4688,495.5625 Q159.7813,494.4844 159.7813,493.2031 L159.7813,492.0469 Q159.7813,490.7188 160.3906,489.5781 Q161.0156,488.4219 162.1094,487.8125 Q163.2031,487.1875 164.4375,487.1875 Q165.1719,487.1875 165.8125,487.3594 Q166.4688,487.5156 167.0156,487.875 Z " fill="#000000"/><text fill="#000000" font-family="sans-serif" font-size="12" lengthAdjust="spacing" textLength="69" x="184.75" y="496.9102">Organizacao</text><line style="stroke:#A80036;stroke-width:1.5;" x1="8" x2="398" y1="508" y2="508"/><text fill="#000000" font-family="sans-serif" font-size="11" lengthAdjust="spacing" textLength="61" x="13" y="523.4189">-String nome</text><text fill="#000000" font-family="sans-serif" font-size="11" lengthAdjust="spacing" textLength="50" x="13" y="537.2549">-String NIF</text><text fill="#000000" font-family="sans-serif" font-size="11" lengthAdjust="spacing" textLength="74" x="13" y="551.0908">-String website</text><text fill="#000000" font-family="sans-serif" font-size="11" lengthAdjust="spacing" textLength="74" x="13" y="564.9268">-String telefone</text><text fill="#000000" font-family="sans-serif" font-size="11" lengthAdjust="spacing" textLength="59" x="13" y="578.7627">-String email</text><line style="stroke:#A80036;stroke-width:1.5;" x1="8" x2="398" y1="585.1797" y2="585.1797"/><text fill="#000000" font-family="sans-serif" font-size="11" lengthAdjust="spacing" textLength="380" x="13" y="600.5986">+Organizacao(nome, NIF,webSite,telefone, email,endereco,gestorColaborador)</text><text fill="#000000" font-family="sans-serif" font-size="11" lengthAdjust="spacing" text-decoration="underline" textLength="285" x="13" y="614.4346">+EnderecoPostal novoEndereco(local,codPostal,localidade)</text><text fill="#000000" font-family="sans-serif" font-size="11" lengthAdjust="spacing" text-decoration="underline" textLength="264" x="13" y="628.2705">+Colaborador novoColaborador(nome,funcao,tlf, email)</text><!--MD5=[ecaed46f78f8cfe1e9ce18477649be18]
class Plataforma--><rect codeLine="31" fill="#FEFECE" filter="url(#fej653i8v201i)" height="103.3438" id="Plataforma" style="stroke:#A80036;stroke-width:1.5;" width="292" x="934" y="274"/><ellipse cx="1045.75" cy="290" fill="#ADD1B2" rx="11" ry="11" style="stroke:#A80036;stroke-width:1.0;"/><path d="M1048.5156,285.875 Q1048.6719,285.6563 1048.8594,285.5469 Q1049.0469,285.4375 1049.2656,285.4375 Q1049.6406,285.4375 1049.875,285.7031 Q1050.1094,285.9531 1050.1094,286.5625 L1050.1094,288.0156 Q1050.1094,288.625 1049.875,288.8906 Q1049.6406,289.1563 1049.2656,289.1563 Q1048.9219,289.1563 1048.7188,288.9531 Q1048.5156,288.7656 1048.4063,288.25 Q1048.3594,287.8906 1048.1719,287.7031 Q1047.8438,287.3281 1047.2344,287.1094 Q1046.625,286.8906 1046,286.8906 Q1045.2344,286.8906 1044.5938,287.2188 Q1043.9688,287.5469 1043.4688,288.2969 Q1042.9844,289.0469 1042.9844,290.0781 L1042.9844,291.1719 Q1042.9844,292.4063 1043.875,293.2344 Q1044.7656,294.0469 1046.3594,294.0469 Q1047.2969,294.0469 1047.9531,293.7969 Q1048.3438,293.6406 1048.7656,293.2031 Q1049.0313,292.9375 1049.1719,292.8594 Q1049.3281,292.7813 1049.5313,292.7813 Q1049.8594,292.7813 1050.1094,293.0469 Q1050.375,293.2969 1050.375,293.6406 Q1050.375,293.9844 1050.0313,294.3906 Q1049.5313,294.9688 1048.7344,295.2969 Q1047.6563,295.75 1046.3594,295.75 Q1044.8438,295.75 1043.6406,295.125 Q1042.6563,294.625 1041.9688,293.5625 Q1041.2813,292.4844 1041.2813,291.2031 L1041.2813,290.0469 Q1041.2813,288.7188 1041.8906,287.5781 Q1042.5156,286.4219 1043.6094,285.8125 Q1044.7031,285.1875 1045.9375,285.1875 Q1046.6719,285.1875 1047.3125,285.3594 Q1047.9688,285.5156 1048.5156,285.875 Z " fill="#000000"/><text fill="#000000" font-family="sans-serif" font-size="12" lengthAdjust="spacing" textLength="60" x="1066.25" y="294.9102">Plataforma</text><line style="stroke:#A80036;stroke-width:1.5;" x1="935" x2="1225" y1="306" y2="306"/><text fill="#000000" font-family="sans-serif" font-size="11" lengthAdjust="spacing" textLength="91" x="940" y="321.4189">-String designacao</text><line style="stroke:#A80036;stroke-width:1.5;" x1="935" x2="1225" y1="327.8359" y2="327.8359"/><text fill="#000000" font-family="sans-serif" font-size="11" lengthAdjust="spacing" textLength="240" x="940" y="343.2549">+RegistoOrganizacoes getRegistoOrganizacoes()</text><text fill="#000000" font-family="sans-serif" font-size="11" lengthAdjust="spacing" textLength="222" x="940" y="357.0908">+AutorizacaoFacade getAutorizacaoFacade()</text><text fill="#000000" font-family="sans-serif" font-size="11" lengthAdjust="spacing" textLength="280" x="940" y="370.9268">+AlgoritmoGeradorPasswords getAlgoritmoGeradorPwd()</text><!--MD5=[548bd8e9f0dc9261535ca7b7174ac939]
class RegistoOrganizacoes--><rect codeLine="38" fill="#FEFECE" filter="url(#fej653i8v201i)" height="144.8516" id="RegistoOrganizacoes" style="stroke:#A80036;stroke-width:1.5;" width="336" x="563" y="253"/><ellipse cx="667.25" cy="269" fill="#ADD1B2" rx="11" ry="11" style="stroke:#A80036;stroke-width:1.0;"/><path d="M670.0156,264.875 Q670.1719,264.6563 670.3594,264.5469 Q670.5469,264.4375 670.7656,264.4375 Q671.1406,264.4375 671.375,264.7031 Q671.6094,264.9531 671.6094,265.5625 L671.6094,267.0156 Q671.6094,267.625 671.375,267.8906 Q671.1406,268.1563 670.7656,268.1563 Q670.4219,268.1563 670.2188,267.9531 Q670.0156,267.7656 669.9063,267.25 Q669.8594,266.8906 669.6719,266.7031 Q669.3438,266.3281 668.7344,266.1094 Q668.125,265.8906 667.5,265.8906 Q666.7344,265.8906 666.0938,266.2188 Q665.4688,266.5469 664.9688,267.2969 Q664.4844,268.0469 664.4844,269.0781 L664.4844,270.1719 Q664.4844,271.4063 665.375,272.2344 Q666.2656,273.0469 667.8594,273.0469 Q668.7969,273.0469 669.4531,272.7969 Q669.8438,272.6406 670.2656,272.2031 Q670.5313,271.9375 670.6719,271.8594 Q670.8281,271.7813 671.0313,271.7813 Q671.3594,271.7813 671.6094,272.0469 Q671.875,272.2969 671.875,272.6406 Q671.875,272.9844 671.5313,273.3906 Q671.0313,273.9688 670.2344,274.2969 Q669.1563,274.75 667.8594,274.75 Q666.3438,274.75 665.1406,274.125 Q664.1563,273.625 663.4688,272.5625 Q662.7813,271.4844 662.7813,270.2031 L662.7813,269.0469 Q662.7813,267.7188 663.3906,266.5781 Q664.0156,265.4219 665.1094,264.8125 Q666.2031,264.1875 667.4375,264.1875 Q668.1719,264.1875 668.8125,264.3594 Q669.4688,264.5156 670.0156,264.875 Z " fill="#000000"/><text fill="#000000" font-family="sans-serif" font-size="12" lengthAdjust="spacing" textLength="119" x="687.75" y="273.9102">RegistoOrganizacoes</text><line style="stroke:#A80036;stroke-width:1.5;" x1="564" x2="898" y1="285" y2="285"/><line style="stroke:#A80036;stroke-width:1.5;" x1="564" x2="898" y1="293" y2="293"/><text fill="#000000" font-family="sans-serif" font-size="11" lengthAdjust="spacing" textLength="324" x="569" y="308.4189">+Organizacao novaOrganizacao(nome,NIF,endLocal,endCodPostal,</text><text fill="#000000" font-family="sans-serif" font-size="11" lengthAdjust="spacing" textLength="265" x="569" y="322.2549">endLocalidade,tlf,site,email,nomeG,função,tlfG, emailG)</text><text fill="#000000" font-family="sans-serif" font-size="11" lengthAdjust="spacing" textLength="185" x="569" y="336.0908">+validaOrganizacao(Organizacao org)</text><text fill="#000000" font-family="sans-serif" font-size="11" lengthAdjust="spacing" textLength="190" x="569" y="349.9268">+registaOrganizacao(Organizacao org)</text><text fill="#000000" font-family="sans-serif" font-size="11" lengthAdjust="spacing" textLength="173" x="569" y="363.7627">-addOrganizacao(Organizacao org)</text><text fill="#000000" font-family="sans-serif" font-size="11" lengthAdjust="spacing" textLength="237" x="569" y="377.5986">-registaGestorComoUtilizador(Colaborador colab)</text><text fill="#000000" font-family="sans-serif" font-size="11" lengthAdjust="spacing" textLength="182" x="569" y="391.4346">-enviaPwd(String emailG, String pwd)</text><!--MD5=[f8ea2ad0122b2a4843219b0107c8d395]
class UserAPIAdapter--><rect codeLine="47" fill="#FEFECE" filter="url(#fej653i8v201i)" height="61.8359" id="UserAPIAdapter" style="stroke:#A80036;stroke-width:1.5;" width="276" x="434" y="524.5"/><ellipse cx="524.25" cy="540.5" fill="#ADD1B2" rx="11" ry="11" style="stroke:#A80036;stroke-width:1.0;"/><path d="M527.0156,536.375 Q527.1719,536.1563 527.3594,536.0469 Q527.5469,535.9375 527.7656,535.9375 Q528.1406,535.9375 528.375,536.2031 Q528.6094,536.4531 528.6094,537.0625 L528.6094,538.5156 Q528.6094,539.125 528.375,539.3906 Q528.1406,539.6563 527.7656,539.6563 Q527.4219,539.6563 527.2188,539.4531 Q527.0156,539.2656 526.9063,538.75 Q526.8594,538.3906 526.6719,538.2031 Q526.3438,537.8281 525.7344,537.6094 Q525.125,537.3906 524.5,537.3906 Q523.7344,537.3906 523.0938,537.7188 Q522.4688,538.0469 521.9688,538.7969 Q521.4844,539.5469 521.4844,540.5781 L521.4844,541.6719 Q521.4844,542.9063 522.375,543.7344 Q523.2656,544.5469 524.8594,544.5469 Q525.7969,544.5469 526.4531,544.2969 Q526.8438,544.1406 527.2656,543.7031 Q527.5313,543.4375 527.6719,543.3594 Q527.8281,543.2813 528.0313,543.2813 Q528.3594,543.2813 528.6094,543.5469 Q528.875,543.7969 528.875,544.1406 Q528.875,544.4844 528.5313,544.8906 Q528.0313,545.4688 527.2344,545.7969 Q526.1563,546.25 524.8594,546.25 Q523.3438,546.25 522.1406,545.625 Q521.1563,545.125 520.4688,544.0625 Q519.7813,542.9844 519.7813,541.7031 L519.7813,540.5469 Q519.7813,539.2188 520.3906,538.0781 Q521.0156,536.9219 522.1094,536.3125 Q523.2031,535.6875 524.4375,535.6875 Q525.1719,535.6875 525.8125,535.8594 Q526.4688,536.0156 527.0156,536.375 Z " fill="#000000"/><text fill="#000000" font-family="sans-serif" font-size="12" lengthAdjust="spacing" textLength="87" x="544.75" y="545.4102">UserAPIAdapter</text><line style="stroke:#A80036;stroke-width:1.5;" x1="435" x2="709" y1="556.5" y2="556.5"/><line style="stroke:#A80036;stroke-width:1.5;" x1="435" x2="709" y1="564.5" y2="564.5"/><text fill="#000000" font-family="sans-serif" font-size="11" lengthAdjust="spacing" textLength="264" x="440" y="579.9189">+registerUserWithRoles(nomeG,emailG,pwd,listaPapel)</text><!--MD5=[37bf6c08f758502d5d1a5531d651ab43]
class AlgoritmoGeradorPasswords--><rect codeLine="51" fill="#FEFECE" filter="url(#fej653i8v201i)" height="70.0234" id="AlgoritmoGeradorPasswords" style="stroke:#A80036;stroke-width:1.5;" width="263" x="745.5" y="520.5"/><ellipse cx="794.25" cy="540.5938" fill="#B4A7E5" rx="11" ry="11" style="stroke:#A80036;stroke-width:1.0;"/><path d="M795.2031,537.2344 L795.2031,543.8906 L796.9219,543.8906 Q797.5313,543.8906 797.7969,544.125 Q798.0625,544.3594 798.0625,544.75 Q798.0625,545.125 797.7969,545.3594 Q797.5313,545.5938 796.9219,545.5938 L791.7813,545.5938 Q791.1719,545.5938 790.9063,545.3594 Q790.6406,545.125 790.6406,544.7344 Q790.6406,544.3594 790.9063,544.125 Q791.1719,543.8906 791.7813,543.8906 L793.5,543.8906 L793.5,537.2344 L791.7813,537.2344 Q791.1719,537.2344 790.9063,537 Q790.6406,536.7656 790.6406,536.375 Q790.6406,536 790.9063,535.7656 Q791.1719,535.5313 791.7813,535.5313 L796.9219,535.5313 Q797.5313,535.5313 797.7969,535.7656 Q798.0625,536 798.0625,536.375 Q798.0625,536.7656 797.7969,537 Q797.5313,537.2344 796.9219,537.2344 L795.2031,537.2344 Z " fill="#000000"/><text fill="#000000" font-family="sans-serif" font-size="12" font-style="italic" lengthAdjust="spacing" textLength="61" x="862.75" y="537.957">«interface»</text><text fill="#000000" font-family="sans-serif" font-size="12" font-style="italic" lengthAdjust="spacing" textLength="157" x="814.75" y="553.0508">AlgoritmoGeradorPasswords</text><line style="stroke:#A80036;stroke-width:1.5;" x1="746.5" x2="1007.5" y1="560.6875" y2="560.6875"/><line style="stroke:#A80036;stroke-width:1.5;" x1="746.5" x2="1007.5" y1="568.6875" y2="568.6875"/><text fill="#000000" font-family="sans-serif" font-size="11" lengthAdjust="spacing" textLength="251" x="751.5" y="584.1064">+String geraPassword(String nomeG, String emailG)</text><!--MD5=[dd5ad71b12dabe0adbc098c60a8c9669]
class RegistarOrganizacaoController--><rect codeLine="55" fill="#FEFECE" filter="url(#fej653i8v201i)" height="75.6719" id="RegistarOrganizacaoController" style="stroke:#A80036;stroke-width:1.5;" width="561" x="450.5" y="116"/><ellipse cx="641.75" cy="132" fill="#ADD1B2" rx="11" ry="11" style="stroke:#A80036;stroke-width:1.0;"/><path d="M644.5156,127.875 Q644.6719,127.6563 644.8594,127.5469 Q645.0469,127.4375 645.2656,127.4375 Q645.6406,127.4375 645.875,127.7031 Q646.1094,127.9531 646.1094,128.5625 L646.1094,130.0156 Q646.1094,130.625 645.875,130.8906 Q645.6406,131.1563 645.2656,131.1563 Q644.9219,131.1563 644.7188,130.9531 Q644.5156,130.7656 644.4063,130.25 Q644.3594,129.8906 644.1719,129.7031 Q643.8438,129.3281 643.2344,129.1094 Q642.625,128.8906 642,128.8906 Q641.2344,128.8906 640.5938,129.2188 Q639.9688,129.5469 639.4688,130.2969 Q638.9844,131.0469 638.9844,132.0781 L638.9844,133.1719 Q638.9844,134.4063 639.875,135.2344 Q640.7656,136.0469 642.3594,136.0469 Q643.2969,136.0469 643.9531,135.7969 Q644.3438,135.6406 644.7656,135.2031 Q645.0313,134.9375 645.1719,134.8594 Q645.3281,134.7813 645.5313,134.7813 Q645.8594,134.7813 646.1094,135.0469 Q646.375,135.2969 646.375,135.6406 Q646.375,135.9844 646.0313,136.3906 Q645.5313,136.9688 644.7344,137.2969 Q643.6563,137.75 642.3594,137.75 Q640.8438,137.75 639.6406,137.125 Q638.6563,136.625 637.9688,135.5625 Q637.2813,134.4844 637.2813,133.2031 L637.2813,132.0469 Q637.2813,130.7188 637.8906,129.5781 Q638.5156,128.4219 639.6094,127.8125 Q640.7031,127.1875 641.9375,127.1875 Q642.6719,127.1875 643.3125,127.3594 Q643.9688,127.5156 644.5156,127.875 Z " fill="#000000"/><text fill="#000000" font-family="sans-serif" font-size="12" lengthAdjust="spacing" textLength="170" x="662.25" y="136.9102">RegistarOrganizacaoController</text><line style="stroke:#A80036;stroke-width:1.5;" x1="451.5" x2="1010.5" y1="148" y2="148"/><line style="stroke:#A80036;stroke-width:1.5;" x1="451.5" x2="1010.5" y1="156" y2="156"/><text fill="#000000" font-family="sans-serif" font-size="11" lengthAdjust="spacing" textLength="549" x="456.5" y="171.4189">+novaOrganizacao(nome,NIF,endLocal,endCodPostal,endLocalidade,tlf,site,email,nomeG,função,tlfG, emailG,pwd)</text><text fill="#000000" font-family="sans-serif" font-size="11" lengthAdjust="spacing" textLength="109" x="456.5" y="185.2549">+registaOrganizacao()</text><!--MD5=[26c5f3be5170126d62449270b7dc8f97]
class RegistarOrganizacaoUI--><rect codeLine="60" fill="#FEFECE" filter="url(#fej653i8v201i)" height="48" id="RegistarOrganizacaoUI" style="stroke:#A80036;stroke-width:1.5;" width="160" x="651" y="7"/><ellipse cx="666" cy="23" fill="#ADD1B2" rx="11" ry="11" style="stroke:#A80036;stroke-width:1.0;"/><path d="M668.7656,18.875 Q668.9219,18.6563 669.1094,18.5469 Q669.2969,18.4375 669.5156,18.4375 Q669.8906,18.4375 670.125,18.7031 Q670.3594,18.9531 670.3594,19.5625 L670.3594,21.0156 Q670.3594,21.625 670.125,21.8906 Q669.8906,22.1563 669.5156,22.1563 Q669.1719,22.1563 668.9688,21.9531 Q668.7656,21.7656 668.6563,21.25 Q668.6094,20.8906 668.4219,20.7031 Q668.0938,20.3281 667.4844,20.1094 Q666.875,19.8906 666.25,19.8906 Q665.4844,19.8906 664.8438,20.2188 Q664.2188,20.5469 663.7188,21.2969 Q663.2344,22.0469 663.2344,23.0781 L663.2344,24.1719 Q663.2344,25.4063 664.125,26.2344 Q665.0156,27.0469 666.6094,27.0469 Q667.5469,27.0469 668.2031,26.7969 Q668.5938,26.6406 669.0156,26.2031 Q669.2813,25.9375 669.4219,25.8594 Q669.5781,25.7813 669.7813,25.7813 Q670.1094,25.7813 670.3594,26.0469 Q670.625,26.2969 670.625,26.6406 Q670.625,26.9844 670.2813,27.3906 Q669.7813,27.9688 668.9844,28.2969 Q667.9063,28.75 666.6094,28.75 Q665.0938,28.75 663.8906,28.125 Q662.9063,27.625 662.2188,26.5625 Q661.5313,25.4844 661.5313,24.2031 L661.5313,23.0469 Q661.5313,21.7188 662.1406,20.5781 Q662.7656,19.4219 663.8594,18.8125 Q664.9531,18.1875 666.1875,18.1875 Q666.9219,18.1875 667.5625,18.3594 Q668.2188,18.5156 668.7656,18.875 Z " fill="#000000"/><text fill="#000000" font-family="sans-serif" font-size="12" lengthAdjust="spacing" textLength="128" x="680" y="27.9102">RegistarOrganizacaoUI</text><line style="stroke:#A80036;stroke-width:1.5;" x1="652" x2="810" y1="39" y2="39"/><line style="stroke:#A80036;stroke-width:1.5;" x1="652" x2="810" y1="47" y2="47"/><!--MD5=[5968e6aa320025ed2619ac26e0f01233]
link RegistarOrganizacaoUI to RegistarOrganizacaoController--><path codeLine="63" d="M731,55.04 C731,70.71 731,91.91 731,110.58 " fill="none" id="RegistarOrganizacaoUI-to-RegistarOrganizacaoController" style="stroke:#A80036;stroke-width:1.0;stroke-dasharray:7.0,7.0;"/><polygon fill="#A80036" points="731,115.77,735,106.77,731,110.77,727,106.77,731,115.77" style="stroke:#A80036;stroke-width:1.0;"/><!--MD5=[070ebfe6f744f37053d6e1e171d02a8b]
link RegistarOrganizacaoController to Plataforma--><path codeLine="64" d="M807.59,192.2 C855.5,215.47 917.98,245.81 971.01,271.57 " fill="none" id="RegistarOrganizacaoController-to-Plataforma" style="stroke:#A80036;stroke-width:1.0;stroke-dasharray:7.0,7.0;"/><polygon fill="#A80036" points="975.79,273.89,969.442,266.3598,971.2925,271.7055,965.9468,273.5559,975.79,273.89" style="stroke:#A80036;stroke-width:1.0;"/><!--MD5=[35b989c5d7ca8b09d8ca855f18139f3a]
link RegistarOrganizacaoController to RegistoOrganizacoes--><path codeLine="65" d="M731,192.2 C731,208.5 731,228.27 731,247.5 " fill="none" id="RegistarOrganizacaoController-to-RegistoOrganizacoes" style="stroke:#A80036;stroke-width:1.0;stroke-dasharray:7.0,7.0;"/><polygon fill="#A80036" points="731,252.91,735,243.91,731,247.91,727,243.91,731,252.91" style="stroke:#A80036;stroke-width:1.0;"/><!--MD5=[989fd8e1df01efc14a26ec70914d6dfa]
link RegistarOrganizacaoController to Organizacao--><path codeLine="66" d="M650.76,192.03 C617.04,208.91 578.05,230.21 545,253 C449.65,318.76 351.56,407.85 285.02,472.12 " fill="none" id="RegistarOrganizacaoController-to-Organizacao" style="stroke:#A80036;stroke-width:1.0;stroke-dasharray:7.0,7.0;"/><polygon fill="#A80036" points="281.08,475.93,290.3215,472.5248,284.6652,472.4448,284.7452,466.7885,281.08,475.93" style="stroke:#A80036;stroke-width:1.0;"/><!--MD5=[7846c904d139ffad2e5d1ca294d8e188]
link RegistoOrganizacoes to Organizacao--><path codeLine="68" d="M565.39,398.02 C509.64,422.09 447.07,449.11 389.81,473.83 " fill="none" id="RegistoOrganizacoes-to-Organizacao" style="stroke:#A80036;stroke-width:1.0;"/><polygon fill="#A80036" points="384.99,475.91,394.8383,476.0155,389.5805,473.9284,391.6677,468.6706,384.99,475.91" style="stroke:#A80036;stroke-width:1.0;"/><text fill="#000000" font-family="sans-serif" font-size="13" lengthAdjust="spacing" textLength="86" x="484" y="442.4951">tem registadas</text><text fill="#000000" font-family="sans-serif" font-size="13" lengthAdjust="spacing" textLength="7" x="548.0849" y="416.437">1</text><text fill="#000000" font-family="sans-serif" font-size="13" lengthAdjust="spacing" textLength="5" x="397.0976" y="465.0883">*</text><!--MD5=[6813f6b6d5984798ad897268579cad27]
link RegistoOrganizacoes to Colaborador--><path codeLine="69" d="M899.34,393.44 C956.51,419.84 1010.03,450.01 1026,476 C1062.99,536.21 1070.88,580.42 1026,635 C1020.74,641.4 572.54,726.78 367.44,765.56 " fill="none" id="RegistoOrganizacoes-to-Colaborador" style="stroke:#A80036;stroke-width:1.0;stroke-dasharray:7.0,7.0;"/><polygon fill="#A80036" points="362.34,766.53,371.9262,768.7894,367.2531,765.6017,370.4408,760.9285,362.34,766.53" style="stroke:#A80036;stroke-width:1.0;"/><!--MD5=[97d4ebd15be5005f1f0f3804d7c2b6a2]
link RegistoOrganizacoes to EnderecoPostal--><path codeLine="70" d="M899.06,392.76 C905.09,394.6 911.08,396.36 917,398 C954.18,408.3 1063.19,398.46 1088,428 C1160.89,514.79 1154.56,591.27 1088,683 C1044.03,743.6 962.89,768.7 894.51,778.8 " fill="none" id="RegistoOrganizacoes-to-EnderecoPostal" style="stroke:#A80036;stroke-width:1.0;stroke-dasharray:7.0,7.0;"/><polygon fill="#A80036" points="889.19,779.56,898.662,782.2585,894.1406,778.8589,897.5402,774.3375,889.19,779.56" style="stroke:#A80036;stroke-width:1.0;"/><!--MD5=[10a77243f62f0d4010ffd08308be360d]
link RegistoOrganizacoes to UserAPIAdapter--><path codeLine="71" d="M681.13,398.02 C652.71,438.76 618.41,487.95 595.94,520.17 " fill="none" id="RegistoOrganizacoes-to-UserAPIAdapter" style="stroke:#A80036;stroke-width:1.0;stroke-dasharray:7.0,7.0;"/><polygon fill="#A80036" points="592.99,524.41,601.4293,519.3327,595.8583,520.3145,594.8765,514.7435,592.99,524.41" style="stroke:#A80036;stroke-width:1.0;"/><!--MD5=[af5da22baa9471e875a121efafac6d26]
link RegistoOrganizacoes to AlgoritmoGeradorPasswords--><path codeLine="72" d="M776.79,398.02 C801.85,437.14 831.88,484.04 852.5,516.24 " fill="none" id="RegistoOrganizacoes-to-AlgoritmoGeradorPasswords" style="stroke:#A80036;stroke-width:1.0;stroke-dasharray:7.0,7.0;"/><polygon fill="#A80036" points="855.22,520.48,853.7179,510.7464,852.5162,516.2741,846.9885,515.0724,855.22,520.48" style="stroke:#A80036;stroke-width:1.0;"/><!--MD5=[567db691f9836c63f305bad1024cbc66]
link Organizacao to Colaborador--><path codeLine="73" d="M193.53,635.13 C193.7,651.22 195.45,667.85 200,683 C202.56,691.53 206.1,700.01 210.22,708.21 " fill="none" id="Organizacao-to-Colaborador" style="stroke:#A80036;stroke-width:1.0;"/><polygon fill="#A80036" points="212.57,712.74,211.9846,702.9086,210.2713,708.2997,204.8802,706.5864,212.57,712.74" style="stroke:#A80036;stroke-width:1.0;"/><text fill="#000000" font-family="sans-serif" font-size="13" lengthAdjust="spacing" textLength="22" x="201" y="679.4951">tem</text><text fill="#000000" font-family="sans-serif" font-size="13" lengthAdjust="spacing" textLength="7" x="185.4154" y="656.1844">1</text><text fill="#000000" font-family="sans-serif" font-size="13" lengthAdjust="spacing" textLength="20" x="185.9257" y="701.9325">1..*</text><!--MD5=[567db691f9836c63f305bad1024cbc66]
link Organizacao to Colaborador--><path codeLine="74" d="M225.11,635.28 C231.73,658.84 238.96,684.61 245.53,708.02 " fill="none" id="Organizacao-to-Colaborador-1" style="stroke:#A80036;stroke-width:1.0;"/><polygon fill="#A80036" points="246.92,712.97,248.3548,703.2262,245.5766,708.1538,240.649,705.3756,246.92,712.97" style="stroke:#A80036;stroke-width:1.0;"/><text fill="#000000" font-family="sans-serif" font-size="13" lengthAdjust="spacing" textLength="62" x="238" y="679.4951">tem gestor</text><text fill="#000000" font-family="sans-serif" font-size="13" lengthAdjust="spacing" textLength="7" x="219.6511" y="656.0719">1</text><text fill="#000000" font-family="sans-serif" font-size="13" lengthAdjust="spacing" textLength="7" x="237.4883" y="702.1862">1</text><!--MD5=[ca49ec1e86bb5e8c049c02c54bfc3088]
link Organizacao to EnderecoPostal--><path codeLine="75" d="M399.33,634.49 C486.06,668.94 585.1,708.27 659.99,738.02 " fill="none" id="Organizacao-to-EnderecoPostal" style="stroke:#A80036;stroke-width:1.0;"/><polygon fill="#A80036" points="664.89,739.97,658.0118,732.9209,660.2457,738.118,655.0485,740.3518,664.89,739.97" style="stroke:#A80036;stroke-width:1.0;"/><text fill="#000000" font-family="sans-serif" font-size="13" lengthAdjust="spacing" textLength="80" x="509" y="679.4951">localizada em</text><text fill="#000000" font-family="sans-serif" font-size="13" lengthAdjust="spacing" textLength="7" x="407.0935" y="654.6707">1</text><text fill="#000000" font-family="sans-serif" font-size="13" lengthAdjust="spacing" textLength="7" x="650.1225" y="733.8688">1</text><!--MD5=[af5323aeea096009a7c3b2025950a55f]
@startuml
skinparam classAttributeIconSize 0

class Colaborador {
  -String nome
  -String funcao
  -String telefone
  -String email
  +Colaborador(nome,função,tlf, email)
  +String getNome()
  +String getEmail()
}

class EnderecoPostal {
  -String local
  -String codPostal
  -String localidade
  +EnderecoPostal(local,codPostal,localidade)
}

class Organizacao {
  -String nome
  -String NIF
  -String website
  -String telefone
  -String email
  +Organizacao(nome, NIF,webSite,telefone, email,endereco,gestorColaborador)
  +{static} EnderecoPostal novoEndereco(local,codPostal,localidade)
  +{static} Colaborador novoColaborador(nome,funcao,tlf, email)
}

class Plataforma {
  -String designacao
  + RegistoOrganizacoes getRegistoOrganizacoes()
  + AutorizacaoFacade getAutorizacaoFacade()
  + AlgoritmoGeradorPasswords getAlgoritmoGeradorPwd()
}

class RegistoOrganizacoes {
  +Organizacao novaOrganizacao(nome,NIF,endLocal,endCodPostal,\nendLocalidade,tlf,site,email,nomeG,função,tlfG, emailG)
  +validaOrganizacao(Organizacao org)
  +registaOrganizacao(Organizacao org)
  -addOrganizacao(Organizacao org)
  -registaGestorComoUtilizador(Colaborador colab)
  -enviaPwd(String emailG, String pwd)
}

class UserAPIAdapter {
   +registerUserWithRoles(nomeG,emailG,pwd,listaPapel)
}

interface AlgoritmoGeradorPasswords <<interface>>{
   +String geraPassword(String nomeG, String emailG)
}

class RegistarOrganizacaoController {
    +novaOrganizacao(nome,NIF,endLocal,endCodPostal,endLocalidade,tlf,site,email,nomeG,função,tlfG, emailG,pwd)
    +registaOrganizacao()
}

class RegistarOrganizacaoUI {
}

RegistarOrganizacaoUI ..> RegistarOrganizacaoController
RegistarOrganizacaoController ..> Plataforma
RegistarOrganizacaoController ..> RegistoOrganizacoes
RegistarOrganizacaoController ..> Organizacao

RegistoOrganizacoes "1" - -> "*" Organizacao : tem registadas
RegistoOrganizacoes ..> Colaborador
RegistoOrganizacoes ..> EnderecoPostal
RegistoOrganizacoes ..> UserAPIAdapter
RegistoOrganizacoes ..> AlgoritmoGeradorPasswords
Organizacao "1" - -> "1..*" Colaborador: tem
Organizacao "1" - -> "1" Colaborador: tem gestor
Organizacao "1" - -> "1" EnderecoPostal: localizada em

@enduml

PlantUML version 1.2021.00(Sun Jan 10 10:25:05 WET 2021)
(GPL source distribution)
Java Runtime: Java(TM) SE Runtime Environment
JVM: Java HotSpot(TM) 64-Bit Server VM
Default Encoding: Cp1252
Language: pt
Country: PT
--></g></svg>