<?xml version="1.0" encoding="UTF-8" standalone="no"?><svg xmlns="http://www.w3.org/2000/svg" xmlns:xlink="http://www.w3.org/1999/xlink" contentScriptType="application/ecmascript" contentStyleType="text/css" height="438px" preserveAspectRatio="none" style="width:617px;height:438px;" version="1.1" viewBox="0 0 617 438" width="617px" zoomAndPan="magnify"><defs><filter height="300%" id="f18wi2r54qwoen" width="300%" x="-1" y="-1"><feGaussianBlur result="blurOut" stdDeviation="2.0"/><feColorMatrix in="blurOut" result="blurOut2" type="matrix" values="0 0 0 0 0 0 0 0 0 0 0 0 0 0 0 0 0 0 .4 0"/><feOffset dx="4.0" dy="4.0" in="blurOut2" result="blurOut3"/><feBlend in="SourceGraphic" in2="blurOut3" mode="normal"/></filter></defs><g><rect fill="#FFFFFF" filter="url(#f18wi2r54qwoen)" height="234.8125" style="stroke: #A80036; stroke-width: 1.0;" width="10" x="47" y="99.6094"/><rect fill="#FFFFFF" filter="url(#f18wi2r54qwoen)" height="30.3516" style="stroke: #A80036; stroke-width: 1.0;" width="10" x="566" y="121.9609"/><rect fill="#FFFFFF" filter="url(#f18wi2r54qwoen)" height="30.3516" style="stroke: #A80036; stroke-width: 1.0;" width="10" x="566" y="182.6641"/><rect fill="#FFFFFF" filter="url(#f18wi2r54qwoen)" height="30.3516" style="stroke: #A80036; stroke-width: 1.0;" width="10" x="566" y="243.3672"/><rect fill="#FFFFFF" filter="url(#f18wi2r54qwoen)" height="30.3516" style="stroke: #A80036; stroke-width: 1.0;" width="10" x="566" y="304.0703"/><line style="stroke: #A80036; stroke-width: 1.0; stroke-dasharray: 5.0,5.0;" x1="52" x2="52" y1="89.6094" y2="352.4219"/><line style="stroke: #A80036; stroke-width: 1.0; stroke-dasharray: 5.0,5.0;" x1="571" x2="571" y1="89.6094" y2="352.4219"/><text fill="#000000" font-family="sans-serif" font-size="14" lengthAdjust="spacingAndGlyphs" textLength="88" x="5" y="86.5332">Administrativo</text><ellipse cx="52" cy="15" fill="#FEFECE" filter="url(#f18wi2r54qwoen)" rx="8" ry="8" style="stroke: #A80036; stroke-width: 2.0;"/><path d="M52,23 L52,50 M39,31 L65,31 M52,50 L39,65 M52,50 L65,65 " fill="none" filter="url(#f18wi2r54qwoen)" style="stroke: #A80036; stroke-width: 2.0;"/><text fill="#000000" font-family="sans-serif" font-size="14" lengthAdjust="spacingAndGlyphs" textLength="88" x="5" y="365.9551">Administrativo</text><ellipse cx="52" cy="379.0313" fill="#FEFECE" filter="url(#f18wi2r54qwoen)" rx="8" ry="8" style="stroke: #A80036; stroke-width: 2.0;"/><path d="M52,387.0313 L52,414.0313 M39,395.0313 L65,395.0313 M52,414.0313 L39,429.0313 M52,414.0313 L65,429.0313 " fill="none" filter="url(#f18wi2r54qwoen)" style="stroke: #A80036; stroke-width: 2.0;"/><rect fill="#FEFECE" filter="url(#f18wi2r54qwoen)" height="31.6094" style="stroke: #A80036; stroke-width: 1.5;" width="68" x="535" y="53"/><text fill="#000000" font-family="sans-serif" font-size="14" lengthAdjust="spacingAndGlyphs" textLength="54" x="542" y="74.5332">:Sistema</text><rect fill="#FEFECE" filter="url(#f18wi2r54qwoen)" height="31.6094" style="stroke: #A80036; stroke-width: 1.5;" width="68" x="535" y="351.4219"/><text fill="#000000" font-family="sans-serif" font-size="14" lengthAdjust="spacingAndGlyphs" textLength="54" x="542" y="372.9551">:Sistema</text><rect fill="#FFFFFF" filter="url(#f18wi2r54qwoen)" height="234.8125" style="stroke: #A80036; stroke-width: 1.0;" width="10" x="47" y="99.6094"/><rect fill="#FFFFFF" filter="url(#f18wi2r54qwoen)" height="30.3516" style="stroke: #A80036; stroke-width: 1.0;" width="10" x="566" y="121.9609"/><rect fill="#FFFFFF" filter="url(#f18wi2r54qwoen)" height="30.3516" style="stroke: #A80036; stroke-width: 1.0;" width="10" x="566" y="182.6641"/><rect fill="#FFFFFF" filter="url(#f18wi2r54qwoen)" height="30.3516" style="stroke: #A80036; stroke-width: 1.0;" width="10" x="566" y="243.3672"/><rect fill="#FFFFFF" filter="url(#f18wi2r54qwoen)" height="30.3516" style="stroke: #A80036; stroke-width: 1.0;" width="10" x="566" y="304.0703"/><polygon fill="#A80036" points="554,117.9609,564,121.9609,554,125.9609,558,121.9609" style="stroke: #A80036; stroke-width: 1.0;"/><line style="stroke: #A80036; stroke-width: 1.0;" x1="57" x2="560" y1="121.9609" y2="121.9609"/><text fill="#000000" font-family="sans-serif" font-size="13" font-weight="bold" lengthAdjust="spacingAndGlyphs" textLength="7" x="64" y="117.1045">1</text><text fill="#000000" font-family="sans-serif" font-size="13" lengthAdjust="spacingAndGlyphs" textLength="295" x="75" y="117.1045">inicia a especificação de uma competência técnica</text><polygon fill="#A80036" points="68,148.3125,58,152.3125,68,156.3125,64,152.3125" style="stroke: #A80036; stroke-width: 1.0;"/><line style="stroke: #A80036; stroke-width: 1.0; stroke-dasharray: 2.0,2.0;" x1="62" x2="570" y1="152.3125" y2="152.3125"/><text fill="#000000" font-family="sans-serif" font-size="13" font-weight="bold" lengthAdjust="spacingAndGlyphs" textLength="7" x="74" y="147.4561">2</text><text fill="#000000" font-family="sans-serif" font-size="13" lengthAdjust="spacingAndGlyphs" textLength="394" x="85" y="147.4561">solicita os dados (id, área de atividade, descrição breve e detalhada)</text><polygon fill="#A80036" points="554,178.6641,564,182.6641,554,186.6641,558,182.6641" style="stroke: #A80036; stroke-width: 1.0;"/><line style="stroke: #A80036; stroke-width: 1.0;" x1="57" x2="560" y1="182.6641" y2="182.6641"/><text fill="#000000" font-family="sans-serif" font-size="13" font-weight="bold" lengthAdjust="spacingAndGlyphs" textLength="7" x="64" y="177.8076">3</text><text fill="#000000" font-family="sans-serif" font-size="13" lengthAdjust="spacingAndGlyphs" textLength="169" x="75" y="177.8076">introduz os dados solicitados</text><polygon fill="#A80036" points="68,209.0156,58,213.0156,68,217.0156,64,213.0156" style="stroke: #A80036; stroke-width: 1.0;"/><line style="stroke: #A80036; stroke-width: 1.0; stroke-dasharray: 2.0,2.0;" x1="62" x2="570" y1="213.0156" y2="213.0156"/><text fill="#000000" font-family="sans-serif" font-size="13" font-weight="bold" lengthAdjust="spacingAndGlyphs" textLength="7" x="74" y="208.1592">4</text><text fill="#000000" font-family="sans-serif" font-size="13" lengthAdjust="spacingAndGlyphs" textLength="474" x="85" y="208.1592">mostra a lista de áreas de atividade e pede ao administrativo para selecionar uma.</text><polygon fill="#A80036" points="554,239.3672,564,243.3672,554,247.3672,558,243.3672" style="stroke: #A80036; stroke-width: 1.0;"/><line style="stroke: #A80036; stroke-width: 1.0;" x1="57" x2="560" y1="243.3672" y2="243.3672"/><text fill="#000000" font-family="sans-serif" font-size="13" font-weight="bold" lengthAdjust="spacingAndGlyphs" textLength="7" x="64" y="238.5107">5</text><text fill="#000000" font-family="sans-serif" font-size="13" lengthAdjust="spacingAndGlyphs" textLength="189" x="75" y="238.5107">seleciona uma área de atividade.</text><polygon fill="#A80036" points="68,269.7188,58,273.7188,68,277.7188,64,273.7188" style="stroke: #A80036; stroke-width: 1.0;"/><line style="stroke: #A80036; stroke-width: 1.0; stroke-dasharray: 2.0,2.0;" x1="62" x2="570" y1="273.7188" y2="273.7188"/><text fill="#000000" font-family="sans-serif" font-size="13" font-weight="bold" lengthAdjust="spacingAndGlyphs" textLength="7" x="74" y="268.8623">6</text><text fill="#000000" font-family="sans-serif" font-size="13" lengthAdjust="spacingAndGlyphs" textLength="231" x="85" y="268.8623">apresenta os dados e pede confirmação</text><polygon fill="#A80036" points="554,300.0703,564,304.0703,554,308.0703,558,304.0703" style="stroke: #A80036; stroke-width: 1.0;"/><line style="stroke: #A80036; stroke-width: 1.0;" x1="57" x2="560" y1="304.0703" y2="304.0703"/><text fill="#000000" font-family="sans-serif" font-size="13" font-weight="bold" lengthAdjust="spacingAndGlyphs" textLength="7" x="64" y="299.2139">7</text><text fill="#000000" font-family="sans-serif" font-size="13" lengthAdjust="spacingAndGlyphs" textLength="106" x="75" y="299.2139">confirma os dados</text><polygon fill="#A80036" points="63,330.4219,53,334.4219,63,338.4219,59,334.4219" style="stroke: #A80036; stroke-width: 1.0;"/><line style="stroke: #A80036; stroke-width: 1.0; stroke-dasharray: 2.0,2.0;" x1="57" x2="570" y1="334.4219" y2="334.4219"/><text fill="#000000" font-family="sans-serif" font-size="13" font-weight="bold" lengthAdjust="spacingAndGlyphs" textLength="7" x="69" y="329.5654">8</text><text fill="#000000" font-family="sans-serif" font-size="13" lengthAdjust="spacingAndGlyphs" textLength="188" x="80" y="329.5654">informa do sucesso da operação</text><!--MD5=[77632f33bb1a426d34c26509c9fa59ac]
@startuml
autonumber
actor "Administrativo" as A

activate A
A -> ":Sistema" : inicia a especificação de uma competência técnica
activate ":Sistema"
":Sistema" - -> A : solicita os dados (id, área de atividade, descrição breve e detalhada)
deactivate ":Sistema"

A -> ":Sistema" : introduz os dados solicitados
activate ":Sistema"
":Sistema" - -> A : mostra a lista de áreas de atividade e pede ao administrativo para selecionar uma.
deactivate ":Sistema"

A -> ":Sistema" : seleciona uma área de atividade.
activate ":Sistema"
":Sistema" - -> A : apresenta os dados e pede confirmação
deactivate ":Sistema"

A -> ":Sistema" : confirma os dados
activate ":Sistema"
":Sistema" - -> A : informa do sucesso da operação
deactivate ":Sistema"

deactivate A

@enduml

PlantUML version 1.2020.18(Wed Sep 30 20:40:44 WEST 2020)
(GPL source distribution)
Java Runtime: OpenJDK Runtime Environment
JVM: OpenJDK 64-Bit Server VM
Default Encoding: Cp1252
Language: pt
Country: PT
--></g></svg>