<?xml version="1.0" encoding="UTF-8" standalone="no"?><svg xmlns="http://www.w3.org/2000/svg" xmlns:xlink="http://www.w3.org/1999/xlink" contentScriptType="application/ecmascript" contentStyleType="text/css" height="279px" preserveAspectRatio="none" style="width:831px;height:279px;" version="1.1" viewBox="0 0 831 279" width="831px" zoomAndPan="magnify"><defs><filter height="300%" id="fzv48b9ra6pln" width="300%" x="-1" y="-1"><feGaussianBlur result="blurOut" stdDeviation="2.0"/><feColorMatrix in="blurOut" result="blurOut2" type="matrix" values="0 0 0 0 0 0 0 0 0 0 0 0 0 0 0 0 0 0 .4 0"/><feOffset dx="4.0" dy="4.0" in="blurOut2" result="blurOut3"/><feBlend in="SourceGraphic" in2="blurOut3" mode="normal"/></filter></defs><g><!--MD5=[ecaed46f78f8cfe1e9ce18477649be18]
class Plataforma--><rect codeLine="6" fill="#FEFECE" filter="url(#fzv48b9ra6pln)" height="53.8359" id="Plataforma" style="stroke: #A80036; stroke-width: 1.5;" width="103" x="7" y="70"/><ellipse cx="26.95" cy="86" fill="#ADD1B2" rx="11" ry="11" style="stroke: #A80036; stroke-width: 1.0;"/><path d="M29.7156,81.875 Q29.8719,81.6563 30.0594,81.5469 Q30.2469,81.4375 30.4656,81.4375 Q30.8406,81.4375 31.075,81.7031 Q31.3094,81.9531 31.3094,82.5625 L31.3094,84.0156 Q31.3094,84.625 31.075,84.8906 Q30.8406,85.1563 30.4656,85.1563 Q30.1219,85.1563 29.9188,84.9531 Q29.7156,84.7656 29.6063,84.25 Q29.5594,83.8906 29.3719,83.7031 Q29.0438,83.3281 28.4344,83.1094 Q27.825,82.8906 27.2,82.8906 Q26.4344,82.8906 25.7938,83.2188 Q25.1688,83.5469 24.6688,84.2969 Q24.1844,85.0469 24.1844,86.0781 L24.1844,87.1719 Q24.1844,88.4063 25.075,89.2344 Q25.9656,90.0469 27.5594,90.0469 Q28.4969,90.0469 29.1531,89.7969 Q29.5438,89.6406 29.9656,89.2031 Q30.2313,88.9375 30.3719,88.8594 Q30.5281,88.7813 30.7313,88.7813 Q31.0594,88.7813 31.3094,89.0469 Q31.575,89.2969 31.575,89.6406 Q31.575,89.9844 31.2313,90.3906 Q30.7313,90.9688 29.9344,91.2969 Q28.8563,91.75 27.5594,91.75 Q26.0438,91.75 24.8406,91.125 Q23.8563,90.625 23.1688,89.5625 Q22.4813,88.4844 22.4813,87.2031 L22.4813,86.0469 Q22.4813,84.7188 23.0906,83.5781 Q23.7156,82.4219 24.8094,81.8125 Q25.9031,81.1875 27.1375,81.1875 Q27.8719,81.1875 28.5125,81.3594 Q29.1688,81.5156 29.7156,81.875 Z "/><text fill="#000000" font-family="sans-serif" font-size="12" lengthAdjust="spacingAndGlyphs" textLength="60" x="42.05" y="90.9102">Plataforma</text><line style="stroke: #A80036; stroke-width: 1.5;" x1="8" x2="109" y1="102" y2="102"/><text fill="#000000" font-family="sans-serif" font-size="11" lengthAdjust="spacingAndGlyphs" textLength="91" x="13" y="117.4189">-String designacao</text><!--MD5=[a322db5a7ec64d2ff8f2d6cf1831dcec]
class CompetenciaTecnica--><rect codeLine="10" fill="#FEFECE" filter="url(#fzv48b9ra6pln)" height="81.5078" id="CompetenciaTecnica" style="stroke: #A80036; stroke-width: 1.5;" width="149" x="426" y="67"/><ellipse cx="441" cy="83" fill="#ADD1B2" rx="11" ry="11" style="stroke: #A80036; stroke-width: 1.0;"/><path d="M443.7656,78.875 Q443.9219,78.6563 444.1094,78.5469 Q444.2969,78.4375 444.5156,78.4375 Q444.8906,78.4375 445.125,78.7031 Q445.3594,78.9531 445.3594,79.5625 L445.3594,81.0156 Q445.3594,81.625 445.125,81.8906 Q444.8906,82.1563 444.5156,82.1563 Q444.1719,82.1563 443.9688,81.9531 Q443.7656,81.7656 443.6563,81.25 Q443.6094,80.8906 443.4219,80.7031 Q443.0938,80.3281 442.4844,80.1094 Q441.875,79.8906 441.25,79.8906 Q440.4844,79.8906 439.8438,80.2188 Q439.2188,80.5469 438.7188,81.2969 Q438.2344,82.0469 438.2344,83.0781 L438.2344,84.1719 Q438.2344,85.4063 439.125,86.2344 Q440.0156,87.0469 441.6094,87.0469 Q442.5469,87.0469 443.2031,86.7969 Q443.5938,86.6406 444.0156,86.2031 Q444.2813,85.9375 444.4219,85.8594 Q444.5781,85.7813 444.7813,85.7813 Q445.1094,85.7813 445.3594,86.0469 Q445.625,86.2969 445.625,86.6406 Q445.625,86.9844 445.2813,87.3906 Q444.7813,87.9688 443.9844,88.2969 Q442.9063,88.75 441.6094,88.75 Q440.0938,88.75 438.8906,88.125 Q437.9063,87.625 437.2188,86.5625 Q436.5313,85.4844 436.5313,84.2031 L436.5313,83.0469 Q436.5313,81.7188 437.1406,80.5781 Q437.7656,79.4219 438.8594,78.8125 Q439.9531,78.1875 441.1875,78.1875 Q441.9219,78.1875 442.5625,78.3594 Q443.2188,78.5156 443.7656,78.875 Z "/><text fill="#000000" font-family="sans-serif" font-size="12" lengthAdjust="spacingAndGlyphs" textLength="117" x="455" y="87.9102">CompetenciaTecnica</text><line style="stroke: #A80036; stroke-width: 1.5;" x1="427" x2="574" y1="99" y2="99"/><text fill="#000000" font-family="sans-serif" font-size="11" lengthAdjust="spacingAndGlyphs" textLength="43" x="432" y="114.4189">-String id</text><text fill="#000000" font-family="sans-serif" font-size="11" lengthAdjust="spacingAndGlyphs" textLength="88" x="432" y="128.2549">-String descBreve</text><text fill="#000000" font-family="sans-serif" font-size="11" lengthAdjust="spacingAndGlyphs" textLength="107" x="432" y="142.0908">-String descDetalhada</text><!--MD5=[02456e6632d968d6f68141e5893c6991]
class AreaAtividade--><rect codeLine="16" fill="#FEFECE" filter="url(#fzv48b9ra6pln)" height="81.5078" id="AreaAtividade" style="stroke: #A80036; stroke-width: 1.5;" width="119" x="698" y="7"/><ellipse cx="718.85" cy="23" fill="#ADD1B2" rx="11" ry="11" style="stroke: #A80036; stroke-width: 1.0;"/><path d="M721.6156,18.875 Q721.7719,18.6563 721.9594,18.5469 Q722.1469,18.4375 722.3656,18.4375 Q722.7406,18.4375 722.975,18.7031 Q723.2094,18.9531 723.2094,19.5625 L723.2094,21.0156 Q723.2094,21.625 722.975,21.8906 Q722.7406,22.1563 722.3656,22.1563 Q722.0219,22.1563 721.8188,21.9531 Q721.6156,21.7656 721.5063,21.25 Q721.4594,20.8906 721.2719,20.7031 Q720.9438,20.3281 720.3344,20.1094 Q719.725,19.8906 719.1,19.8906 Q718.3344,19.8906 717.6938,20.2188 Q717.0688,20.5469 716.5688,21.2969 Q716.0844,22.0469 716.0844,23.0781 L716.0844,24.1719 Q716.0844,25.4063 716.975,26.2344 Q717.8656,27.0469 719.4594,27.0469 Q720.3969,27.0469 721.0531,26.7969 Q721.4438,26.6406 721.8656,26.2031 Q722.1313,25.9375 722.2719,25.8594 Q722.4281,25.7813 722.6313,25.7813 Q722.9594,25.7813 723.2094,26.0469 Q723.475,26.2969 723.475,26.6406 Q723.475,26.9844 723.1313,27.3906 Q722.6313,27.9688 721.8344,28.2969 Q720.7563,28.75 719.4594,28.75 Q717.9438,28.75 716.7406,28.125 Q715.7563,27.625 715.0688,26.5625 Q714.3813,25.4844 714.3813,24.2031 L714.3813,23.0469 Q714.3813,21.7188 714.9906,20.5781 Q715.6156,19.4219 716.7094,18.8125 Q717.8031,18.1875 719.0375,18.1875 Q719.7719,18.1875 720.4125,18.3594 Q721.0688,18.5156 721.6156,18.875 Z "/><text fill="#000000" font-family="sans-serif" font-size="12" lengthAdjust="spacingAndGlyphs" textLength="74" x="734.15" y="27.9102">AreaAtividade</text><line style="stroke: #A80036; stroke-width: 1.5;" x1="699" x2="816" y1="39" y2="39"/><text fill="#000000" font-family="sans-serif" font-size="11" lengthAdjust="spacingAndGlyphs" textLength="67" x="704" y="54.4189">-String codigo</text><text fill="#000000" font-family="sans-serif" font-size="11" lengthAdjust="spacingAndGlyphs" textLength="88" x="704" y="68.2549">-String descBreve</text><text fill="#000000" font-family="sans-serif" font-size="11" lengthAdjust="spacingAndGlyphs" textLength="107" x="704" y="82.0908">-String descDetalhada</text><!--MD5=[7bb95b5cb1c5d9061d1eedf13c97b467]
class Administrativo--><rect codeLine="22" fill="#FEFECE" filter="url(#fzv48b9ra6pln)" height="40" id="Administrativo" style="stroke: #A80036; stroke-width: 1.5;" width="109" x="194" y="167"/><ellipse cx="209" cy="183" fill="#ADD1B2" rx="11" ry="11" style="stroke: #A80036; stroke-width: 1.0;"/><path d="M211.7656,178.875 Q211.9219,178.6563 212.1094,178.5469 Q212.2969,178.4375 212.5156,178.4375 Q212.8906,178.4375 213.125,178.7031 Q213.3594,178.9531 213.3594,179.5625 L213.3594,181.0156 Q213.3594,181.625 213.125,181.8906 Q212.8906,182.1563 212.5156,182.1563 Q212.1719,182.1563 211.9688,181.9531 Q211.7656,181.7656 211.6563,181.25 Q211.6094,180.8906 211.4219,180.7031 Q211.0938,180.3281 210.4844,180.1094 Q209.875,179.8906 209.25,179.8906 Q208.4844,179.8906 207.8438,180.2188 Q207.2188,180.5469 206.7188,181.2969 Q206.2344,182.0469 206.2344,183.0781 L206.2344,184.1719 Q206.2344,185.4063 207.125,186.2344 Q208.0156,187.0469 209.6094,187.0469 Q210.5469,187.0469 211.2031,186.7969 Q211.5938,186.6406 212.0156,186.2031 Q212.2813,185.9375 212.4219,185.8594 Q212.5781,185.7813 212.7813,185.7813 Q213.1094,185.7813 213.3594,186.0469 Q213.625,186.2969 213.625,186.6406 Q213.625,186.9844 213.2813,187.3906 Q212.7813,187.9688 211.9844,188.2969 Q210.9063,188.75 209.6094,188.75 Q208.0938,188.75 206.8906,188.125 Q205.9063,187.625 205.2188,186.5625 Q204.5313,185.4844 204.5313,184.2031 L204.5313,183.0469 Q204.5313,181.7188 205.1406,180.5781 Q205.7656,179.4219 206.8594,178.8125 Q207.9531,178.1875 209.1875,178.1875 Q209.9219,178.1875 210.5625,178.3594 Q211.2188,178.5156 211.7656,178.875 Z "/><text fill="#000000" font-family="sans-serif" font-size="12" lengthAdjust="spacingAndGlyphs" textLength="77" x="223" y="187.9102">Administrativo</text><line style="stroke: #A80036; stroke-width: 1.5;" x1="195" x2="302" y1="199" y2="199"/><!--MD5=[5dd1d6732c071e710b9290b531f2fa3b]
class Utilizador--><rect codeLine="26" fill="#FEFECE" filter="url(#fzv48b9ra6pln)" height="81.5078" id="Utilizador" style="stroke: #A80036; stroke-width: 1.5;" width="97" x="452" y="184"/><ellipse cx="473.3" cy="200" fill="#ADD1B2" rx="11" ry="11" style="stroke: #A80036; stroke-width: 1.0;"/><path d="M476.0656,195.875 Q476.2219,195.6563 476.4094,195.5469 Q476.5969,195.4375 476.8156,195.4375 Q477.1906,195.4375 477.425,195.7031 Q477.6594,195.9531 477.6594,196.5625 L477.6594,198.0156 Q477.6594,198.625 477.425,198.8906 Q477.1906,199.1563 476.8156,199.1563 Q476.4719,199.1563 476.2688,198.9531 Q476.0656,198.7656 475.9563,198.25 Q475.9094,197.8906 475.7219,197.7031 Q475.3938,197.3281 474.7844,197.1094 Q474.175,196.8906 473.55,196.8906 Q472.7844,196.8906 472.1438,197.2188 Q471.5188,197.5469 471.0188,198.2969 Q470.5344,199.0469 470.5344,200.0781 L470.5344,201.1719 Q470.5344,202.4063 471.425,203.2344 Q472.3156,204.0469 473.9094,204.0469 Q474.8469,204.0469 475.5031,203.7969 Q475.8938,203.6406 476.3156,203.2031 Q476.5813,202.9375 476.7219,202.8594 Q476.8781,202.7813 477.0813,202.7813 Q477.4094,202.7813 477.6594,203.0469 Q477.925,203.2969 477.925,203.6406 Q477.925,203.9844 477.5813,204.3906 Q477.0813,204.9688 476.2844,205.2969 Q475.2063,205.75 473.9094,205.75 Q472.3938,205.75 471.1906,205.125 Q470.2063,204.625 469.5188,203.5625 Q468.8313,202.4844 468.8313,201.2031 L468.8313,200.0469 Q468.8313,198.7188 469.4406,197.5781 Q470.0656,196.4219 471.1594,195.8125 Q472.2531,195.1875 473.4875,195.1875 Q474.2219,195.1875 474.8625,195.3594 Q475.5188,195.5156 476.0656,195.875 Z "/><text fill="#000000" font-family="sans-serif" font-size="12" lengthAdjust="spacingAndGlyphs" textLength="51" x="488.7" y="204.9102">Utilizador</text><line style="stroke: #A80036; stroke-width: 1.5;" x1="453" x2="548" y1="216" y2="216"/><text fill="#000000" font-family="sans-serif" font-size="11" lengthAdjust="spacingAndGlyphs" textLength="61" x="458" y="231.4189">-String nome</text><text fill="#000000" font-family="sans-serif" font-size="11" lengthAdjust="spacingAndGlyphs" textLength="59" x="458" y="245.2549">-String email</text><text fill="#000000" font-family="sans-serif" font-size="11" lengthAdjust="spacingAndGlyphs" textLength="85" x="458" y="259.0908">-String password</text><!--MD5=[a77d152358ce76c19672aacd9fb0ada1]
link Plataforma to CompetenciaTecnica--><path codeLine="32" d="M110.403,98.273 C187.995,100.212 336.251,103.919 425.669,106.154 " fill="none" id="Plataforma-CompetenciaTecnica" style="stroke: #A80036; stroke-width: 1.0;"/><text fill="#000000" font-family="sans-serif" font-size="13" lengthAdjust="spacingAndGlyphs" textLength="38" x="229.5" y="96.4951">possui</text><text fill="#000000" font-family="sans-serif" font-size="13" lengthAdjust="spacingAndGlyphs" textLength="7" x="117.8478" y="113.0488">1</text><text fill="#000000" font-family="sans-serif" font-size="13" lengthAdjust="spacingAndGlyphs" textLength="5" x="413.0567" y="120.2964">*</text><!--MD5=[e538c9efa8de58386edc6206f3c58807]
link CompetenciaTecnica to AreaAtividade--><path codeLine="33" d="M575.257,90.646 C614.236,81.474 661.418,70.372 697.87,61.795 " fill="none" id="CompetenciaTecnica-AreaAtividade" style="stroke: #A80036; stroke-width: 1.0;"/><text fill="#000000" font-family="sans-serif" font-size="13" lengthAdjust="spacingAndGlyphs" textLength="61" x="606" y="66.4951">referente a</text><text fill="#000000" font-family="sans-serif" font-size="13" lengthAdjust="spacingAndGlyphs" textLength="5" x="583.2241" y="103.22">*</text><text fill="#000000" font-family="sans-serif" font-size="13" lengthAdjust="spacingAndGlyphs" textLength="7" x="683.176" y="77.9978">1</text><!--MD5=[81e834ef6626e9dc0f465969ac08d630]
link Administrativo to CompetenciaTecnica--><path codeLine="34" d="M303.096,170.2335 C330.836,161.54 365.246,150.731 396,141 C405.62,137.956 415.739,134.743 425.729,131.565 " fill="none" id="Administrativo-CompetenciaTecnica" style="stroke: #A80036; stroke-width: 1.0;"/><text fill="#000000" font-family="sans-serif" font-size="13" lengthAdjust="spacingAndGlyphs" textLength="34" x="347.5" y="137.4951">define</text><text fill="#000000" font-family="sans-serif" font-size="13" lengthAdjust="spacingAndGlyphs" textLength="7" x="310.9027" y="182.5742">1</text><text fill="#000000" font-family="sans-serif" font-size="13" lengthAdjust="spacingAndGlyphs" textLength="5" x="412.7604" y="148.3588">*</text><!--MD5=[83793280d21cff2204dcf19c1386ed48]
link Administrativo to Utilizador--><path codeLine="35" d="M303.155,201.7087 C313.027,204.0679 323.283,206.2914 333,208 C372.778,214.9949 418.447,219.4057 451.881,221.9763 " fill="none" id="Administrativo-Utilizador" style="stroke: #A80036; stroke-width: 1.0;"/><text fill="#000000" font-family="sans-serif" font-size="13" lengthAdjust="spacingAndGlyphs" textLength="61" x="334" y="204.4951">atua como</text><text fill="#000000" font-family="sans-serif" font-size="13" lengthAdjust="spacingAndGlyphs" textLength="22" x="311.1567" y="217.9929">0..1</text><text fill="#000000" font-family="sans-serif" font-size="13" lengthAdjust="spacingAndGlyphs" textLength="7" x="436.9003" y="236.298">1</text><!--MD5=[b585ec1f109bee2e6a0accf9e50b3199]
link Plataforma to Administrativo--><path codeLine="36" d="M107.207,124.054 C117.898,129.842 129.256,135.78 140,141 C158.624,150.049 179.473,159.189 197.817,166.9122 " fill="none" id="Plataforma-Administrativo" style="stroke: #A80036; stroke-width: 1.0;"/><text fill="#000000" font-family="sans-serif" font-size="13" lengthAdjust="spacingAndGlyphs" textLength="22" x="141" y="137.4951">tem</text><text fill="#000000" font-family="sans-serif" font-size="13" lengthAdjust="spacingAndGlyphs" textLength="7" x="110.0964" y="145.2736">1</text><text fill="#000000" font-family="sans-serif" font-size="13" lengthAdjust="spacingAndGlyphs" textLength="5" x="181.1832" y="158.3013">*</text><!--MD5=[718b46c9a1975c175f4073d63ce5ccba]
link Plataforma to AreaAtividade--><path codeLine="37" d="M110.212,80.159 C120.008,77.397 130.256,74.841 140,73 C343.469,34.558 397.952,46.891 605,44 C632.997,43.609 640.007,43.368 668,44 C677.687,44.219 687.966,44.572 697.959,44.981 " fill="none" id="Plataforma-AreaAtividade" style="stroke: #A80036; stroke-width: 1.0;"/><text fill="#000000" font-family="sans-serif" font-size="13" lengthAdjust="spacingAndGlyphs" textLength="38" x="345.5" y="41.4951">possui</text><text fill="#000000" font-family="sans-serif" font-size="13" lengthAdjust="spacingAndGlyphs" textLength="7" x="117.9762" y="92.4471">1</text><text fill="#000000" font-family="sans-serif" font-size="13" lengthAdjust="spacingAndGlyphs" textLength="5" x="685.01" y="59.1684">*</text><!--MD5=[e3c96301d761c7e2d5ab72109424edec]
@startuml
hide methods
left to right direction
skinparam classAttributeIconSize 0


class Plataforma {
  -String designacao
}

class CompetenciaTecnica {
  -String id
  -String descBreve
  -String descDetalhada
}

class AreaAtividade {
  -String codigo
  -String descBreve
  -String descDetalhada
}

class Administrativo {

}

class Utilizador {
  -String nome
  -String email
  -String password
}

Plataforma "1" - - "*" CompetenciaTecnica : possui 
CompetenciaTecnica "*" - - "1" AreaAtividade : referente a 
Administrativo "1" - - "*" CompetenciaTecnica: define 
Administrativo "0..1" - - "1" Utilizador: atua como 
Plataforma "1" - - "*" Administrativo : tem 
Plataforma "1" - - "*" AreaAtividade : possui 

@enduml

PlantUML version 1.2020.18(Wed Sep 30 20:40:44 WEST 2020)
(GPL source distribution)
Java Runtime: OpenJDK Runtime Environment
JVM: OpenJDK 64-Bit Server VM
Default Encoding: Cp1252
Language: pt
Country: PT
--></g></svg>