<?xml version="1.0" encoding="UTF-8" standalone="no"?><svg xmlns="http://www.w3.org/2000/svg" xmlns:xlink="http://www.w3.org/1999/xlink" contentScriptType="application/ecmascript" contentStyleType="text/css" height="733px" preserveAspectRatio="none" style="width:872px;height:733px;" version="1.1" viewBox="0 0 872 733" width="872px" zoomAndPan="magnify"><defs><filter height="300%" id="f1cpwfhxk4m4pu" width="300%" x="-1" y="-1"><feGaussianBlur result="blurOut" stdDeviation="2.0"/><feColorMatrix in="blurOut" result="blurOut2" type="matrix" values="0 0 0 0 0 0 0 0 0 0 0 0 0 0 0 0 0 0 .4 0"/><feOffset dx="4.0" dy="4.0" in="blurOut2" result="blurOut3"/><feBlend in="SourceGraphic" in2="blurOut3" mode="normal"/></filter></defs><g><!--MD5=[a322db5a7ec64d2ff8f2d6cf1831dcec]
class CompetenciaTecnica--><rect codeLine="4" fill="#FEFECE" filter="url(#f1cpwfhxk4m4pu)" height="103.3438" id="CompetenciaTecnica" style="stroke:#A80036;stroke-width:1.5;" width="405" x="81.475" y="616"/><ellipse cx="221.225" cy="632" fill="#ADD1B2" rx="11" ry="11" style="stroke:#A80036;stroke-width:1.0;"/><path d="M223.9906,627.875 Q224.1468,627.6563 224.3343,627.5469 Q224.5218,627.4375 224.7406,627.4375 Q225.1156,627.4375 225.35,627.7031 Q225.5843,627.9531 225.5843,628.5625 L225.5843,630.0156 Q225.5843,630.625 225.35,630.8906 Q225.1156,631.1563 224.7406,631.1563 Q224.3968,631.1563 224.1937,630.9531 Q223.9906,630.7656 223.8812,630.25 Q223.8343,629.8906 223.6468,629.7031 Q223.3187,629.3281 222.7093,629.1094 Q222.1,628.8906 221.475,628.8906 Q220.7093,628.8906 220.0687,629.2188 Q219.4437,629.5469 218.9437,630.2969 Q218.4593,631.0469 218.4593,632.0781 L218.4593,633.1719 Q218.4593,634.4063 219.35,635.2344 Q220.2406,636.0469 221.8343,636.0469 Q222.7718,636.0469 223.4281,635.7969 Q223.8187,635.6406 224.2406,635.2031 Q224.5062,634.9375 224.6468,634.8594 Q224.8031,634.7813 225.0062,634.7813 Q225.3343,634.7813 225.5843,635.0469 Q225.85,635.2969 225.85,635.6406 Q225.85,635.9844 225.5062,636.3906 Q225.0062,636.9688 224.2093,637.2969 Q223.1312,637.75 221.8343,637.75 Q220.3187,637.75 219.1156,637.125 Q218.1312,636.625 217.4437,635.5625 Q216.7562,634.4844 216.7562,633.2031 L216.7562,632.0469 Q216.7562,630.7188 217.3656,629.5781 Q217.9906,628.4219 219.0843,627.8125 Q220.1781,627.1875 221.4125,627.1875 Q222.1468,627.1875 222.7875,627.3594 Q223.4437,627.5156 223.9906,627.875 Z " fill="#000000"/><text fill="#000000" font-family="sans-serif" font-size="12" lengthAdjust="spacingAndGlyphs" textLength="117" x="241.725" y="636.9102">CompetenciaTecnica</text><line style="stroke:#A80036;stroke-width:1.5;" x1="82.475" x2="485.475" y1="648" y2="648"/><text fill="#000000" font-family="sans-serif" font-size="11" lengthAdjust="spacingAndGlyphs" textLength="67" x="87.475" y="663.4189">-String codigo</text><text fill="#000000" font-family="sans-serif" font-size="11" lengthAdjust="spacingAndGlyphs" textLength="88" x="87.475" y="677.2549">-String descBreve</text><text fill="#000000" font-family="sans-serif" font-size="11" lengthAdjust="spacingAndGlyphs" textLength="107" x="87.475" y="691.0908">-String descDetalhada</text><line style="stroke:#A80036;stroke-width:1.5;" x1="82.475" x2="485.475" y1="697.5078" y2="697.5078"/><text fill="#000000" font-family="sans-serif" font-size="11" lengthAdjust="spacingAndGlyphs" textLength="393" x="87.475" y="712.9268">+CompetenciaTecnica(String cod, String dsBreve, String dsDet, AreaAtividade at)</text><!--MD5=[02456e6632d968d6f68141e5893c6991]
class AreaAtividade--><rect codeLine="12" fill="#FEFECE" filter="url(#f1cpwfhxk4m4pu)" height="89.5078" id="AreaAtividade" style="stroke:#A80036;stroke-width:1.5;" width="119" x="632.475" y="622.5"/><ellipse cx="653.325" cy="638.5" fill="#ADD1B2" rx="11" ry="11" style="stroke:#A80036;stroke-width:1.0;"/><path d="M656.0906,634.375 Q656.2468,634.1563 656.4343,634.0469 Q656.6218,633.9375 656.8406,633.9375 Q657.2156,633.9375 657.45,634.2031 Q657.6843,634.4531 657.6843,635.0625 L657.6843,636.5156 Q657.6843,637.125 657.45,637.3906 Q657.2156,637.6563 656.8406,637.6563 Q656.4968,637.6563 656.2937,637.4531 Q656.0906,637.2656 655.9812,636.75 Q655.9343,636.3906 655.7468,636.2031 Q655.4187,635.8281 654.8093,635.6094 Q654.2,635.3906 653.575,635.3906 Q652.8093,635.3906 652.1687,635.7188 Q651.5437,636.0469 651.0437,636.7969 Q650.5593,637.5469 650.5593,638.5781 L650.5593,639.6719 Q650.5593,640.9063 651.45,641.7344 Q652.3406,642.5469 653.9343,642.5469 Q654.8718,642.5469 655.5281,642.2969 Q655.9187,642.1406 656.3406,641.7031 Q656.6062,641.4375 656.7468,641.3594 Q656.9031,641.2813 657.1062,641.2813 Q657.4343,641.2813 657.6843,641.5469 Q657.95,641.7969 657.95,642.1406 Q657.95,642.4844 657.6062,642.8906 Q657.1062,643.4688 656.3093,643.7969 Q655.2312,644.25 653.9343,644.25 Q652.4187,644.25 651.2156,643.625 Q650.2312,643.125 649.5437,642.0625 Q648.8562,640.9844 648.8562,639.7031 L648.8562,638.5469 Q648.8562,637.2188 649.4656,636.0781 Q650.0906,634.9219 651.1843,634.3125 Q652.2781,633.6875 653.5125,633.6875 Q654.2468,633.6875 654.8875,633.8594 Q655.5437,634.0156 656.0906,634.375 Z " fill="#000000"/><text fill="#000000" font-family="sans-serif" font-size="12" lengthAdjust="spacingAndGlyphs" textLength="74" x="668.625" y="643.4102">AreaAtividade</text><line style="stroke:#A80036;stroke-width:1.5;" x1="633.475" x2="750.475" y1="654.5" y2="654.5"/><text fill="#000000" font-family="sans-serif" font-size="11" lengthAdjust="spacingAndGlyphs" textLength="67" x="638.475" y="669.9189">-String codigo</text><text fill="#000000" font-family="sans-serif" font-size="11" lengthAdjust="spacingAndGlyphs" textLength="88" x="638.475" y="683.7549">-String descBreve</text><text fill="#000000" font-family="sans-serif" font-size="11" lengthAdjust="spacingAndGlyphs" textLength="107" x="638.475" y="697.5908">-String descDetalhada</text><line style="stroke:#A80036;stroke-width:1.5;" x1="633.475" x2="750.475" y1="704.0078" y2="704.0078"/><!--MD5=[ecaed46f78f8cfe1e9ce18477649be18]
class Plataforma--><rect codeLine="18" fill="#FEFECE" filter="url(#f1cpwfhxk4m4pu)" height="89.5078" id="Plataforma" style="stroke:#A80036;stroke-width:1.5;" width="266" x="358.975" y="267"/><ellipse cx="457.725" cy="283" fill="#ADD1B2" rx="11" ry="11" style="stroke:#A80036;stroke-width:1.0;"/><path d="M460.4906,278.875 Q460.6468,278.6563 460.8343,278.5469 Q461.0218,278.4375 461.2406,278.4375 Q461.6156,278.4375 461.85,278.7031 Q462.0843,278.9531 462.0843,279.5625 L462.0843,281.0156 Q462.0843,281.625 461.85,281.8906 Q461.6156,282.1563 461.2406,282.1563 Q460.8968,282.1563 460.6937,281.9531 Q460.4906,281.7656 460.3812,281.25 Q460.3343,280.8906 460.1468,280.7031 Q459.8187,280.3281 459.2093,280.1094 Q458.6,279.8906 457.975,279.8906 Q457.2093,279.8906 456.5687,280.2188 Q455.9437,280.5469 455.4437,281.2969 Q454.9593,282.0469 454.9593,283.0781 L454.9593,284.1719 Q454.9593,285.4063 455.85,286.2344 Q456.7406,287.0469 458.3343,287.0469 Q459.2718,287.0469 459.9281,286.7969 Q460.3187,286.6406 460.7406,286.2031 Q461.0062,285.9375 461.1468,285.8594 Q461.3031,285.7813 461.5062,285.7813 Q461.8343,285.7813 462.0843,286.0469 Q462.35,286.2969 462.35,286.6406 Q462.35,286.9844 462.0062,287.3906 Q461.5062,287.9688 460.7093,288.2969 Q459.6312,288.75 458.3343,288.75 Q456.8187,288.75 455.6156,288.125 Q454.6312,287.625 453.9437,286.5625 Q453.2562,285.4844 453.2562,284.2031 L453.2562,283.0469 Q453.2562,281.7188 453.8656,280.5781 Q454.4906,279.4219 455.5843,278.8125 Q456.6781,278.1875 457.9125,278.1875 Q458.6468,278.1875 459.2875,278.3594 Q459.9437,278.5156 460.4906,278.875 Z " fill="#000000"/><text fill="#000000" font-family="sans-serif" font-size="12" lengthAdjust="spacingAndGlyphs" textLength="60" x="478.225" y="287.9102">Plataforma</text><line style="stroke:#A80036;stroke-width:1.5;" x1="359.975" x2="623.975" y1="299" y2="299"/><text fill="#000000" font-family="sans-serif" font-size="11" lengthAdjust="spacingAndGlyphs" textLength="91" x="364.975" y="314.4189">-String designacao</text><line style="stroke:#A80036;stroke-width:1.5;" x1="359.975" x2="623.975" y1="320.8359" y2="320.8359"/><text fill="#000000" font-family="sans-serif" font-size="11" lengthAdjust="spacingAndGlyphs" textLength="254" x="364.975" y="336.2549">+RegistoAreasAtividade getRegistoAreasAtividade()</text><text fill="#000000" font-family="sans-serif" font-size="11" lengthAdjust="spacingAndGlyphs" textLength="130" x="364.975" y="350.0908">+RegistoCT getRegistoCT()</text><!--MD5=[13ace1d44b5c68581d5429ed2c7901cf]
class RegistoAreasAtividade--><rect codeLine="24" fill="#FEFECE" filter="url(#f1cpwfhxk4m4pu)" height="75.6719" id="RegistoAreasAtividade" style="stroke:#A80036;stroke-width:1.5;" width="273" x="555.475" y="448.5"/><ellipse cx="625.725" cy="464.5" fill="#ADD1B2" rx="11" ry="11" style="stroke:#A80036;stroke-width:1.0;"/><path d="M628.4906,460.375 Q628.6468,460.1563 628.8343,460.0469 Q629.0218,459.9375 629.2406,459.9375 Q629.6156,459.9375 629.85,460.2031 Q630.0843,460.4531 630.0843,461.0625 L630.0843,462.5156 Q630.0843,463.125 629.85,463.3906 Q629.6156,463.6563 629.2406,463.6563 Q628.8968,463.6563 628.6937,463.4531 Q628.4906,463.2656 628.3812,462.75 Q628.3343,462.3906 628.1468,462.2031 Q627.8187,461.8281 627.2093,461.6094 Q626.6,461.3906 625.975,461.3906 Q625.2093,461.3906 624.5687,461.7188 Q623.9437,462.0469 623.4437,462.7969 Q622.9593,463.5469 622.9593,464.5781 L622.9593,465.6719 Q622.9593,466.9063 623.85,467.7344 Q624.7406,468.5469 626.3343,468.5469 Q627.2718,468.5469 627.9281,468.2969 Q628.3187,468.1406 628.7406,467.7031 Q629.0062,467.4375 629.1468,467.3594 Q629.3031,467.2813 629.5062,467.2813 Q629.8343,467.2813 630.0843,467.5469 Q630.35,467.7969 630.35,468.1406 Q630.35,468.4844 630.0062,468.8906 Q629.5062,469.4688 628.7093,469.7969 Q627.6312,470.25 626.3343,470.25 Q624.8187,470.25 623.6156,469.625 Q622.6312,469.125 621.9437,468.0625 Q621.2562,466.9844 621.2562,465.7031 L621.2562,464.5469 Q621.2562,463.2188 621.8656,462.0781 Q622.4906,460.9219 623.5843,460.3125 Q624.6781,459.6875 625.9125,459.6875 Q626.6468,459.6875 627.2875,459.8594 Q627.9437,460.0156 628.4906,460.375 Z " fill="#000000"/><text fill="#000000" font-family="sans-serif" font-size="12" lengthAdjust="spacingAndGlyphs" textLength="124" x="646.225" y="469.4102">RegistoAreasAtividade</text><line style="stroke:#A80036;stroke-width:1.5;" x1="556.475" x2="827.475" y1="480.5" y2="480.5"/><line style="stroke:#A80036;stroke-width:1.5;" x1="556.475" x2="827.475" y1="488.5" y2="488.5"/><text fill="#000000" font-family="sans-serif" font-size="11" lengthAdjust="spacingAndGlyphs" textLength="205" x="561.475" y="503.9189">+List&lt;AreaAtividade&gt; getAreasAtividade()</text><text fill="#000000" font-family="sans-serif" font-size="11" lengthAdjust="spacingAndGlyphs" textLength="261" x="561.475" y="517.7549">+AreaAtividade getAreaAtividadeByCod(String atCod)</text><!--MD5=[a3d2cd28087633b4d29ef730f7304c83]
class RegistoCT--><rect codeLine="29" fill="#FEFECE" filter="url(#f1cpwfhxk4m4pu)" height="103.3438" id="RegistoCT" style="stroke:#A80036;stroke-width:1.5;" width="472" x="47.975" y="435"/><ellipse cx="250.225" cy="451" fill="#ADD1B2" rx="11" ry="11" style="stroke:#A80036;stroke-width:1.0;"/><path d="M252.9906,446.875 Q253.1468,446.6563 253.3343,446.5469 Q253.5218,446.4375 253.7406,446.4375 Q254.1156,446.4375 254.35,446.7031 Q254.5843,446.9531 254.5843,447.5625 L254.5843,449.0156 Q254.5843,449.625 254.35,449.8906 Q254.1156,450.1563 253.7406,450.1563 Q253.3968,450.1563 253.1937,449.9531 Q252.9906,449.7656 252.8812,449.25 Q252.8343,448.8906 252.6468,448.7031 Q252.3187,448.3281 251.7093,448.1094 Q251.1,447.8906 250.475,447.8906 Q249.7093,447.8906 249.0687,448.2188 Q248.4437,448.5469 247.9437,449.2969 Q247.4593,450.0469 247.4593,451.0781 L247.4593,452.1719 Q247.4593,453.4063 248.35,454.2344 Q249.2406,455.0469 250.8343,455.0469 Q251.7718,455.0469 252.4281,454.7969 Q252.8187,454.6406 253.2406,454.2031 Q253.5062,453.9375 253.6468,453.8594 Q253.8031,453.7813 254.0062,453.7813 Q254.3343,453.7813 254.5843,454.0469 Q254.85,454.2969 254.85,454.6406 Q254.85,454.9844 254.5062,455.3906 Q254.0062,455.9688 253.2093,456.2969 Q252.1312,456.75 250.8343,456.75 Q249.3187,456.75 248.1156,456.125 Q247.1312,455.625 246.4437,454.5625 Q245.7562,453.4844 245.7562,452.2031 L245.7562,451.0469 Q245.7562,449.7188 246.3656,448.5781 Q246.9906,447.4219 248.0843,446.8125 Q249.1781,446.1875 250.4125,446.1875 Q251.1468,446.1875 251.7875,446.3594 Q252.4437,446.5156 252.9906,446.875 Z " fill="#000000"/><text fill="#000000" font-family="sans-serif" font-size="12" lengthAdjust="spacingAndGlyphs" textLength="59" x="270.725" y="455.9102">RegistoCT</text><line style="stroke:#A80036;stroke-width:1.5;" x1="48.975" x2="518.975" y1="467" y2="467"/><line style="stroke:#A80036;stroke-width:1.5;" x1="48.975" x2="518.975" y1="475" y2="475"/><text fill="#000000" font-family="sans-serif" font-size="11" lengthAdjust="spacingAndGlyphs" textLength="460" x="53.975" y="490.4189">+CompetenciaTecnica novaCompetencia(String cod, String dsBreve, String dsDet, String atCod)</text><text fill="#000000" font-family="sans-serif" font-size="11" lengthAdjust="spacingAndGlyphs" textLength="244" x="53.975" y="504.2549">+void registaCompetencia(CompetenciaTecnica ct)</text><text fill="#000000" font-family="sans-serif" font-size="11" lengthAdjust="spacingAndGlyphs" textLength="237" x="53.975" y="518.0908">-void validaCompetencia(CompetenciaTecnica ct)</text><text fill="#000000" font-family="sans-serif" font-size="11" lengthAdjust="spacingAndGlyphs" textLength="227" x="53.975" y="531.9268">-void addCompetencia(CompetenciaTecnica ct)</text><!--MD5=[0d5f2a91845a226f1d20639596950880]
class EspecificarCompetenciaTecnicaController--><rect codeLine="37" fill="#FEFECE" filter="url(#f1cpwfhxk4m4pu)" height="89.5078" id="EspecificarCompetenciaTecnicaController" style="stroke:#A80036;stroke-width:1.5;" width="392" x="295.975" y="116"/><ellipse cx="371.725" cy="132" fill="#ADD1B2" rx="11" ry="11" style="stroke:#A80036;stroke-width:1.0;"/><path d="M374.4906,127.875 Q374.6468,127.6563 374.8343,127.5469 Q375.0218,127.4375 375.2406,127.4375 Q375.6156,127.4375 375.85,127.7031 Q376.0843,127.9531 376.0843,128.5625 L376.0843,130.0156 Q376.0843,130.625 375.85,130.8906 Q375.6156,131.1563 375.2406,131.1563 Q374.8968,131.1563 374.6937,130.9531 Q374.4906,130.7656 374.3812,130.25 Q374.3343,129.8906 374.1468,129.7031 Q373.8187,129.3281 373.2093,129.1094 Q372.6,128.8906 371.975,128.8906 Q371.2093,128.8906 370.5687,129.2188 Q369.9437,129.5469 369.4437,130.2969 Q368.9593,131.0469 368.9593,132.0781 L368.9593,133.1719 Q368.9593,134.4063 369.85,135.2344 Q370.7406,136.0469 372.3343,136.0469 Q373.2718,136.0469 373.9281,135.7969 Q374.3187,135.6406 374.7406,135.2031 Q375.0062,134.9375 375.1468,134.8594 Q375.3031,134.7813 375.5062,134.7813 Q375.8343,134.7813 376.0843,135.0469 Q376.35,135.2969 376.35,135.6406 Q376.35,135.9844 376.0062,136.3906 Q375.5062,136.9688 374.7093,137.2969 Q373.6312,137.75 372.3343,137.75 Q370.8187,137.75 369.6156,137.125 Q368.6312,136.625 367.9437,135.5625 Q367.2562,134.4844 367.2562,133.2031 L367.2562,132.0469 Q367.2562,130.7188 367.8656,129.5781 Q368.4906,128.4219 369.5843,127.8125 Q370.6781,127.1875 371.9125,127.1875 Q372.6468,127.1875 373.2875,127.3594 Q373.9437,127.5156 374.4906,127.875 Z " fill="#000000"/><text fill="#000000" font-family="sans-serif" font-size="12" lengthAdjust="spacingAndGlyphs" textLength="232" x="392.225" y="136.9102">EspecificarCompetenciaTecnicaController</text><line style="stroke:#A80036;stroke-width:1.5;" x1="296.975" x2="686.975" y1="148" y2="148"/><line style="stroke:#A80036;stroke-width:1.5;" x1="296.975" x2="686.975" y1="156" y2="156"/><text fill="#000000" font-family="sans-serif" font-size="11" lengthAdjust="spacingAndGlyphs" textLength="205" x="301.975" y="171.4189">+List&lt;AreaAtividade&gt; getAreasAtividade()</text><text fill="#000000" font-family="sans-serif" font-size="11" lengthAdjust="spacingAndGlyphs" textLength="380" x="301.975" y="185.2549">+void novaCompetencia(String cod, String dsBreve, String dsDet, String atCod)</text><text fill="#000000" font-family="sans-serif" font-size="11" lengthAdjust="spacingAndGlyphs" textLength="132" x="301.975" y="199.0908">+void registaCompetencia()</text><!--MD5=[cca5c0c62c63b169373ee46a261b760e]
class EspecificarCompetenciaTecnicaUI--><rect codeLine="43" fill="#FEFECE" filter="url(#f1cpwfhxk4m4pu)" height="48" id="EspecificarCompetenciaTecnicaUI" style="stroke:#A80036;stroke-width:1.5;" width="222" x="380.975" y="7"/><ellipse cx="395.975" cy="23" fill="#ADD1B2" rx="11" ry="11" style="stroke:#A80036;stroke-width:1.0;"/><path d="M398.7406,18.875 Q398.8968,18.6563 399.0843,18.5469 Q399.2718,18.4375 399.4906,18.4375 Q399.8656,18.4375 400.1,18.7031 Q400.3343,18.9531 400.3343,19.5625 L400.3343,21.0156 Q400.3343,21.625 400.1,21.8906 Q399.8656,22.1563 399.4906,22.1563 Q399.1468,22.1563 398.9437,21.9531 Q398.7406,21.7656 398.6312,21.25 Q398.5843,20.8906 398.3968,20.7031 Q398.0687,20.3281 397.4593,20.1094 Q396.85,19.8906 396.225,19.8906 Q395.4593,19.8906 394.8187,20.2188 Q394.1937,20.5469 393.6937,21.2969 Q393.2093,22.0469 393.2093,23.0781 L393.2093,24.1719 Q393.2093,25.4063 394.1,26.2344 Q394.9906,27.0469 396.5843,27.0469 Q397.5218,27.0469 398.1781,26.7969 Q398.5687,26.6406 398.9906,26.2031 Q399.2562,25.9375 399.3968,25.8594 Q399.5531,25.7813 399.7562,25.7813 Q400.0843,25.7813 400.3343,26.0469 Q400.6,26.2969 400.6,26.6406 Q400.6,26.9844 400.2562,27.3906 Q399.7562,27.9688 398.9593,28.2969 Q397.8812,28.75 396.5843,28.75 Q395.0687,28.75 393.8656,28.125 Q392.8812,27.625 392.1937,26.5625 Q391.5062,25.4844 391.5062,24.2031 L391.5062,23.0469 Q391.5062,21.7188 392.1156,20.5781 Q392.7406,19.4219 393.8343,18.8125 Q394.9281,18.1875 396.1625,18.1875 Q396.8968,18.1875 397.5375,18.3594 Q398.1937,18.5156 398.7406,18.875 Z " fill="#000000"/><text fill="#000000" font-family="sans-serif" font-size="12" lengthAdjust="spacingAndGlyphs" textLength="190" x="409.975" y="27.9102">EspecificarCompetenciaTecnicaUI</text><line style="stroke:#A80036;stroke-width:1.5;" x1="381.975" x2="601.975" y1="39" y2="39"/><line style="stroke:#A80036;stroke-width:1.5;" x1="381.975" x2="601.975" y1="47" y2="47"/><!--MD5=[ec1590f5037d4575896a6eee2fffbf21]
link EspecificarCompetenciaTecnicaUI to EspecificarCompetenciaTecnicaController--><path codeLine="47" d="M491.975,55.18 C491.975,70.589 491.975,91.417 491.975,110.447 " fill="none" id="EspecificarCompetenciaTecnicaUI-to-EspecificarCompetenciaTecnicaController" style="stroke:#A80036;stroke-width:1.0;stroke-dasharray:7.0,7.0;"/><polygon fill="#A80036" points="491.975,115.761,495.975,106.761,491.975,110.761,487.975,106.761,491.975,115.761" style="stroke:#A80036;stroke-width:1.0;"/><!--MD5=[fc91edec5b88a5673f73ea82f88e9dd8]
link EspecificarCompetenciaTecnicaController to Plataforma--><path codeLine="48" d="M491.975,206.301 C491.975,223.638 491.975,243.6 491.975,261.415 " fill="none" id="EspecificarCompetenciaTecnicaController-to-Plataforma" style="stroke:#A80036;stroke-width:1.0;stroke-dasharray:7.0,7.0;"/><polygon fill="#A80036" points="491.975,266.869,495.975,257.869,491.975,261.869,487.975,257.869,491.975,266.869" style="stroke:#A80036;stroke-width:1.0;"/><!--MD5=[932bbdd228c5ddbd9e7adab16665b123]
link EspecificarCompetenciaTecnicaController to RegistoAreasAtividade--><path codeLine="49" d="M577.674,206.196 C601.677,222.356 625.643,242.74 641.975,267 C678.04,320.572 688.358,396.508 691.155,443.301 " fill="none" id="EspecificarCompetenciaTecnicaController-to-RegistoAreasAtividade" style="stroke:#A80036;stroke-width:1.0;stroke-dasharray:7.0,7.0;"/><polygon fill="#A80036" points="691.4309,448.297,694.926,439.0891,691.1538,443.3047,686.9383,439.5325,691.4309,448.297" style="stroke:#A80036;stroke-width:1.0;"/><!--MD5=[0ea6cb159a8397673281d3785bbec0b3]
link EspecificarCompetenciaTecnicaController to RegistoCT--><path codeLine="50" d="M406.552,206.14 C382.277,222.351 357.875,242.777 340.975,267 C307.1029,315.548 293.3579,382.843 287.7809,429.879 " fill="none" id="EspecificarCompetenciaTecnicaController-to-RegistoCT" style="stroke:#A80036;stroke-width:1.0;stroke-dasharray:7.0,7.0;"/><polygon fill="#A80036" points="287.2039,434.938,292.1988,426.4497,287.771,429.9703,284.2504,425.5424,287.2039,434.938" style="stroke:#A80036;stroke-width:1.0;"/><!--MD5=[8bfcfcfc4e9f14c2e08d5fccd7a4f6a1]
link EspecificarCompetenciaTecnicaController to AreaAtividade--><path codeLine="51" d="M597.738,206.081 C685.334,249.458 802.262,325.22 845.975,435 C862.91,477.53 865.379,496.538 845.975,538 C827.3299,577.842 789.5849,609.654 756.132,631.6583 " fill="none" id="EspecificarCompetenciaTecnicaController-to-AreaAtividade" style="stroke:#A80036;stroke-width:1.0;stroke-dasharray:7.0,7.0;"/><polygon fill="#A80036" points="751.654,634.5628,761.3813,633.0202,755.8486,631.8415,757.0272,626.3088,751.654,634.5628" style="stroke:#A80036;stroke-width:1.0;"/><!--MD5=[21d74c9f8b811b3fdf1d939be954ed01]
link EspecificarCompetenciaTecnicaController to CompetenciaTecnica--><path codeLine="52" d="M339.718,206.035 C231.4449,246.341 94.2528,317.907 29.975,435 C7.9463,475.129 6,499.002 29.975,538 C49.9148,570.434 80.8569,594.984 114.373,613.458 " fill="none" id="EspecificarCompetenciaTecnicaController-to-CompetenciaTecnica" style="stroke:#A80036;stroke-width:1.0;stroke-dasharray:7.0,7.0;"/><polygon fill="#A80036" points="118.903,615.91,112.894,608.1067,114.5063,613.5289,109.0841,615.1412,118.903,615.91" style="stroke:#A80036;stroke-width:1.0;"/><!--MD5=[e538c9efa8de58386edc6206f3c58807]
link CompetenciaTecnica to AreaAtividade--><path codeLine="53" d="M486.481,667.5 C537.442,667.5 588.528,667.5 627.017,667.5 " fill="none" id="CompetenciaTecnica-to-AreaAtividade" style="stroke:#A80036;stroke-width:1.0;"/><polygon fill="#A80036" points="632.123,667.5,623.123,663.5,627.123,667.5,623.123,671.5,632.123,667.5" style="stroke:#A80036;stroke-width:1.0;"/><text fill="#000000" font-family="sans-serif" font-size="13" lengthAdjust="spacingAndGlyphs" textLength="50" x="534.475" y="660.9951">referente</text><text fill="#000000" font-family="sans-serif" font-size="13" lengthAdjust="spacingAndGlyphs" textLength="5" x="494.489" y="664.6828">*</text><text fill="#000000" font-family="sans-serif" font-size="13" lengthAdjust="spacingAndGlyphs" textLength="7" x="617.4019" y="664.0715">1</text><!--MD5=[727f7e9b0d39f0a1e7c7e190346316ff]
link Plataforma to RegistoAreasAtividade--><path codeLine="55" d="M543.22,357.199 C574.566,384.235 614.374,418.57 644.921,444.916 " fill="none" id="Plataforma-to-RegistoAreasAtividade" style="stroke:#A80036;stroke-width:1.0;"/><polygon fill="#A80036" points="648.977,448.415,644.7749,439.5075,645.191,445.1491,639.5494,445.5651,648.977,448.415" style="stroke:#A80036;stroke-width:1.0;"/><text fill="#000000" font-family="sans-serif" font-size="13" lengthAdjust="spacingAndGlyphs" textLength="38" x="598.975" y="401.4951">possui</text><text fill="#000000" font-family="sans-serif" font-size="13" lengthAdjust="spacingAndGlyphs" textLength="7" x="542.6357" y="377.8994">1</text><text fill="#000000" font-family="sans-serif" font-size="13" lengthAdjust="spacingAndGlyphs" textLength="7" x="633.6945" y="437.7618">1</text><!--MD5=[4f06741411320007e7f35449f94268cd]
link Plataforma to RegistoCT--><path codeLine="56" d="M438.6799,357.199 C411.379,379.841 377.9059,407.601 349.087,431.501 " fill="none" id="Plataforma-to-RegistoCT" style="stroke:#A80036;stroke-width:1.0;"/><polygon fill="#A80036" points="345.234,434.696,354.7151,432.0301,349.0828,431.5044,349.6085,425.872,345.234,434.696" style="stroke:#A80036;stroke-width:1.0;"/><text fill="#000000" font-family="sans-serif" font-size="13" lengthAdjust="spacingAndGlyphs" textLength="38" x="401.975" y="401.4951">possui</text><text fill="#000000" font-family="sans-serif" font-size="13" lengthAdjust="spacingAndGlyphs" textLength="7" x="424.0481" y="377.8994">1</text><text fill="#000000" font-family="sans-serif" font-size="13" lengthAdjust="spacingAndGlyphs" textLength="7" x="345.9953" y="424.1555">1</text><!--MD5=[f832e5114c0a2f3b6fd1ddd795993084]
link RegistoAreasAtividade to AreaAtividade--><path codeLine="58" d="M691.975,524.589 C691.975,551.403 691.975,587.909 691.975,617.179 " fill="none" id="RegistoAreasAtividade-to-AreaAtividade" style="stroke:#A80036;stroke-width:1.0;"/><polygon fill="#A80036" points="691.975,622.1828,695.975,613.1828,691.975,617.1828,687.975,613.1828,691.975,622.1828" style="stroke:#A80036;stroke-width:1.0;"/><text fill="#000000" font-family="sans-serif" font-size="13" lengthAdjust="spacingAndGlyphs" textLength="38" x="692.975" y="582.4951">possui</text><text fill="#000000" font-family="sans-serif" font-size="13" lengthAdjust="spacingAndGlyphs" textLength="7" x="684.3953" y="545.7739">1</text><text fill="#000000" font-family="sans-serif" font-size="13" lengthAdjust="spacingAndGlyphs" textLength="5" x="686.5921" y="611.5786">*</text><!--MD5=[c2b02cfdb8aa70326365b04c36bb2b6f]
link RegistoCT to CompetenciaTecnica--><path codeLine="59" d="M283.975,538.315 C283.975,560.897 283.975,587.547 283.975,610.682 " fill="none" id="RegistoCT-to-CompetenciaTecnica" style="stroke:#A80036;stroke-width:1.0;"/><polygon fill="#A80036" points="283.975,615.868,287.975,606.868,283.975,610.868,279.975,606.868,283.975,615.868" style="stroke:#A80036;stroke-width:1.0;"/><text fill="#000000" font-family="sans-serif" font-size="13" lengthAdjust="spacingAndGlyphs" textLength="38" x="284.975" y="582.4951">possui</text><text fill="#000000" font-family="sans-serif" font-size="13" lengthAdjust="spacingAndGlyphs" textLength="7" x="276.5046" y="559.8483">1</text><text fill="#000000" font-family="sans-serif" font-size="13" lengthAdjust="spacingAndGlyphs" textLength="5" x="278.6234" y="604.9779">*</text><!--MD5=[9f66f57e9958a6b555701f2a621e6bb8]
@startuml

skinparam classAttributeIconSize 0

class CompetenciaTecnica {
  -String codigo
  -String descBreve
  -String descDetalhada
  +CompetenciaTecnica(String cod, String dsBreve, String dsDet, AreaAtividade at)
}


class AreaAtividade {
  -String codigo
  -String descBreve
  -String descDetalhada
}

class Plataforma {
  -String designacao
  +RegistoAreasAtividade getRegistoAreasAtividade()
  +RegistoCT getRegistoCT()
}

class RegistoAreasAtividade {
  +List<AreaAtividade> getAreasAtividade()
  +AreaAtividade getAreaAtividadeByCod(String atCod)
}

class RegistoCT {
  +CompetenciaTecnica novaCompetencia(String cod, String dsBreve, String dsDet, String atCod)
  +void registaCompetencia(CompetenciaTecnica ct)
  -void validaCompetencia(CompetenciaTecnica ct)
  -void addCompetencia(CompetenciaTecnica ct)
}


class EspecificarCompetenciaTecnicaController {
  +List<AreaAtividade> getAreasAtividade()
  +void novaCompetencia(String cod, String dsBreve, String dsDet, String atCod)
  +void registaCompetencia()
}

class EspecificarCompetenciaTecnicaUI {

}

EspecificarCompetenciaTecnicaUI ..> EspecificarCompetenciaTecnicaController
EspecificarCompetenciaTecnicaController ..> Plataforma
EspecificarCompetenciaTecnicaController ..> RegistoAreasAtividade
EspecificarCompetenciaTecnicaController ..> RegistoCT
EspecificarCompetenciaTecnicaController ..> AreaAtividade
EspecificarCompetenciaTecnicaController ..> CompetenciaTecnica
CompetenciaTecnica "*" -> "1" AreaAtividade : referente

Plataforma "1" - -> "1" RegistoAreasAtividade : possui
Plataforma "1" - -> "1" RegistoCT : possui

RegistoAreasAtividade "1" - -> "*" AreaAtividade : possui
RegistoCT "1" - -> "*" CompetenciaTecnica : possui


@enduml

PlantUML version 1.2020.22(Sun Dec 06 09:36:27 WET 2020)
(GPL source distribution)
Java Runtime: Java(TM) SE Runtime Environment
JVM: Java HotSpot(TM) 64-Bit Server VM
Default Encoding: Cp1252
Language: pt
Country: PT
--></g></svg>